<svg xmlns="http://www.w3.org/2000/svg" xmlns:xlink="http://www.w3.org/1999/xlink" width="500" zoomAndPan="magnify" viewBox="0 0 375 374.999991" height="500" preserveAspectRatio="xMidYMid meet" version="1.0"><defs><g/><clipPath id="b064a45a08"><path d="M 109 147 L 142 147 L 142 149 L 109 149 Z M 109 147 " clip-rule="nonzero"/></clipPath><clipPath id="ba3aa8357e"><path d="M 109.042969 200.199219 L 125.132812 147.867188 L 209.726562 173.878906 L 193.636719 226.210938 Z M 109.042969 200.199219 " clip-rule="nonzero"/></clipPath><clipPath id="a6e9f4438c"><path d="M 71.960938 188.800781 L 103.261719 87.003906 L 224.414062 124.253906 L 193.113281 226.050781 Z M 71.960938 188.800781 " clip-rule="nonzero"/></clipPath><clipPath id="a8ca436388"><path d="M 123 147 L 199 147 L 199 221 L 123 221 Z M 123 147 " clip-rule="nonzero"/></clipPath><clipPath id="571cb7d37f"><path d="M 109.042969 200.199219 L 125.132812 147.867188 L 209.726562 173.878906 L 193.636719 226.210938 Z M 109.042969 200.199219 " clip-rule="nonzero"/></clipPath><clipPath id="122360336b"><path d="M 71.960938 188.800781 L 103.261719 87.003906 L 224.414062 124.253906 L 193.113281 226.050781 Z M 71.960938 188.800781 " clip-rule="nonzero"/></clipPath><clipPath id="da90a3a9e2"><path d="M 131.121094 178.5 L 218.039062 178.5 L 218.039062 197.320312 L 131.121094 197.320312 Z M 131.121094 178.5 " clip-rule="nonzero"/></clipPath><clipPath id="859613ede1"><path d="M 133 77 L 154 77 L 154 106 L 133 106 Z M 133 77 " clip-rule="nonzero"/></clipPath><clipPath id="2b74db1f3e"><path d="M 124.644531 67.730469 L 165.867188 89.242188 L 125.265625 167.035156 L 84.042969 145.519531 Z M 124.644531 67.730469 " clip-rule="nonzero"/></clipPath><clipPath id="96f92e2fcd"><path d="M 124.644531 67.730469 L 165.867188 89.242188 L 125.265625 167.035156 L 84.042969 145.519531 Z M 124.644531 67.730469 " clip-rule="nonzero"/></clipPath><clipPath id="12d1326882"><path d="M 93 129 L 120 129 L 120 155 L 93 155 Z M 93 129 " clip-rule="nonzero"/></clipPath><clipPath id="2b1385f428"><path d="M 124.644531 67.730469 L 165.867188 89.242188 L 125.265625 167.035156 L 84.042969 145.519531 Z M 124.644531 67.730469 " clip-rule="nonzero"/></clipPath><clipPath id="030e14224a"><path d="M 124.644531 67.730469 L 165.867188 89.242188 L 125.265625 167.035156 L 84.042969 145.519531 Z M 124.644531 67.730469 " clip-rule="nonzero"/></clipPath><clipPath id="e07b5ca129"><path d="M 109 89 L 146 89 L 146 116 L 109 116 Z M 109 89 " clip-rule="nonzero"/></clipPath><clipPath id="897553cb91"><path d="M 124.644531 67.730469 L 165.867188 89.242188 L 125.265625 167.035156 L 84.042969 145.519531 Z M 124.644531 67.730469 " clip-rule="nonzero"/></clipPath><clipPath id="fa0ac07732"><path d="M 124.644531 67.730469 L 165.867188 89.242188 L 125.265625 167.035156 L 84.042969 145.519531 Z M 124.644531 67.730469 " clip-rule="nonzero"/></clipPath><clipPath id="5200b0a84d"><path d="M 106 109 L 149 109 L 149 138 L 106 138 Z M 106 109 " clip-rule="nonzero"/></clipPath><clipPath id="6dfda4ab6c"><path d="M 124.644531 67.730469 L 165.867188 89.242188 L 125.265625 167.035156 L 84.042969 145.519531 Z M 124.644531 67.730469 " clip-rule="nonzero"/></clipPath><clipPath id="4963a3fa74"><path d="M 124.644531 67.730469 L 165.867188 89.242188 L 125.265625 167.035156 L 84.042969 145.519531 Z M 124.644531 67.730469 " clip-rule="nonzero"/></clipPath></defs><g fill="#000000" fill-opacity="1"><g transform="translate(43.51172, 191.833156)"><g><path d="M 12.640625 -42.140625 C 12.515625 -42.179688 12.554688 -42.222656 12.765625 -42.265625 C 13.054688 -42.304688 13.941406 -42.328125 15.421875 -42.328125 C 16.910156 -42.328125 18.882812 -42.328125 21.34375 -42.328125 L 30.734375 -42.328125 L 31.171875 -41.078125 C 31.390625 -40.191406 31.769531 -38.875 32.3125 -37.125 C 32.644531 -36.039062 32.914062 -35.125 33.125 -34.375 C 33.332031 -33.625 33.476562 -33.039062 33.5625 -32.625 C 33.601562 -32.375 33.914062 -31.285156 34.5 -29.359375 C 35.082031 -27.484375 35.519531 -25.984375 35.8125 -24.859375 C 36.269531 -23.316406 36.707031 -21.8125 37.125 -20.34375 C 37.539062 -18.882812 37.957031 -17.488281 38.375 -16.15625 C 38.457031 -15.863281 38.5625 -15.5 38.6875 -15.0625 C 38.8125 -14.625 38.976562 -14.113281 39.1875 -13.53125 C 39.351562 -12.9375 39.476562 -12.460938 39.5625 -12.109375 C 39.644531 -11.753906 39.707031 -11.515625 39.75 -11.390625 C 39.789062 -11.304688 39.84375 -11.117188 39.90625 -10.828125 C 39.96875 -10.535156 40.085938 -10.160156 40.265625 -9.703125 C 40.597656 -8.742188 40.785156 -8.078125 40.828125 -7.703125 C 40.867188 -7.578125 40.929688 -7.347656 41.015625 -7.015625 C 41.097656 -6.679688 41.191406 -6.335938 41.296875 -5.984375 C 41.398438 -5.628906 41.503906 -5.304688 41.609375 -5.015625 C 41.710938 -4.722656 41.765625 -4.53125 41.765625 -4.4375 C 41.804688 -4.394531 41.953125 -3.914062 42.203125 -3 C 42.242188 -2.832031 42.335938 -2.488281 42.484375 -1.96875 C 42.628906 -1.445312 42.785156 -0.925781 42.953125 -0.40625 C 43.117188 0.113281 43.265625 0.59375 43.390625 1.03125 C 43.515625 1.46875 43.597656 1.707031 43.640625 1.75 C 43.640625 1.914062 43.703125 2.207031 43.828125 2.625 C 43.953125 3.039062 44.054688 3.3125 44.140625 3.4375 C 44.179688 3.6875 44.222656 3.90625 44.265625 4.09375 C 44.304688 4.28125 44.347656 4.441406 44.390625 4.578125 C 44.429688 4.617188 44.367188 4.660156 44.203125 4.703125 C 44.035156 4.742188 43.460938 4.765625 42.484375 4.765625 C 41.503906 4.765625 40.195312 4.765625 38.5625 4.765625 L 32.125 4.765625 L 31.875 4 C 31.789062 3.789062 31.707031 3.53125 31.625 3.21875 C 31.539062 2.90625 31.457031 2.539062 31.375 2.125 C 31.375 2.039062 31.328125 1.851562 31.234375 1.5625 C 31.148438 1.269531 31.046875 0.894531 30.921875 0.4375 C 30.753906 -0.0195312 30.617188 -0.445312 30.515625 -0.84375 C 30.410156 -1.238281 30.316406 -1.601562 30.234375 -1.9375 L 29.484375 -4.953125 L 15.34375 -4.953125 L 15.21875 -4.515625 C 14.84375 -3.171875 14.5 -1.894531 14.1875 -0.6875 C 13.875 0.519531 13.585938 1.644531 13.328125 2.6875 L 12.765625 4.765625 L 6.390625 4.765625 C 4.710938 4.722656 3.382812 4.691406 2.40625 4.671875 C 1.425781 4.648438 0.9375 4.617188 0.9375 4.578125 C 2.144531 0.773438 3.289062 -3.03125 4.375 -6.84375 C 5.46875 -10.664062 6.535156 -14.519531 7.578125 -18.40625 C 7.578125 -18.488281 7.660156 -18.8125 7.828125 -19.375 C 7.992188 -19.9375 8.117188 -20.382812 8.203125 -20.71875 C 8.410156 -21.34375 8.597656 -21.96875 8.765625 -22.59375 C 8.929688 -23.226562 9.097656 -23.878906 9.265625 -24.546875 C 9.429688 -25.128906 9.609375 -25.773438 9.796875 -26.484375 C 9.984375 -27.191406 10.203125 -27.960938 10.453125 -28.796875 C 10.492188 -28.921875 10.554688 -29.160156 10.640625 -29.515625 C 10.722656 -29.867188 10.816406 -30.242188 10.921875 -30.640625 C 11.023438 -31.035156 11.128906 -31.410156 11.234375 -31.765625 C 11.335938 -32.128906 11.390625 -32.351562 11.390625 -32.4375 C 11.472656 -32.644531 11.554688 -32.894531 11.640625 -33.1875 C 11.722656 -33.476562 11.828125 -33.832031 11.953125 -34.25 C 12.160156 -35.082031 12.285156 -35.5625 12.328125 -35.6875 C 12.410156 -35.894531 12.503906 -36.25 12.609375 -36.75 C 12.710938 -37.25 12.867188 -37.875 13.078125 -38.625 C 13.421875 -39.625 13.59375 -40.253906 13.59375 -40.515625 C 13.59375 -41.265625 13.273438 -41.804688 12.640625 -42.140625 Z M 23.234375 -28.671875 C 22.734375 -30.679688 22.441406 -31.6875 22.359375 -31.6875 C 22.265625 -31.4375 22.070312 -30.640625 21.78125 -29.296875 C 21.695312 -28.960938 21.59375 -28.515625 21.46875 -27.953125 C 21.34375 -27.390625 21.175781 -26.691406 20.96875 -25.859375 C 20.882812 -25.609375 20.738281 -25.023438 20.53125 -24.109375 C 20.320312 -23.191406 20.09375 -22.226562 19.84375 -21.21875 C 19.507812 -20.050781 19.175781 -18.78125 18.84375 -17.40625 C 18.425781 -15.738281 18.21875 -14.84375 18.21875 -14.71875 C 18.21875 -14.632812 19.660156 -14.59375 22.546875 -14.59375 L 26.859375 -14.59375 L 26.734375 -15.21875 C 26.398438 -16.550781 25.941406 -18.332031 25.359375 -20.5625 C 24.773438 -22.800781 24.066406 -25.503906 23.234375 -28.671875 Z M 23.234375 -28.671875 "/></g></g></g><g fill="#000000" fill-opacity="1"><g transform="translate(88.897807, 191.833156)"><g><path d="M 26.546875 -31.625 C 27.421875 -31.625 28.234375 -31.515625 28.984375 -31.296875 C 29.734375 -31.085938 30.613281 -30.753906 31.625 -30.296875 C 33.289062 -29.503906 34.675781 -28.503906 35.78125 -27.296875 C 36.882812 -26.085938 37.757812 -24.75 38.40625 -23.28125 C 39.050781 -21.820312 39.507812 -20.269531 39.78125 -18.625 C 40.050781 -16.976562 40.1875 -15.300781 40.1875 -13.59375 C 40.1875 -12.082031 40.0625 -10.554688 39.8125 -9.015625 C 39.5625 -7.472656 39.15625 -5.976562 38.59375 -4.53125 C 38.03125 -3.09375 37.3125 -1.757812 36.4375 -0.53125 C 35.5625 0.695312 34.476562 1.75 33.1875 2.625 C 30.882812 4.257812 28.335938 5.078125 25.546875 5.078125 C 22.367188 5.078125 19.613281 4.132812 17.28125 2.25 C 17.195312 2.164062 17.070312 2.082031 16.90625 2 C 16.863281 1.957031 16.820312 1.914062 16.78125 1.875 C 16.738281 1.875 16.71875 3.816406 16.71875 7.703125 L 16.71875 17.78125 L 4.3125 17.78125 L 4.3125 -29.859375 L 4.125 -30.359375 C 3.957031 -30.691406 3.707031 -30.941406 3.375 -31.109375 L 2.875 -31.3125 L 16.71875 -31.3125 L 16.71875 -26.796875 L 17.28125 -27.546875 C 18.363281 -29.003906 19.726562 -30.046875 21.375 -30.671875 C 23.03125 -31.304688 24.753906 -31.625 26.546875 -31.625 Z M 20.84375 -22.21875 C 20.632812 -22.21875 20.414062 -22.207031 20.1875 -22.1875 C 19.957031 -22.164062 19.738281 -22.132812 19.53125 -22.09375 C 18.695312 -21.882812 18.03125 -21.363281 17.53125 -20.53125 C 17.03125 -19.695312 16.78125 -18.863281 16.78125 -18.03125 C 16.738281 -17.78125 16.71875 -17.28125 16.71875 -16.53125 C 16.71875 -15.78125 16.71875 -14.800781 16.71875 -13.59375 C 16.71875 -10.375 16.820312 -8.410156 17.03125 -7.703125 C 17.363281 -6.367188 17.851562 -5.414062 18.5 -4.84375 C 19.144531 -4.28125 20.132812 -4 21.46875 -4 C 22.5625 -4 23.296875 -4.082031 23.671875 -4.25 C 24.921875 -4.882812 25.796875 -5.992188 26.296875 -7.578125 C 26.753906 -8.992188 26.960938 -10.742188 26.921875 -12.828125 C 26.921875 -13.878906 26.859375 -14.957031 26.734375 -16.0625 C 26.609375 -17.164062 26.335938 -18.175781 25.921875 -19.09375 C 25.503906 -20.007812 24.898438 -20.757812 24.109375 -21.34375 C 23.316406 -21.925781 22.226562 -22.21875 20.84375 -22.21875 Z M 20.84375 -22.21875 "/></g></g></g><g fill="#000000" fill-opacity="1"><g transform="translate(131.592037, 191.833156)"><g><path d="M 26.546875 -31.625 C 27.421875 -31.625 28.234375 -31.515625 28.984375 -31.296875 C 29.734375 -31.085938 30.613281 -30.753906 31.625 -30.296875 C 33.289062 -29.503906 34.675781 -28.503906 35.78125 -27.296875 C 36.882812 -26.085938 37.757812 -24.75 38.40625 -23.28125 C 39.050781 -21.820312 39.507812 -20.269531 39.78125 -18.625 C 40.050781 -16.976562 40.1875 -15.300781 40.1875 -13.59375 C 40.1875 -12.082031 40.0625 -10.554688 39.8125 -9.015625 C 39.5625 -7.472656 39.15625 -5.976562 38.59375 -4.53125 C 38.03125 -3.09375 37.3125 -1.757812 36.4375 -0.53125 C 35.5625 0.695312 34.476562 1.75 33.1875 2.625 C 30.882812 4.257812 28.335938 5.078125 25.546875 5.078125 C 22.367188 5.078125 19.613281 4.132812 17.28125 2.25 C 17.195312 2.164062 17.070312 2.082031 16.90625 2 C 16.863281 1.957031 16.820312 1.914062 16.78125 1.875 C 16.738281 1.875 16.71875 3.816406 16.71875 7.703125 L 16.71875 17.78125 L 4.3125 17.78125 L 4.3125 -29.859375 L 4.125 -30.359375 C 3.957031 -30.691406 3.707031 -30.941406 3.375 -31.109375 L 2.875 -31.3125 L 16.71875 -31.3125 L 16.71875 -26.796875 L 17.28125 -27.546875 C 18.363281 -29.003906 19.726562 -30.046875 21.375 -30.671875 C 23.03125 -31.304688 24.753906 -31.625 26.546875 -31.625 Z M 20.84375 -22.21875 C 20.632812 -22.21875 20.414062 -22.207031 20.1875 -22.1875 C 19.957031 -22.164062 19.738281 -22.132812 19.53125 -22.09375 C 18.695312 -21.882812 18.03125 -21.363281 17.53125 -20.53125 C 17.03125 -19.695312 16.78125 -18.863281 16.78125 -18.03125 C 16.738281 -17.78125 16.71875 -17.28125 16.71875 -16.53125 C 16.71875 -15.78125 16.71875 -14.800781 16.71875 -13.59375 C 16.71875 -10.375 16.820312 -8.410156 17.03125 -7.703125 C 17.363281 -6.367188 17.851562 -5.414062 18.5 -4.84375 C 19.144531 -4.28125 20.132812 -4 21.46875 -4 C 22.5625 -4 23.296875 -4.082031 23.671875 -4.25 C 24.921875 -4.882812 25.796875 -5.992188 26.296875 -7.578125 C 26.753906 -8.992188 26.960938 -10.742188 26.921875 -12.828125 C 26.921875 -13.878906 26.859375 -14.957031 26.734375 -16.0625 C 26.609375 -17.164062 26.335938 -18.175781 25.921875 -19.09375 C 25.503906 -20.007812 24.898438 -20.757812 24.109375 -21.34375 C 23.316406 -21.925781 22.226562 -22.21875 20.84375 -22.21875 Z M 20.84375 -22.21875 "/></g></g></g><g fill="#000000" fill-opacity="1"><g transform="translate(174.286267, 191.833156)"><g><path d="M 3.75 -42.140625 C 3.5 -42.222656 3.539062 -42.265625 3.875 -42.265625 C 4.082031 -42.304688 4.71875 -42.328125 5.78125 -42.328125 C 6.851562 -42.328125 8.390625 -42.328125 10.390625 -42.328125 L 17.40625 -42.328125 L 17.40625 -4.953125 L 37.5625 -4.953125 L 36.625 -0.125 C 36.457031 0.707031 36.320312 1.414062 36.21875 2 C 36.113281 2.582031 36.019531 3.082031 35.9375 3.5 C 35.851562 3.957031 35.769531 4.359375 35.6875 4.703125 C 35.6875 4.742188 30.550781 4.765625 20.28125 4.765625 L 4.953125 4.765625 L 4.953125 -17.96875 C 4.953125 -33.125 4.890625 -40.828125 4.765625 -41.078125 C 4.546875 -41.578125 4.207031 -41.929688 3.75 -42.140625 Z M 3.75 -42.140625 "/></g></g></g><g fill="#000000" fill-opacity="1"><g transform="translate(213.537405, 191.833156)"><g><path d="M 1.9375 -30.984375 L 1.3125 -31.3125 L 16.03125 -31.3125 L 16.46875 -29.484375 C 17.050781 -26.984375 17.65625 -24.625 18.28125 -22.40625 C 18.90625 -20.195312 19.488281 -18.09375 20.03125 -16.09375 C 20.363281 -14.800781 20.582031 -14.015625 20.6875 -13.734375 C 20.789062 -13.460938 20.820312 -13.328125 20.78125 -13.328125 C 20.820312 -13.367188 21.910156 -17.171875 24.046875 -24.734375 C 24.128906 -25.109375 24.253906 -25.578125 24.421875 -26.140625 C 24.585938 -26.703125 24.773438 -27.378906 24.984375 -28.171875 C 25.191406 -28.960938 25.347656 -29.554688 25.453125 -29.953125 C 25.554688 -30.347656 25.628906 -30.585938 25.671875 -30.671875 L 25.859375 -31.3125 L 31.5 -31.3125 C 35.25 -31.3125 37.125 -31.242188 37.125 -31.109375 C 37.125 -30.984375 36.976562 -30.460938 36.6875 -29.546875 C 35.351562 -25.421875 33.953125 -20.976562 32.484375 -16.21875 C 31.023438 -11.457031 29.503906 -6.320312 27.921875 -0.8125 C 27.460938 0.726562 26.984375 2.34375 26.484375 4.03125 C 25.984375 5.726562 25.441406 7.367188 24.859375 8.953125 C 24.234375 10.703125 23.5 12.140625 22.65625 13.265625 C 21.820312 14.398438 20.832031 15.289062 19.6875 15.9375 C 18.539062 16.582031 17.238281 17.039062 15.78125 17.3125 C 14.320312 17.582031 12.671875 17.71875 10.828125 17.71875 L 6.390625 17.71875 L 6.390625 9.390625 L 7.078125 9.515625 C 7.285156 9.597656 7.523438 9.660156 7.796875 9.703125 C 8.066406 9.742188 8.347656 9.785156 8.640625 9.828125 C 10.804688 9.953125 12.265625 9.265625 13.015625 7.765625 L 14.59375 2.375 L 13.015625 -2.3125 C 10.265625 -10.582031 8.179688 -16.925781 6.765625 -21.34375 C 5.347656 -25.769531 4.488281 -28.296875 4.1875 -28.921875 C 3.769531 -29.878906 3.019531 -30.566406 1.9375 -30.984375 Z M 1.9375 -30.984375 "/></g></g></g><g fill="#000000" fill-opacity="1"><g transform="translate(251.724323, 191.833156)"><g><path d="M 25.796875 -31.8125 C 29.171875 -31.8125 31.929688 -30.992188 34.078125 -29.359375 C 36.234375 -27.734375 37.394531 -25.1875 37.5625 -21.71875 C 37.601562 -21.09375 37.625 -19.738281 37.625 -17.65625 C 37.625 -15.570312 37.625 -12.671875 37.625 -8.953125 L 37.625 4.765625 L 25.171875 4.765625 L 25.171875 -7.140625 C 25.171875 -11.140625 25.160156 -14.140625 25.140625 -16.140625 C 25.117188 -18.148438 25.085938 -19.257812 25.046875 -19.46875 C 24.835938 -20.425781 24.390625 -21.175781 23.703125 -21.71875 C 23.015625 -22.269531 22.226562 -22.546875 21.34375 -22.546875 C 20.757812 -22.546875 20.1875 -22.425781 19.625 -22.1875 C 19.0625 -21.957031 18.5625 -21.644531 18.125 -21.25 C 17.6875 -20.851562 17.34375 -20.394531 17.09375 -19.875 C 16.84375 -19.351562 16.71875 -18.820312 16.71875 -18.28125 L 16.71875 -6.765625 L 16.65625 4.765625 L 4.375 4.765625 L 4.375 -12.453125 C 4.375 -24.015625 4.332031 -29.921875 4.25 -30.171875 C 4.082031 -30.628906 3.769531 -30.960938 3.3125 -31.171875 C 3.269531 -31.210938 3.289062 -31.234375 3.375 -31.234375 C 3.582031 -31.285156 4.207031 -31.3125 5.25 -31.3125 C 6.300781 -31.3125 7.828125 -31.3125 9.828125 -31.3125 L 16.65625 -31.3125 L 16.71875 -29.296875 L 16.71875 -27.234375 L 17.09375 -27.734375 C 17.59375 -28.359375 18.175781 -28.921875 18.84375 -29.421875 C 19.507812 -29.921875 20.226562 -30.347656 21 -30.703125 C 21.769531 -31.054688 22.5625 -31.328125 23.375 -31.515625 C 24.195312 -31.710938 25.003906 -31.8125 25.796875 -31.8125 Z M 25.796875 -31.8125 "/></g></g></g><g fill="#000000" fill-opacity="1"><g transform="translate(293.416932, 191.833156)"><g><path d="M 1.0625 -31.046875 C 0.894531 -31.128906 0.9375 -31.171875 1.1875 -31.171875 C 1.351562 -31.210938 1.9375 -31.234375 2.9375 -31.234375 C 3.9375 -31.234375 5.523438 -31.234375 7.703125 -31.234375 L 14.90625 -31.234375 L 16.03125 -28.796875 C 16.113281 -28.585938 16.25 -28.273438 16.4375 -27.859375 C 16.625 -27.441406 16.863281 -26.898438 17.15625 -26.234375 C 17.445312 -25.566406 17.6875 -24.992188 17.875 -24.515625 C 18.0625 -24.035156 18.21875 -23.628906 18.34375 -23.296875 C 18.71875 -22.578125 19.03125 -21.90625 19.28125 -21.28125 C 19.53125 -20.65625 19.675781 -20.34375 19.71875 -20.34375 C 19.800781 -20.425781 20.113281 -21.117188 20.65625 -22.421875 C 21.113281 -23.378906 21.550781 -24.304688 21.96875 -25.203125 C 22.394531 -26.097656 22.796875 -26.960938 23.171875 -27.796875 L 24.796875 -31.171875 L 30.546875 -31.234375 C 34.390625 -31.328125 36.3125 -31.304688 36.3125 -31.171875 C 36.3125 -31.085938 36.0625 -30.609375 35.5625 -29.734375 C 35.226562 -29.191406 34.632812 -28.234375 33.78125 -26.859375 C 32.925781 -25.484375 31.890625 -23.664062 30.671875 -21.40625 L 26.546875 -13.90625 L 26.796875 -13.390625 C 27.003906 -12.847656 27.628906 -11.679688 28.671875 -9.890625 C 29.671875 -8.097656 30.691406 -6.34375 31.734375 -4.625 C 32.785156 -2.914062 33.832031 -1.0625 34.875 0.9375 C 35.207031 1.601562 35.507812 2.1875 35.78125 2.6875 C 36.050781 3.1875 36.289062 3.644531 36.5 4.0625 L 36.875 4.765625 L 23.671875 4.765625 L 23.109375 3.4375 C 23.023438 3.269531 22.863281 2.882812 22.625 2.28125 C 22.394531 1.675781 22.125 0.988281 21.8125 0.21875 C 21.5 -0.550781 21.175781 -1.351562 20.84375 -2.1875 C 20.507812 -3.019531 20.195312 -3.789062 19.90625 -4.5 C 19.613281 -5.21875 19.375 -5.816406 19.1875 -6.296875 C 19 -6.773438 18.90625 -7.015625 18.90625 -7.015625 C 18.90625 -7.015625 18.863281 -6.953125 18.78125 -6.828125 C 18.738281 -6.785156 18.300781 -5.675781 17.46875 -3.5 C 16.882812 -2.039062 16.425781 -0.84375 16.09375 0.09375 C 15.757812 1.03125 15.507812 1.707031 15.34375 2.125 L 14.34375 4.765625 L 8.265625 4.765625 C 4.253906 4.765625 2.25 4.742188 2.25 4.703125 C 2.25 4.660156 3.753906 1.695312 6.765625 -4.1875 C 8.265625 -7.113281 9.453125 -9.367188 10.328125 -10.953125 C 11.203125 -12.535156 11.640625 -13.375 11.640625 -13.46875 C 11.640625 -13.507812 11.378906 -14 10.859375 -14.9375 C 10.335938 -15.875 9.535156 -17.363281 8.453125 -19.40625 C 7.242188 -21.789062 6.304688 -23.609375 5.640625 -24.859375 C 4.972656 -26.109375 4.53125 -26.898438 4.3125 -27.234375 C 3.726562 -28.316406 3.332031 -29.003906 3.125 -29.296875 C 2.832031 -29.671875 2.53125 -30.003906 2.21875 -30.296875 C 1.90625 -30.585938 1.519531 -30.835938 1.0625 -31.046875 Z M 1.0625 -31.046875 "/></g></g></g><g clip-path="url(#b064a45a08)"><g clip-path="url(#ba3aa8357e)"><g clip-path="url(#a6e9f4438c)"><path fill="#000000" d="M 104.40625 87.902344 C 102.835938 88.414062 104.175781 96.367188 104.335938 97.320312 C 105.160156 102.242188 106.65625 106.1875 107.917969 108.941406 C 106.28125 110.621094 104.648438 112.304688 103.011719 113.984375 C 102.804688 113.433594 102.601562 112.878906 102.394531 112.324219 C 101.984375 112.476562 101.402344 112.746094 100.808594 113.234375 C 100.105469 113.808594 99.691406 114.4375 99.464844 114.851562 C 99.699219 115.363281 99.933594 115.878906 100.167969 116.394531 C 97.40625 119.382812 94.644531 122.371094 91.882812 125.363281 C 91.878906 125.378906 91.871094 125.398438 91.867188 125.414062 C 91.929688 127.675781 92.417969 129.898438 92.753906 132.136719 C 96.746094 128.554688 100.742188 124.96875 104.734375 121.386719 L 105.230469 122.378906 C 105.445312 122.199219 105.660156 122.019531 105.875 121.839844 C 105.808594 121.40625 105.746094 120.972656 105.679688 120.542969 C 107.109375 119.257812 108.539062 117.976562 109.964844 116.695312 L 119.191406 138.183594 C 117.730469 139.808594 116.273438 141.429688 114.8125 143.054688 C 114.90625 144.707031 115.003906 146.359375 115.097656 148.011719 L 121.746094 142.234375 C 122.125 142.863281 122.503906 143.492188 122.886719 144.121094 C 123.070312 144.058594 123.253906 143.996094 123.4375 143.933594 C 123.40625 143.234375 123.375 142.539062 123.34375 141.839844 C 126.050781 142.316406 128.757812 142.789062 131.464844 143.265625 C 130.71875 141.820312 129.96875 140.371094 129.21875 138.921875 C 127.027344 138.292969 124.835938 137.664062 122.644531 137.035156 L 117.160156 114.367188 L 122.285156 114.953125 L 122.785156 115.929688 L 123.304688 115.957031 C 123.386719 115.761719 123.46875 115.5625 123.550781 115.367188 C 129.394531 116.28125 135.238281 117.195312 141.082031 118.109375 C 140.738281 117.339844 140.433594 116.722656 140.210938 116.308594 C 139.492188 114.953125 138.707031 113.625 138.054688 112.234375 C 137.964844 112.039062 137.875 111.84375 137.789062 111.644531 C 133.464844 110.550781 129.140625 109.457031 124.816406 108.363281 C 124.691406 107.808594 124.566406 107.253906 124.441406 106.699219 C 124.035156 106.484375 123.363281 106.191406 122.488281 106.097656 C 121.78125 106.019531 121.191406 106.097656 120.78125 106.183594 C 120.808594 106.761719 120.832031 107.339844 120.855469 107.921875 C 118.652344 107.496094 116.453125 107.074219 114.25 106.648438 C 113.453125 103.382812 112.039062 98.953125 109.371094 94.144531 C 108.25 92.132812 105.671875 87.488281 104.40625 87.902344 Z M 104.40625 87.902344 " fill-opacity="1" fill-rule="nonzero"/></g></g></g><g clip-path="url(#a8ca436388)"><g clip-path="url(#571cb7d37f)"><g clip-path="url(#122360336b)"><path fill="#000000" d="M 158.054688 208.800781 C 164.558594 214.308594 173.324219 219.964844 182 220.628906 C 185.898438 221.007812 190.191406 220.40625 193.304688 217.847656 C 196.363281 215.398438 197.925781 211.523438 198.226562 207.703125 C 197.09375 212.46875 194.242188 216.851562 189.292969 218.140625 C 187.007812 218.765625 184.597656 218.675781 182.269531 218.3125 C 173.328125 217 164.027344 209.835938 157.609375 203.707031 C 150.949219 197.324219 145.191406 190.027344 140.21875 182.257812 C 135.71875 175.214844 131.898438 167.769531 128.714844 160.023438 C 126.933594 155.703125 125.371094 151.277344 123.949219 146.824219 C 127.664062 170.050781 140.160156 193.425781 158.054688 208.800781 Z M 158.054688 208.800781 " fill-opacity="1" fill-rule="nonzero"/></g></g></g><g clip-path="url(#da90a3a9e2)"><path fill="#ffffff" d="M 131.121094 178.5 L 218.019531 178.5 L 218.019531 197.320312 L 131.121094 197.320312 Z M 131.121094 178.5 " fill-opacity="1" fill-rule="nonzero"/></g><g clip-path="url(#859613ede1)"><g clip-path="url(#2b74db1f3e)"><g clip-path="url(#96f92e2fcd)"><path fill="#000000" d="M 153.160156 95.851562 C 153.160156 95.84375 153.164062 95.839844 153.164062 95.832031 C 153.164062 95.828125 153.164062 95.820312 153.164062 95.816406 L 152.914062 87.707031 C 152.914062 87.699219 152.914062 87.691406 152.910156 87.683594 C 152.90625 87.667969 152.902344 87.65625 152.890625 87.644531 C 152.890625 87.644531 152.886719 87.640625 152.886719 87.640625 L 143.878906 77.773438 C 143.871094 77.765625 143.859375 77.757812 143.847656 77.75 C 143.84375 77.746094 143.835938 77.746094 143.832031 77.746094 C 143.8125 77.738281 143.792969 77.738281 143.777344 77.742188 C 143.769531 77.746094 143.757812 77.746094 143.75 77.75 C 143.734375 77.761719 143.71875 77.777344 143.707031 77.796875 C 143.707031 77.796875 143.707031 77.800781 143.703125 77.804688 C 143.703125 77.804688 143.703125 77.804688 143.703125 77.808594 L 141.820312 82.859375 L 137.074219 85.195312 C 137.0625 85.203125 137.050781 85.210938 137.042969 85.222656 C 137.039062 85.222656 137.039062 85.226562 137.035156 85.230469 C 137.035156 85.234375 137.03125 85.234375 137.03125 85.238281 L 133.71875 91.074219 C 133.714844 91.082031 133.710938 91.085938 133.707031 91.09375 C 133.707031 91.097656 133.707031 91.097656 133.707031 91.097656 C 133.707031 91.097656 133.707031 91.101562 133.707031 91.101562 C 133.703125 91.117188 133.703125 91.136719 133.707031 91.15625 L 136.488281 100.652344 C 136.5 100.683594 136.515625 100.703125 136.542969 100.714844 C 136.542969 100.71875 136.542969 100.71875 136.546875 100.71875 L 146.761719 105.496094 C 146.78125 105.503906 146.804688 105.507812 146.824219 105.503906 C 146.832031 105.5 146.84375 105.5 146.847656 105.496094 C 146.867188 105.488281 146.878906 105.472656 146.890625 105.457031 C 146.894531 105.453125 146.894531 105.453125 146.894531 105.449219 L 150.785156 97.972656 L 153.128906 95.898438 C 153.128906 95.898438 153.132812 95.894531 153.132812 95.894531 C 153.148438 95.882812 153.15625 95.867188 153.160156 95.851562 Z M 140.109375 91.320312 L 146.339844 86.710938 L 146.238281 90.738281 Z M 146.121094 90.957031 L 144.054688 93.785156 L 140.085938 91.53125 Z M 142.339844 95.605469 L 134.265625 91.257812 L 139.691406 91.558594 Z M 140.070312 91.761719 L 143.933594 93.953125 L 142.652344 95.707031 Z M 144.113281 94.054688 L 148.742188 96.683594 L 142.835938 95.8125 Z M 144.238281 93.886719 L 146.320312 91.03125 L 149.035156 96.613281 Z M 146.445312 90.664062 L 146.546875 86.625 L 152.484375 87.753906 Z M 152.523438 87.550781 L 146.527344 86.410156 L 144.035156 78.253906 Z M 143.789062 78.167969 L 146.253906 86.214844 L 142.023438 82.898438 Z M 141.886719 83.054688 L 146.085938 86.347656 L 137.476562 85.230469 Z M 146.179688 86.570312 L 139.792969 91.296875 L 137.289062 85.414062 Z M 137.109375 85.523438 L 139.589844 91.347656 L 133.980469 91.03125 Z M 136.644531 100.449219 L 133.976562 91.335938 L 142.460938 95.90625 Z M 136.785156 100.601562 L 142.609375 96.054688 L 146.601562 105.191406 Z M 142.816406 96.019531 L 149.140625 96.953125 L 146.785156 105.097656 Z M 149.332031 97.039062 L 150.570312 97.9375 L 147.195312 104.425781 Z M 150.695312 97.773438 L 149.507812 96.910156 L 152.65625 96.042969 Z M 149.328125 96.742188 L 146.617188 91.167969 L 152.828125 95.777344 Z M 146.539062 90.851562 L 152.710938 87.875 L 152.949219 95.609375 Z M 146.539062 90.851562 " fill-opacity="1" fill-rule="nonzero"/></g></g></g><g clip-path="url(#12d1326882)"><g clip-path="url(#2b1385f428)"><g clip-path="url(#030e14224a)"><path fill="#000000" d="M 119.683594 151.207031 C 119.683594 151.199219 119.683594 151.191406 119.683594 151.183594 C 119.683594 151.171875 119.683594 151.160156 119.679688 151.148438 L 114.492188 134.660156 C 114.488281 134.660156 114.488281 134.65625 114.488281 134.65625 C 114.480469 134.632812 114.464844 134.617188 114.449219 134.605469 L 106.601562 129.363281 C 106.59375 129.359375 106.589844 129.355469 106.582031 129.351562 C 106.574219 129.347656 106.566406 129.347656 106.558594 129.34375 C 106.542969 129.34375 106.527344 129.34375 106.511719 129.347656 C 106.511719 129.347656 106.511719 129.347656 106.507812 129.347656 C 106.507812 129.351562 106.503906 129.351562 106.5 129.351562 L 103.289062 130.808594 L 93.996094 130.757812 C 93.992188 130.757812 93.988281 130.757812 93.988281 130.757812 C 93.964844 130.757812 93.949219 130.765625 93.933594 130.777344 C 93.925781 130.78125 93.921875 130.785156 93.914062 130.792969 C 93.902344 130.808594 93.890625 130.828125 93.890625 130.851562 C 93.890625 130.855469 93.890625 130.855469 93.890625 130.859375 L 93.472656 145.636719 C 93.472656 145.640625 93.472656 145.640625 93.472656 145.640625 C 93.472656 145.664062 93.480469 145.683594 93.496094 145.703125 C 93.496094 145.707031 93.5 145.707031 93.5 145.710938 L 101.445312 154.742188 C 101.445312 154.742188 101.445312 154.746094 101.449219 154.746094 C 101.457031 154.753906 101.464844 154.761719 101.476562 154.765625 C 101.484375 154.769531 101.496094 154.773438 101.503906 154.777344 C 101.511719 154.777344 101.519531 154.777344 101.527344 154.777344 L 108.921875 154.496094 C 108.925781 154.496094 108.929688 154.496094 108.929688 154.492188 C 108.929688 154.492188 108.929688 154.492188 108.933594 154.492188 C 108.933594 154.492188 108.9375 154.492188 108.941406 154.492188 C 108.953125 154.488281 108.964844 154.484375 108.976562 154.476562 C 108.980469 154.472656 108.984375 154.472656 108.988281 154.46875 L 113.65625 150.386719 L 119.566406 151.285156 C 119.566406 151.285156 119.566406 151.285156 119.570312 151.285156 C 119.59375 151.289062 119.617188 151.28125 119.636719 151.269531 C 119.644531 151.265625 119.652344 151.257812 119.660156 151.25 C 119.664062 151.246094 119.667969 151.238281 119.671875 151.230469 C 119.675781 151.222656 119.679688 151.214844 119.683594 151.207031 Z M 119.332031 150.730469 L 112.511719 142.792969 L 114.402344 135.074219 Z M 112.328125 142.660156 L 108.261719 140.285156 L 114.210938 134.992188 Z M 112.191406 142.820312 L 104.433594 147.296875 L 108.125 140.445312 Z M 114.222656 134.703125 L 108.160156 140.09375 L 106.675781 129.664062 Z M 103.8125 140.945312 L 101.410156 141.363281 L 103.542969 133.863281 Z M 103.738281 133.589844 L 107.914062 140.226562 L 104.019531 140.90625 Z M 103.820312 141.152344 L 104.046875 147.074219 L 101.417969 141.574219 Z M 104.027344 141.117188 L 107.890625 140.441406 L 104.257812 147.183594 Z M 106.472656 129.703125 L 107.914062 139.835938 L 103.746094 133.210938 Z M 106.203125 129.714844 L 103.691406 132.949219 L 103.425781 130.976562 Z M 103.222656 131.015625 L 103.5 133.070312 L 94.878906 130.96875 Z M 103.492188 133.28125 L 101.226562 141.253906 L 94.230469 131.023438 Z M 94.089844 131.183594 L 101.117188 141.457031 L 93.6875 145.464844 Z M 93.742188 145.667969 L 101.164062 141.667969 L 101.414062 154.390625 Z M 101.378906 141.972656 L 104.058594 147.574219 L 101.617188 154.125 Z M 101.675781 154.5625 L 104.199219 147.789062 L 108.726562 154.292969 Z M 104.320312 147.601562 L 112.222656 143.039062 L 108.882812 154.15625 Z M 109.121094 154.074219 L 112.367188 143.277344 L 113.515625 150.238281 Z M 113.714844 150.1875 L 112.558594 143.167969 L 119.320312 151.039062 Z M 113.714844 150.1875 " fill-opacity="1" fill-rule="nonzero"/></g></g></g><g clip-path="url(#e07b5ca129)"><g clip-path="url(#897553cb91)"><g clip-path="url(#fa0ac07732)"><path fill="#000000" d="M 145.5 104.203125 C 145.503906 104.1875 145.507812 104.167969 145.503906 104.148438 C 145.503906 104.144531 145.5 104.140625 145.5 104.132812 C 145.492188 104.121094 145.488281 104.109375 145.476562 104.101562 L 133.839844 90.984375 C 133.839844 90.984375 133.835938 90.980469 133.835938 90.980469 C 133.824219 90.96875 133.808594 90.960938 133.792969 90.957031 C 133.792969 90.953125 133.792969 90.953125 133.792969 90.953125 C 133.792969 90.953125 133.792969 90.953125 133.789062 90.953125 C 133.785156 90.953125 133.785156 90.953125 133.785156 90.953125 C 133.78125 90.953125 133.78125 90.953125 133.777344 90.949219 L 123.226562 89.511719 C 123.21875 89.511719 123.214844 89.511719 123.210938 89.511719 C 123.203125 89.511719 123.199219 89.511719 123.191406 89.511719 C 123.175781 89.515625 123.160156 89.523438 123.148438 89.53125 C 123.144531 89.535156 123.140625 89.535156 123.140625 89.539062 L 120.109375 92.316406 L 109.8125 96.363281 C 109.808594 96.367188 109.804688 96.367188 109.800781 96.371094 C 109.78125 96.378906 109.769531 96.390625 109.757812 96.40625 C 109.753906 96.414062 109.753906 96.421875 109.75 96.429688 C 109.742188 96.449219 109.742188 96.46875 109.75 96.492188 C 109.75 96.492188 109.75 96.496094 109.75 96.496094 L 114.582031 110.484375 C 114.589844 110.507812 114.605469 110.527344 114.628906 110.542969 C 114.632812 110.542969 114.632812 110.542969 114.636719 110.542969 C 114.636719 110.546875 114.636719 110.546875 114.640625 110.546875 L 126.652344 115.480469 C 126.671875 115.488281 126.691406 115.492188 126.710938 115.488281 C 126.71875 115.488281 126.730469 115.484375 126.734375 115.480469 L 134.808594 111.957031 C 134.816406 111.957031 134.820312 111.953125 134.828125 111.949219 C 134.839844 111.941406 134.847656 111.929688 134.855469 111.917969 L 138.5625 106.039062 L 145.429688 104.269531 C 145.453125 104.265625 145.472656 104.25 145.488281 104.230469 C 145.492188 104.222656 145.496094 104.214844 145.5 104.203125 Z M 145.019531 103.894531 L 134.566406 99.453125 L 133.890625 91.355469 Z M 133.683594 91.375 L 134.355469 99.414062 L 128.976562 98.984375 Z M 124.507812 101.441406 L 121.554688 94.675781 L 128.597656 99.070312 Z M 128.652344 99.277344 L 127.039062 107.242188 L 124.589844 101.632812 Z M 124.324219 101.546875 L 121.785156 103.015625 L 121.453125 94.960938 Z M 124.410156 101.738281 L 126.808594 107.234375 L 121.871094 103.207031 Z M 126.96875 107.632812 L 126.613281 114.917969 L 121.941406 103.53125 Z M 128.882812 99.183594 L 134.25 99.613281 L 127.25 107.242188 Z M 133.589844 91.136719 L 128.800781 98.871094 L 123.40625 89.746094 Z M 128.496094 98.761719 L 121.453125 94.371094 L 123.226562 89.851562 Z M 122.949219 89.992188 L 121.308594 94.175781 L 120.296875 92.425781 Z M 120.121094 92.535156 L 121.164062 94.335938 L 110.855469 96.175781 Z M 121.226562 94.535156 L 121.578125 103.007812 L 110.148438 96.515625 Z M 114.71875 110.257812 L 110.035156 96.6875 L 121.523438 103.214844 Z M 114.859375 110.414062 L 121.652344 103.378906 L 126.503906 115.199219 Z M 126.804688 115.226562 L 127.171875 107.757812 L 134.535156 111.851562 Z M 127.238281 107.558594 L 134.371094 99.785156 L 134.660156 111.6875 Z M 134.863281 111.519531 L 134.582031 99.902344 L 138.375 105.949219 Z M 138.542969 105.832031 L 134.730469 99.75 L 145.082031 104.148438 Z M 138.542969 105.832031 " fill-opacity="1" fill-rule="nonzero"/></g></g></g><g clip-path="url(#5200b0a84d)"><g clip-path="url(#6dfda4ab6c)"><g clip-path="url(#4963a3fa74)"><path fill="#000000" d="M 148.722656 121.90625 C 148.722656 121.890625 148.71875 121.871094 148.710938 121.855469 C 148.710938 121.851562 148.707031 121.851562 148.703125 121.847656 L 140.339844 109.609375 C 140.339844 109.605469 140.335938 109.597656 140.332031 109.59375 C 140.332031 109.59375 140.332031 109.59375 140.328125 109.59375 C 140.328125 109.59375 140.324219 109.589844 140.324219 109.585938 C 140.304688 109.574219 140.28125 109.5625 140.257812 109.5625 C 140.257812 109.5625 140.253906 109.5625 140.253906 109.5625 L 125.539062 109.738281 C 125.527344 109.738281 125.515625 109.742188 125.5 109.746094 C 125.5 109.75 125.496094 109.75 125.496094 109.75 C 125.488281 109.753906 125.480469 109.757812 125.472656 109.765625 L 116.980469 116.898438 C 116.976562 116.902344 116.972656 116.90625 116.96875 116.910156 C 116.960938 116.917969 116.953125 116.929688 116.949219 116.941406 L 113.914062 124.605469 L 106.425781 129.421875 C 106.410156 129.433594 106.398438 129.445312 106.390625 129.460938 C 106.386719 129.46875 106.382812 129.480469 106.378906 129.488281 C 106.378906 129.496094 106.378906 129.5 106.378906 129.503906 C 106.375 129.523438 106.382812 129.542969 106.390625 129.5625 C 106.394531 129.566406 106.394531 129.570312 106.398438 129.574219 C 106.410156 129.585938 106.417969 129.597656 106.433594 129.601562 L 122.386719 137.976562 C 122.386719 137.976562 122.390625 137.976562 122.390625 137.976562 C 122.390625 137.980469 122.394531 137.980469 122.394531 137.980469 C 122.398438 137.980469 122.398438 137.980469 122.398438 137.980469 C 122.40625 137.984375 122.414062 137.988281 122.421875 137.988281 C 122.4375 137.988281 122.449219 137.988281 122.460938 137.984375 L 134.796875 134.859375 C 134.800781 134.859375 134.808594 134.855469 134.8125 134.851562 C 134.8125 134.851562 134.8125 134.855469 134.8125 134.851562 C 134.828125 134.84375 134.84375 134.832031 134.855469 134.816406 L 137.75 130.640625 L 148.683594 121.988281 C 148.6875 121.984375 148.6875 121.980469 148.691406 121.980469 C 148.707031 121.964844 148.714844 121.949219 148.71875 121.929688 C 148.722656 121.921875 148.722656 121.914062 148.722656 121.90625 Z M 140.066406 109.773438 L 133.722656 119.988281 L 125.75 109.945312 Z M 126.789062 117.929688 L 125.695312 110.207031 L 133.445312 119.972656 Z M 133.542969 120.21875 L 130.910156 122.867188 L 127 118.210938 Z M 126.582031 118.40625 L 126.363281 127.417969 L 120.128906 129.328125 Z M 126.792969 118.289062 L 130.765625 123.015625 L 126.574219 127.238281 Z M 130.898438 123.175781 L 135.683594 128.871094 L 126.679688 127.425781 Z M 131.042969 123.027344 L 133.679688 120.375 L 135.730469 128.605469 Z M 125.460938 110.042969 L 126.574219 117.894531 L 117.296875 116.902344 Z M 126.523438 118.097656 L 119.945312 129.226562 L 117.179688 117.097656 Z M 117.019531 117.328125 L 119.734375 129.234375 L 114.121094 124.640625 Z M 113.992188 124.800781 L 119.613281 129.402344 L 106.835938 129.40625 Z M 106.902344 129.613281 L 119.828125 129.609375 L 122.265625 137.679688 Z M 120.03125 129.574219 L 126.289062 127.65625 L 122.449219 137.566406 Z M 122.605469 137.734375 L 126.507812 127.671875 L 134.554688 134.707031 Z M 126.804688 127.65625 L 135.816406 129.101562 L 134.703125 134.5625 Z M 134.972656 134.285156 L 136.007812 129.214844 L 137.539062 130.582031 Z M 137.679688 130.433594 L 136.117188 129.035156 L 147.53125 122.636719 Z M 136.007812 128.859375 L 133.871094 120.289062 L 148.289062 121.972656 Z M 133.90625 120.085938 L 140.257812 109.855469 L 148.40625 121.777344 Z M 133.90625 120.085938 " fill-opacity="1" fill-rule="nonzero"/></g></g></g><g fill="#000000" fill-opacity="1"><g transform="translate(135.424104, 247.958962)"><g><path d="M 7.703125 -9.203125 C 8.816406 -8.953125 9.796875 -8.644531 10.640625 -8.28125 C 11.484375 -7.925781 12.140625 -7.453125 12.609375 -6.859375 C 13.085938 -6.273438 13.328125 -5.503906 13.328125 -4.546875 C 13.328125 -3.554688 13.078125 -2.703125 12.578125 -1.984375 C 12.085938 -1.273438 11.390625 -0.734375 10.484375 -0.359375 C 9.578125 0.015625 8.523438 0.203125 7.328125 0.203125 C 6.441406 0.203125 5.671875 0.164062 5.015625 0.09375 C 4.359375 0.0195312 3.707031 -0.117188 3.0625 -0.328125 C 2.425781 -0.546875 1.695312 -0.863281 0.875 -1.28125 L 2.03125 -3.71875 C 2.71875 -3.394531 3.347656 -3.144531 3.921875 -2.96875 C 4.492188 -2.789062 5.0625 -2.671875 5.625 -2.609375 C 6.1875 -2.554688 6.789062 -2.53125 7.4375 -2.53125 C 8.289062 -2.53125 8.953125 -2.679688 9.421875 -2.984375 C 9.898438 -3.285156 10.140625 -3.722656 10.140625 -4.296875 C 10.140625 -4.816406 9.867188 -5.21875 9.328125 -5.5 C 8.796875 -5.789062 7.96875 -6.070312 6.84375 -6.34375 C 5.789062 -6.582031 4.828125 -6.867188 3.953125 -7.203125 C 3.078125 -7.535156 2.378906 -8 1.859375 -8.59375 C 1.335938 -9.195312 1.078125 -10.003906 1.078125 -11.015625 C 1.078125 -11.929688 1.304688 -12.738281 1.765625 -13.4375 C 2.234375 -14.144531 2.894531 -14.695312 3.75 -15.09375 C 4.601562 -15.488281 5.617188 -15.6875 6.796875 -15.6875 C 7.972656 -15.6875 9.066406 -15.5625 10.078125 -15.3125 C 11.085938 -15.0625 11.972656 -14.769531 12.734375 -14.4375 L 11.46875 -11.921875 C 10.789062 -12.210938 10.015625 -12.457031 9.140625 -12.65625 C 8.265625 -12.851562 7.460938 -12.953125 6.734375 -12.953125 C 5.941406 -12.953125 5.332031 -12.796875 4.90625 -12.484375 C 4.476562 -12.171875 4.265625 -11.769531 4.265625 -11.28125 C 4.265625 -10.738281 4.546875 -10.320312 5.109375 -10.03125 C 5.679688 -9.738281 6.546875 -9.460938 7.703125 -9.203125 Z M 7.703125 -9.203125 "/></g></g></g><g fill="#000000" fill-opacity="1"><g transform="translate(149.633568, 247.958962)"><g><path d="M 7.296875 -12.171875 C 8.210938 -12.171875 9.0625 -12.007812 9.84375 -11.6875 C 10.625 -11.375 11.316406 -10.929688 11.921875 -10.359375 C 12.523438 -9.785156 12.992188 -9.128906 13.328125 -8.390625 C 13.671875 -7.648438 13.84375 -6.847656 13.84375 -5.984375 C 13.84375 -5.128906 13.671875 -4.328125 13.328125 -3.578125 C 12.992188 -2.835938 12.523438 -2.179688 11.921875 -1.609375 C 11.316406 -1.046875 10.625 -0.609375 9.84375 -0.296875 C 9.0625 0.015625 8.210938 0.171875 7.296875 0.171875 C 6.410156 0.171875 5.570312 0.015625 4.78125 -0.296875 C 3.988281 -0.609375 3.289062 -1.046875 2.6875 -1.609375 C 2.082031 -2.179688 1.609375 -2.835938 1.265625 -3.578125 C 0.929688 -4.328125 0.765625 -5.128906 0.765625 -5.984375 C 0.765625 -6.847656 0.929688 -7.648438 1.265625 -8.390625 C 1.609375 -9.128906 2.082031 -9.785156 2.6875 -10.359375 C 3.289062 -10.929688 3.988281 -11.375 4.78125 -11.6875 C 5.570312 -12.007812 6.410156 -12.171875 7.296875 -12.171875 Z M 7.296875 -2.578125 C 7.960938 -2.578125 8.554688 -2.726562 9.078125 -3.03125 C 9.609375 -3.34375 10.03125 -3.757812 10.34375 -4.28125 C 10.664062 -4.800781 10.828125 -5.367188 10.828125 -5.984375 C 10.828125 -6.617188 10.664062 -7.191406 10.34375 -7.703125 C 10.03125 -8.222656 9.609375 -8.640625 9.078125 -8.953125 C 8.554688 -9.265625 7.960938 -9.421875 7.296875 -9.421875 C 6.660156 -9.421875 6.070312 -9.265625 5.53125 -8.953125 C 5 -8.640625 4.570312 -8.222656 4.25 -7.703125 C 3.9375 -7.191406 3.78125 -6.617188 3.78125 -5.984375 C 3.78125 -5.367188 3.9375 -4.800781 4.25 -4.28125 C 4.570312 -3.757812 5 -3.34375 5.53125 -3.03125 C 6.070312 -2.726562 6.660156 -2.578125 7.296875 -2.578125 Z M 7.296875 -2.578125 "/></g></g></g><g fill="#000000" fill-opacity="1"><g transform="translate(164.282954, 247.958962)"><g><path d="M 1.4375 -16.59375 L 4.515625 -16.59375 L 4.515625 0 L 1.4375 0 Z M 1.4375 -16.59375 "/></g></g></g><g fill="#000000" fill-opacity="1"><g transform="translate(170.243895, 247.958962)"><g><path d="M 12.671875 -11.953125 L 12.671875 0 L 9.609375 0 L 9.609375 -0.796875 C 9.160156 -0.484375 8.660156 -0.242188 8.109375 -0.078125 C 7.554688 0.0859375 6.972656 0.171875 6.359375 0.171875 C 4.609375 0.171875 3.316406 -0.257812 2.484375 -1.125 C 1.660156 -1.988281 1.25 -3.390625 1.25 -5.328125 L 1.25 -11.953125 L 4.3125 -11.953125 L 4.3125 -5.328125 C 4.3125 -3.492188 5.175781 -2.578125 6.90625 -2.578125 C 7.46875 -2.578125 7.972656 -2.660156 8.421875 -2.828125 C 8.867188 -2.992188 9.265625 -3.222656 9.609375 -3.515625 L 9.609375 -11.953125 Z M 12.671875 -11.953125 "/></g></g></g><g fill="#000000" fill-opacity="1"><g transform="translate(184.299391, 247.958962)"><g><path d="M 5.234375 -9.421875 L 5.234375 -5.1875 C 5.234375 -4.488281 5.285156 -3.9375 5.390625 -3.53125 C 5.492188 -3.125 5.679688 -2.835938 5.953125 -2.671875 C 6.222656 -2.515625 6.613281 -2.4375 7.125 -2.4375 C 7.394531 -2.4375 7.644531 -2.453125 7.875 -2.484375 C 8.113281 -2.515625 8.332031 -2.535156 8.53125 -2.546875 L 8.53125 -0.265625 C 8.476562 -0.242188 8.21875 -0.164062 7.75 -0.03125 C 7.289062 0.101562 6.628906 0.171875 5.765625 0.171875 C 5.109375 0.171875 4.503906 0.0351562 3.953125 -0.234375 C 3.398438 -0.515625 2.960938 -0.929688 2.640625 -1.484375 C 2.316406 -2.046875 2.15625 -2.75 2.15625 -3.59375 L 2.15625 -9.421875 L 0.46875 -9.421875 L 0.46875 -11.953125 L 2.15625 -11.953125 L 2.15625 -16.59375 L 5.234375 -16.59375 L 5.234375 -11.953125 L 8.578125 -11.953125 L 8.578125 -9.421875 Z M 5.234375 -9.421875 "/></g></g></g><g fill="#000000" fill-opacity="1"><g transform="translate(193.471761, 247.958962)"><g><path d="M 2.96875 -13.25 C 2.488281 -13.25 2.070312 -13.421875 1.71875 -13.765625 C 1.375 -14.109375 1.203125 -14.53125 1.203125 -15.03125 C 1.203125 -15.53125 1.375 -15.953125 1.71875 -16.296875 C 2.070312 -16.648438 2.488281 -16.828125 2.96875 -16.828125 C 3.457031 -16.828125 3.867188 -16.648438 4.203125 -16.296875 C 4.535156 -15.953125 4.703125 -15.53125 4.703125 -15.03125 C 4.703125 -14.53125 4.535156 -14.109375 4.203125 -13.765625 C 3.867188 -13.421875 3.457031 -13.25 2.96875 -13.25 Z M 1.453125 -11.953125 L 4.515625 -11.953125 L 4.515625 0 L 1.453125 0 Z M 1.453125 -11.953125 "/></g></g></g><g fill="#000000" fill-opacity="1"><g transform="translate(199.454697, 247.958962)"><g><path d="M 7.296875 -12.171875 C 8.210938 -12.171875 9.0625 -12.007812 9.84375 -11.6875 C 10.625 -11.375 11.316406 -10.929688 11.921875 -10.359375 C 12.523438 -9.785156 12.992188 -9.128906 13.328125 -8.390625 C 13.671875 -7.648438 13.84375 -6.847656 13.84375 -5.984375 C 13.84375 -5.128906 13.671875 -4.328125 13.328125 -3.578125 C 12.992188 -2.835938 12.523438 -2.179688 11.921875 -1.609375 C 11.316406 -1.046875 10.625 -0.609375 9.84375 -0.296875 C 9.0625 0.015625 8.210938 0.171875 7.296875 0.171875 C 6.410156 0.171875 5.570312 0.015625 4.78125 -0.296875 C 3.988281 -0.609375 3.289062 -1.046875 2.6875 -1.609375 C 2.082031 -2.179688 1.609375 -2.835938 1.265625 -3.578125 C 0.929688 -4.328125 0.765625 -5.128906 0.765625 -5.984375 C 0.765625 -6.847656 0.929688 -7.648438 1.265625 -8.390625 C 1.609375 -9.128906 2.082031 -9.785156 2.6875 -10.359375 C 3.289062 -10.929688 3.988281 -11.375 4.78125 -11.6875 C 5.570312 -12.007812 6.410156 -12.171875 7.296875 -12.171875 Z M 7.296875 -2.578125 C 7.960938 -2.578125 8.554688 -2.726562 9.078125 -3.03125 C 9.609375 -3.34375 10.03125 -3.757812 10.34375 -4.28125 C 10.664062 -4.800781 10.828125 -5.367188 10.828125 -5.984375 C 10.828125 -6.617188 10.664062 -7.191406 10.34375 -7.703125 C 10.03125 -8.222656 9.609375 -8.640625 9.078125 -8.953125 C 8.554688 -9.265625 7.960938 -9.421875 7.296875 -9.421875 C 6.660156 -9.421875 6.070312 -9.265625 5.53125 -8.953125 C 5 -8.640625 4.570312 -8.222656 4.25 -7.703125 C 3.9375 -7.191406 3.78125 -6.617188 3.78125 -5.984375 C 3.78125 -5.367188 3.9375 -4.800781 4.25 -4.28125 C 4.570312 -3.757812 5 -3.34375 5.53125 -3.03125 C 6.070312 -2.726562 6.660156 -2.578125 7.296875 -2.578125 Z M 7.296875 -2.578125 "/></g></g></g><g fill="#000000" fill-opacity="1"><g transform="translate(214.104083, 247.958962)"><g><path d="M 7.640625 -12.171875 C 9.378906 -12.171875 10.660156 -11.734375 11.484375 -10.859375 C 12.316406 -9.992188 12.734375 -8.597656 12.734375 -6.671875 L 12.734375 0 L 9.6875 0 L 9.6875 -6.671875 C 9.6875 -8.503906 8.816406 -9.421875 7.078125 -9.421875 C 6.535156 -9.421875 6.046875 -9.332031 5.609375 -9.15625 C 5.171875 -8.988281 4.78125 -8.757812 4.4375 -8.46875 L 4.4375 0 L 1.390625 0 L 1.390625 -11.953125 L 4.4375 -11.953125 L 4.4375 -11.203125 C 4.882812 -11.503906 5.378906 -11.738281 5.921875 -11.90625 C 6.460938 -12.082031 7.035156 -12.171875 7.640625 -12.171875 Z M 7.640625 -12.171875 "/></g></g></g><g fill="#000000" fill-opacity="1"><g transform="translate(228.093592, 247.958962)"><g><path d="M 0.71875 -0.96875 L 1.875 -3.234375 C 2.601562 -2.910156 3.28125 -2.664062 3.90625 -2.5 C 4.53125 -2.34375 5.21875 -2.265625 5.96875 -2.265625 C 6.664062 -2.265625 7.164062 -2.378906 7.46875 -2.609375 C 7.769531 -2.835938 7.921875 -3.101562 7.921875 -3.40625 C 7.921875 -3.75 7.726562 -4.019531 7.34375 -4.21875 C 6.96875 -4.414062 6.316406 -4.609375 5.390625 -4.796875 C 4.535156 -4.984375 3.769531 -5.21875 3.09375 -5.5 C 2.425781 -5.789062 1.898438 -6.175781 1.515625 -6.65625 C 1.140625 -7.132812 0.953125 -7.753906 0.953125 -8.515625 C 0.953125 -9.597656 1.363281 -10.476562 2.1875 -11.15625 C 3.019531 -11.832031 4.125 -12.171875 5.5 -12.171875 C 6.4375 -12.171875 7.285156 -12.070312 8.046875 -11.875 C 8.816406 -11.6875 9.519531 -11.460938 10.15625 -11.203125 L 9.15625 -8.953125 C 8.5625 -9.171875 7.941406 -9.351562 7.296875 -9.5 C 6.660156 -9.644531 6.039062 -9.71875 5.4375 -9.71875 C 4.84375 -9.71875 4.398438 -9.625 4.109375 -9.4375 C 3.816406 -9.25 3.671875 -8.992188 3.671875 -8.671875 C 3.671875 -8.347656 3.875 -8.085938 4.28125 -7.890625 C 4.6875 -7.703125 5.363281 -7.503906 6.3125 -7.296875 C 7.707031 -7.023438 8.785156 -6.609375 9.546875 -6.046875 C 10.304688 -5.492188 10.6875 -4.675781 10.6875 -3.59375 C 10.6875 -2.457031 10.269531 -1.546875 9.4375 -0.859375 C 8.601562 -0.171875 7.421875 0.171875 5.890625 0.171875 C 4.867188 0.171875 3.972656 0.0859375 3.203125 -0.078125 C 2.429688 -0.242188 1.601562 -0.539062 0.71875 -0.96875 Z M 0.71875 -0.96875 "/></g></g></g><g fill="#000000" fill-opacity="1"><g transform="translate(136.213945, 191.44527)"><g/></g></g><g fill="#000000" fill-opacity="1"><g transform="translate(144.265236, 191.44527)"><g><path d="M 6.953125 -6.4375 L 4.46875 -6.4375 L 4.46875 0 L 2.875 0 L 2.875 -6.4375 L 0.390625 -6.4375 L 0.390625 -7.8125 L 6.953125 -7.8125 Z M 6.953125 -6.4375 "/></g></g></g><g fill="#000000" fill-opacity="1"><g transform="translate(158.29421, 191.44527)"><g><path d="M 6.796875 -1.375 L 6.796875 0 L 0.8125 0 L 0.8125 -7.8125 L 6.5625 -7.8125 L 6.5625 -6.4375 L 2.34375 -6.4375 L 2.34375 -4.453125 L 5.875 -4.453125 L 5.875 -3.125 L 2.34375 -3.125 L 2.34375 -1.375 Z M 6.796875 -1.375 "/></g></g></g><g fill="#000000" fill-opacity="1"><g transform="translate(172.278866, 191.44527)"><g><path d="M 4.625 -1.40625 C 5.03125 -1.40625 5.40625 -1.492188 5.75 -1.671875 C 6.101562 -1.859375 6.390625 -2.113281 6.609375 -2.4375 L 7.84375 -1.390625 C 7.457031 -0.941406 6.988281 -0.582031 6.4375 -0.3125 C 5.882812 -0.0390625 5.28125 0.09375 4.625 0.09375 C 4.050781 0.09375 3.515625 -0.0078125 3.015625 -0.21875 C 2.515625 -0.425781 2.078125 -0.710938 1.703125 -1.078125 C 1.328125 -1.441406 1.03125 -1.863281 0.8125 -2.34375 C 0.601562 -2.820312 0.5 -3.34375 0.5 -3.90625 C 0.5 -4.457031 0.601562 -4.972656 0.8125 -5.453125 C 1.03125 -5.929688 1.328125 -6.351562 1.703125 -6.71875 C 2.078125 -7.09375 2.515625 -7.382812 3.015625 -7.59375 C 3.515625 -7.800781 4.050781 -7.90625 4.625 -7.90625 C 5.28125 -7.90625 5.882812 -7.769531 6.4375 -7.5 C 6.988281 -7.226562 7.457031 -6.863281 7.84375 -6.40625 L 6.609375 -5.359375 C 6.390625 -5.679688 6.101562 -5.929688 5.75 -6.109375 C 5.40625 -6.296875 5.03125 -6.390625 4.625 -6.390625 C 4.164062 -6.390625 3.75 -6.285156 3.375 -6.078125 C 3 -5.867188 2.695312 -5.578125 2.46875 -5.203125 C 2.25 -4.835938 2.140625 -4.40625 2.140625 -3.90625 C 2.140625 -3.414062 2.25 -2.976562 2.46875 -2.59375 C 2.695312 -2.21875 3 -1.925781 3.375 -1.71875 C 3.75 -1.507812 4.164062 -1.40625 4.625 -1.40625 Z M 4.625 -1.40625 "/></g></g></g><g fill="#000000" fill-opacity="1"><g transform="translate(187.216512, 191.44527)"><g><path d="M 7.5 -7.8125 L 7.5 0 L 5.953125 0 L 5.953125 -2.640625 L 2.34375 -2.640625 L 2.34375 0 L 0.8125 0 L 0.8125 -7.8125 L 2.34375 -7.8125 L 2.34375 -4.015625 L 5.953125 -4.015625 L 5.953125 -7.8125 Z M 7.5 -7.8125 "/></g></g></g></svg>