<svg xmlns="http://www.w3.org/2000/svg" xmlns:xlink="http://www.w3.org/1999/xlink" width="500" zoomAndPan="magnify" viewBox="0 0 375 374.999991" height="500" preserveAspectRatio="xMidYMid meet" version="1.0"><defs><g/><clipPath id="7b27789a60"><path d="M 90.304688 82.242188 L 135 82.242188 L 135 157.242188 L 90.304688 157.242188 Z M 90.304688 82.242188 " clip-rule="nonzero"/></clipPath><clipPath id="e337ca4191"><path d="M 108 91 L 156.304688 91 L 156.304688 139 L 108 139 Z M 108 91 " clip-rule="nonzero"/></clipPath></defs><g fill="#000000" fill-opacity="1"><g transform="translate(-1.391145, 222.489867)"><g><path d="M 45.265625 -15.421875 C 47.859375 -15.421875 50.378906 -15.8125 52.828125 -16.59375 C 55.285156 -17.382812 57.085938 -18.140625 58.234375 -18.859375 L 59.953125 -20.046875 L 67.203125 -5.53125 C 66.960938 -5.351562 66.628906 -5.113281 66.203125 -4.8125 C 65.785156 -4.507812 64.804688 -3.945312 63.265625 -3.125 C 61.722656 -2.3125 60.070312 -1.601562 58.3125 -1 C 56.5625 -0.394531 54.265625 0.144531 51.421875 0.625 C 48.585938 1.113281 45.65625 1.359375 42.625 1.359375 C 35.675781 1.359375 29.085938 -0.347656 22.859375 -3.765625 C 16.628906 -7.179688 11.609375 -11.878906 7.796875 -17.859375 C 3.992188 -23.847656 2.09375 -30.320312 2.09375 -37.28125 C 2.09375 -42.539062 3.207031 -47.585938 5.4375 -52.421875 C 7.675781 -57.265625 10.65625 -61.40625 14.375 -64.84375 C 18.09375 -68.289062 22.429688 -71.039062 27.390625 -73.09375 C 32.347656 -75.15625 37.425781 -76.1875 42.625 -76.1875 C 47.46875 -76.1875 51.925781 -75.613281 56 -74.46875 C 60.082031 -73.320312 62.972656 -72.171875 64.671875 -71.015625 L 67.203125 -69.296875 L 59.953125 -54.78125 C 59.523438 -55.144531 58.890625 -55.582031 58.046875 -56.09375 C 57.203125 -56.613281 55.507812 -57.296875 52.96875 -58.140625 C 50.425781 -58.984375 47.859375 -59.40625 45.265625 -59.40625 C 41.148438 -59.40625 37.457031 -58.738281 34.1875 -57.40625 C 30.925781 -56.082031 28.34375 -54.332031 26.4375 -52.15625 C 24.53125 -49.976562 23.078125 -47.632812 22.078125 -45.125 C 21.085938 -42.613281 20.59375 -40.054688 20.59375 -37.453125 C 20.59375 -31.773438 22.722656 -26.679688 26.984375 -22.171875 C 31.242188 -17.671875 37.335938 -15.421875 45.265625 -15.421875 Z M 45.265625 -15.421875 "/></g></g></g><g fill="#000000" fill-opacity="1"><g transform="translate(58.369072, 222.489867)"><g><path d="M 9.84375 -5.53125 C 4.675781 -10.125 2.09375 -16.019531 2.09375 -23.21875 C 2.09375 -30.414062 4.78125 -36.328125 10.15625 -40.953125 C 15.539062 -45.578125 22.191406 -47.890625 30.109375 -47.890625 C 37.910156 -47.890625 44.488281 -45.5625 49.84375 -40.90625 C 55.195312 -36.25 57.875 -30.351562 57.875 -23.21875 C 57.875 -16.082031 55.253906 -10.203125 50.015625 -5.578125 C 44.785156 -0.953125 38.148438 1.359375 30.109375 1.359375 C 21.765625 1.359375 15.007812 -0.9375 9.84375 -5.53125 Z M 22.265625 -31.109375 C 20.179688 -29.054688 19.140625 -26.425781 19.140625 -23.21875 C 19.140625 -20.007812 20.132812 -17.390625 22.125 -15.359375 C 24.125 -13.335938 26.753906 -12.328125 30.015625 -12.328125 C 33.160156 -12.328125 35.742188 -13.351562 37.765625 -15.40625 C 39.796875 -17.46875 40.8125 -20.070312 40.8125 -23.21875 C 40.8125 -26.425781 39.769531 -29.054688 37.6875 -31.109375 C 35.601562 -33.160156 33.046875 -34.1875 30.015625 -34.1875 C 26.929688 -34.1875 24.347656 -33.160156 22.265625 -31.109375 Z M 22.265625 -31.109375 "/></g></g></g><g fill="#000000" fill-opacity="1"><g transform="translate(109.78609, 222.489867)"><g><path d="M 5.4375 0 L 5.4375 -46.53125 L 21.5 -46.53125 L 21.5 -41.625 L 21.671875 -41.625 C 25.847656 -45.800781 30.296875 -47.890625 35.015625 -47.890625 C 38.398438 -47.890625 41.570312 -47.191406 44.53125 -45.796875 C 47.5 -44.410156 49.738281 -42.265625 51.25 -39.359375 C 55.96875 -45.046875 61.109375 -47.890625 66.671875 -47.890625 C 71.628906 -47.890625 75.890625 -46.5 79.453125 -43.71875 C 83.023438 -40.9375 84.8125 -36.582031 84.8125 -30.65625 L 84.8125 0 L 68.75 0 L 68.75 -26.296875 C 68.75 -28.773438 68.066406 -30.847656 66.703125 -32.515625 C 65.347656 -34.179688 63.3125 -35.015625 60.59375 -35.015625 C 58.226562 -35.015625 56.425781 -34.300781 55.1875 -32.875 C 53.945312 -31.457031 53.269531 -29.75 53.15625 -27.75 L 53.15625 0 L 37.09375 0 L 37.09375 -26.296875 C 37.09375 -28.773438 36.410156 -30.847656 35.046875 -32.515625 C 33.691406 -34.179688 31.65625 -35.015625 28.9375 -35.015625 C 26.457031 -35.015625 24.597656 -34.242188 23.359375 -32.703125 C 22.117188 -31.160156 21.5 -29.328125 21.5 -27.203125 L 21.5 0 Z M 5.4375 0 "/></g></g></g><g fill="#000000" fill-opacity="1"><g transform="translate(190.585683, 222.489867)"><g><path d="M 8.15625 -46.53125 L 8.15625 -56.421875 C 8.21875 -63.367188 9.851562 -68.925781 13.0625 -73.09375 C 16.269531 -77.269531 20.710938 -79.359375 26.390625 -79.359375 C 28.804688 -79.359375 31.117188 -79.007812 33.328125 -78.3125 C 35.535156 -77.625 37.125 -76.914062 38.09375 -76.1875 L 39.640625 -75.1875 L 34.015625 -63.859375 C 32.566406 -64.703125 30.960938 -65.125 29.203125 -65.125 C 27.210938 -65.125 25.882812 -64.441406 25.21875 -63.078125 C 24.550781 -61.722656 24.21875 -59.351562 24.21875 -55.96875 L 24.21875 -46.53125 L 34.921875 -46.53125 L 34.921875 -34.28125 L 24.21875 -34.28125 L 24.21875 0 L 8.15625 0 L 8.15625 -34.28125 L 1.453125 -34.28125 L 1.453125 -46.53125 Z M 8.15625 -46.53125 "/></g></g></g><g fill="#000000" fill-opacity="1"><g transform="translate(216.066235, 222.489867)"><g><path d="M 9.84375 -5.53125 C 4.675781 -10.125 2.09375 -16.019531 2.09375 -23.21875 C 2.09375 -30.414062 4.78125 -36.328125 10.15625 -40.953125 C 15.539062 -45.578125 22.191406 -47.890625 30.109375 -47.890625 C 37.910156 -47.890625 44.488281 -45.5625 49.84375 -40.90625 C 55.195312 -36.25 57.875 -30.351562 57.875 -23.21875 C 57.875 -16.082031 55.253906 -10.203125 50.015625 -5.578125 C 44.785156 -0.953125 38.148438 1.359375 30.109375 1.359375 C 21.765625 1.359375 15.007812 -0.9375 9.84375 -5.53125 Z M 22.265625 -31.109375 C 20.179688 -29.054688 19.140625 -26.425781 19.140625 -23.21875 C 19.140625 -20.007812 20.132812 -17.390625 22.125 -15.359375 C 24.125 -13.335938 26.753906 -12.328125 30.015625 -12.328125 C 33.160156 -12.328125 35.742188 -13.351562 37.765625 -15.40625 C 39.796875 -17.46875 40.8125 -20.070312 40.8125 -23.21875 C 40.8125 -26.425781 39.769531 -29.054688 37.6875 -31.109375 C 35.601562 -33.160156 33.046875 -34.1875 30.015625 -34.1875 C 26.929688 -34.1875 24.347656 -33.160156 22.265625 -31.109375 Z M 22.265625 -31.109375 "/></g></g></g><g fill="#000000" fill-opacity="1"><g transform="translate(267.483263, 222.489867)"><g><path d="M 5.4375 0 L 5.4375 -46.53125 L 21.5 -46.53125 L 21.5 -39.8125 L 21.671875 -39.8125 C 21.796875 -40.0625 21.992188 -40.363281 22.265625 -40.71875 C 22.535156 -41.082031 23.125 -41.71875 24.03125 -42.625 C 24.9375 -43.53125 25.90625 -44.347656 26.9375 -45.078125 C 27.96875 -45.804688 29.296875 -46.457031 30.921875 -47.03125 C 32.554688 -47.601562 34.222656 -47.890625 35.921875 -47.890625 C 37.671875 -47.890625 39.390625 -47.644531 41.078125 -47.15625 C 42.773438 -46.675781 44.019531 -46.195312 44.8125 -45.71875 L 46.078125 -44.984375 L 39.359375 -31.390625 C 37.367188 -33.078125 34.585938 -33.921875 31.015625 -33.921875 C 29.085938 -33.921875 27.425781 -33.5 26.03125 -32.65625 C 24.644531 -31.8125 23.660156 -30.78125 23.078125 -29.5625 C 22.503906 -28.351562 22.097656 -27.328125 21.859375 -26.484375 C 21.617188 -25.640625 21.5 -24.972656 21.5 -24.484375 L 21.5 0 Z M 5.4375 0 "/></g></g></g><g fill="#000000" fill-opacity="1"><g transform="translate(304.118298, 222.489867)"><g><path d="M 8.15625 -46.53125 L 8.15625 -63.859375 L 24.21875 -63.859375 L 24.21875 -46.53125 L 34.015625 -46.53125 L 34.015625 -34.28125 L 24.21875 -34.28125 L 24.21875 -19.5 C 24.21875 -15.207031 25.425781 -13.0625 27.84375 -13.0625 C 28.445312 -13.0625 29.082031 -13.179688 29.75 -13.421875 C 30.414062 -13.660156 30.929688 -13.90625 31.296875 -14.15625 L 31.84375 -14.515625 L 35.828125 -1.546875 C 32.378906 0.390625 28.445312 1.359375 24.03125 1.359375 C 21.007812 1.359375 18.410156 0.832031 16.234375 -0.21875 C 14.054688 -1.28125 12.40625 -2.703125 11.28125 -4.484375 C 10.164062 -6.273438 9.363281 -8.148438 8.875 -10.109375 C 8.394531 -12.078125 8.15625 -14.179688 8.15625 -16.421875 L 8.15625 -34.28125 L 1.453125 -34.28125 L 1.453125 -46.53125 Z M 8.15625 -46.53125 "/></g></g></g><g fill="#000000" fill-opacity="1"><g transform="translate(331.412567, 222.489867)"><g/></g></g><g fill="#000000" fill-opacity="1"><g transform="translate(347.643043, 222.489867)"><g><path d="M 15.78125 -19.40625 C 18.6875 -19.40625 21.148438 -18.390625 23.171875 -16.359375 C 25.203125 -14.335938 26.21875 -11.878906 26.21875 -8.984375 C 26.21875 -6.140625 25.203125 -3.703125 23.171875 -1.671875 C 21.148438 0.347656 18.6875 1.359375 15.78125 1.359375 C 12.9375 1.359375 10.5 0.347656 8.46875 -1.671875 C 6.445312 -3.703125 5.4375 -6.140625 5.4375 -8.984375 C 5.4375 -11.878906 6.445312 -14.335938 8.46875 -16.359375 C 10.5 -18.390625 12.9375 -19.40625 15.78125 -19.40625 Z M 15.78125 -19.40625 "/></g></g></g><g fill="#000000" fill-opacity="1"><g transform="translate(83.96179, 247.067561)"><g><path d="M 6.09375 -9.734375 C 6.925781 -9.734375 7.675781 -9.519531 8.34375 -9.09375 C 9.007812 -8.675781 9.535156 -8.085938 9.921875 -7.328125 C 10.304688 -6.578125 10.5 -5.726562 10.5 -4.78125 C 10.5 -3.832031 10.304688 -2.984375 9.921875 -2.234375 C 9.535156 -1.484375 9.007812 -0.894531 8.34375 -0.46875 C 7.675781 -0.0390625 6.9375 0.171875 6.125 0.171875 C 5.5 0.171875 4.910156 0.03125 4.359375 -0.25 C 3.816406 -0.53125 3.375 -0.875 3.03125 -1.28125 L 3.03125 2.78125 C 3.03125 3.019531 2.945312 3.222656 2.78125 3.390625 C 2.613281 3.566406 2.40625 3.65625 2.15625 3.65625 C 1.90625 3.65625 1.695312 3.570312 1.53125 3.40625 C 1.375 3.238281 1.296875 3.03125 1.296875 2.78125 L 1.296875 -8.703125 C 1.296875 -8.960938 1.375 -9.175781 1.53125 -9.34375 C 1.6875 -9.507812 1.894531 -9.59375 2.15625 -9.59375 C 2.40625 -9.59375 2.613281 -9.507812 2.78125 -9.34375 C 2.945312 -9.175781 3.03125 -8.960938 3.03125 -8.703125 L 3.03125 -8.171875 C 3.320312 -8.597656 3.742188 -8.960938 4.296875 -9.265625 C 4.859375 -9.578125 5.457031 -9.734375 6.09375 -9.734375 Z M 5.890625 -1.4375 C 6.453125 -1.4375 6.957031 -1.582031 7.40625 -1.875 C 7.851562 -2.164062 8.203125 -2.5625 8.453125 -3.0625 C 8.703125 -3.570312 8.828125 -4.144531 8.828125 -4.78125 C 8.828125 -5.414062 8.703125 -5.984375 8.453125 -6.484375 C 8.203125 -6.992188 7.851562 -7.394531 7.40625 -7.6875 C 6.957031 -7.976562 6.453125 -8.125 5.890625 -8.125 C 5.316406 -8.125 4.804688 -7.976562 4.359375 -7.6875 C 3.910156 -7.40625 3.5625 -7.007812 3.3125 -6.5 C 3.0625 -5.988281 2.9375 -5.414062 2.9375 -4.78125 C 2.9375 -4.144531 3.0625 -3.570312 3.3125 -3.0625 C 3.5625 -2.550781 3.910156 -2.148438 4.359375 -1.859375 C 4.804688 -1.578125 5.316406 -1.4375 5.890625 -1.4375 Z M 5.890625 -1.4375 "/></g></g></g><g fill="#000000" fill-opacity="1"><g transform="translate(107.067634, 247.067561)"><g><path d="M 9.046875 -9.6875 C 9.304688 -9.6875 9.515625 -9.601562 9.671875 -9.4375 C 9.835938 -9.28125 9.921875 -9.066406 9.921875 -8.796875 L 9.921875 -0.875 C 9.921875 -0.632812 9.835938 -0.425781 9.671875 -0.25 C 9.515625 -0.0820312 9.304688 0 9.046875 0 C 8.796875 0 8.585938 -0.0820312 8.421875 -0.25 C 8.265625 -0.414062 8.1875 -0.625 8.1875 -0.875 L 8.1875 -1.34375 C 7.875 -0.925781 7.441406 -0.566406 6.890625 -0.265625 C 6.347656 0.0351562 5.757812 0.1875 5.125 0.1875 C 4.300781 0.1875 3.550781 -0.0234375 2.875 -0.453125 C 2.195312 -0.878906 1.664062 -1.472656 1.28125 -2.234375 C 0.90625 -2.992188 0.71875 -3.847656 0.71875 -4.796875 C 0.71875 -5.742188 0.90625 -6.597656 1.28125 -7.359375 C 1.664062 -8.117188 2.191406 -8.710938 2.859375 -9.140625 C 3.535156 -9.566406 4.273438 -9.78125 5.078125 -9.78125 C 5.722656 -9.78125 6.320312 -9.644531 6.875 -9.375 C 7.425781 -9.113281 7.863281 -8.773438 8.1875 -8.359375 L 8.1875 -8.796875 C 8.1875 -9.054688 8.265625 -9.269531 8.421875 -9.4375 C 8.585938 -9.601562 8.796875 -9.6875 9.046875 -9.6875 Z M 5.328125 -1.421875 C 5.898438 -1.421875 6.40625 -1.566406 6.84375 -1.859375 C 7.289062 -2.148438 7.640625 -2.550781 7.890625 -3.0625 C 8.140625 -3.570312 8.265625 -4.148438 8.265625 -4.796875 C 8.265625 -5.429688 8.140625 -6.003906 7.890625 -6.515625 C 7.640625 -7.023438 7.289062 -7.425781 6.84375 -7.71875 C 6.40625 -8.019531 5.898438 -8.171875 5.328125 -8.171875 C 4.753906 -8.171875 4.242188 -8.023438 3.796875 -7.734375 C 3.359375 -7.441406 3.015625 -7.039062 2.765625 -6.53125 C 2.515625 -6.019531 2.390625 -5.441406 2.390625 -4.796875 C 2.390625 -4.148438 2.515625 -3.570312 2.765625 -3.0625 C 3.015625 -2.550781 3.359375 -2.148438 3.796875 -1.859375 C 4.242188 -1.566406 4.753906 -1.421875 5.328125 -1.421875 Z M 5.328125 -1.421875 "/></g></g></g><g fill="#000000" fill-opacity="1"><g transform="translate(130.173478, 247.067561)"><g><path d="M 6.171875 -9.78125 C 8.359375 -9.78125 9.453125 -8.46875 9.453125 -5.84375 L 9.453125 -0.875 C 9.453125 -0.632812 9.367188 -0.425781 9.203125 -0.25 C 9.035156 -0.0820312 8.828125 0 8.578125 0 C 8.335938 0 8.132812 -0.0820312 7.96875 -0.25 C 7.800781 -0.425781 7.71875 -0.632812 7.71875 -0.875 L 7.71875 -5.828125 C 7.71875 -6.546875 7.550781 -7.113281 7.21875 -7.53125 C 6.894531 -7.957031 6.363281 -8.171875 5.625 -8.171875 C 5.132812 -8.171875 4.691406 -8.0625 4.296875 -7.84375 C 3.898438 -7.632812 3.585938 -7.347656 3.359375 -6.984375 C 3.140625 -6.628906 3.03125 -6.242188 3.03125 -5.828125 L 3.03125 -0.875 C 3.03125 -0.632812 2.945312 -0.425781 2.78125 -0.25 C 2.613281 -0.0820312 2.40625 0 2.15625 0 C 1.894531 0 1.6875 -0.0820312 1.53125 -0.25 C 1.375 -0.414062 1.296875 -0.625 1.296875 -0.875 L 1.296875 -8.6875 C 1.296875 -8.925781 1.375 -9.128906 1.53125 -9.296875 C 1.695312 -9.472656 1.90625 -9.5625 2.15625 -9.5625 C 2.40625 -9.5625 2.613281 -9.472656 2.78125 -9.296875 C 2.945312 -9.128906 3.03125 -8.925781 3.03125 -8.6875 L 3.03125 -8.046875 C 3.34375 -8.535156 3.78125 -8.945312 4.34375 -9.28125 C 4.914062 -9.613281 5.523438 -9.78125 6.171875 -9.78125 Z M 6.171875 -9.78125 "/></g></g></g><g fill="#000000" fill-opacity="1"><g transform="translate(152.823177, 247.067561)"><g><path d="M 3.890625 -7.859375 L 3.890625 -2.421875 C 3.890625 -1.816406 4.160156 -1.515625 4.703125 -1.515625 C 4.796875 -1.515625 4.914062 -1.535156 5.0625 -1.578125 C 5.207031 -1.617188 5.320312 -1.640625 5.40625 -1.640625 C 5.5625 -1.640625 5.691406 -1.570312 5.796875 -1.4375 C 5.910156 -1.300781 5.96875 -1.132812 5.96875 -0.9375 C 5.96875 -0.675781 5.820312 -0.453125 5.53125 -0.265625 C 5.238281 -0.0859375 4.910156 0 4.546875 0 C 4.140625 0 3.769531 -0.0390625 3.4375 -0.125 C 3.101562 -0.207031 2.804688 -0.421875 2.546875 -0.765625 C 2.285156 -1.117188 2.15625 -1.648438 2.15625 -2.359375 L 2.15625 -7.859375 L 1.09375 -7.859375 C 0.863281 -7.859375 0.671875 -7.9375 0.515625 -8.09375 C 0.367188 -8.25 0.296875 -8.441406 0.296875 -8.671875 C 0.296875 -8.898438 0.367188 -9.085938 0.515625 -9.234375 C 0.671875 -9.378906 0.863281 -9.453125 1.09375 -9.453125 L 2.15625 -9.453125 L 2.15625 -10.984375 C 2.15625 -11.222656 2.234375 -11.425781 2.390625 -11.59375 C 2.554688 -11.769531 2.769531 -11.859375 3.03125 -11.859375 C 3.269531 -11.859375 3.472656 -11.769531 3.640625 -11.59375 C 3.804688 -11.425781 3.890625 -11.222656 3.890625 -10.984375 L 3.890625 -9.453125 L 5.40625 -9.453125 C 5.632812 -9.453125 5.820312 -9.375 5.96875 -9.21875 C 6.125 -9.070312 6.203125 -8.882812 6.203125 -8.65625 C 6.203125 -8.414062 6.125 -8.222656 5.96875 -8.078125 C 5.820312 -7.929688 5.632812 -7.859375 5.40625 -7.859375 Z M 3.890625 -7.859375 "/></g></g></g><g fill="#000000" fill-opacity="1"><g transform="translate(171.659627, 247.067561)"><g><path d="M 6.0625 -9.78125 C 6.375 -9.78125 6.644531 -9.695312 6.875 -9.53125 C 7.113281 -9.375 7.234375 -9.171875 7.234375 -8.921875 C 7.234375 -8.628906 7.15625 -8.40625 7 -8.25 C 6.84375 -8.101562 6.65625 -8.03125 6.4375 -8.03125 C 6.332031 -8.03125 6.171875 -8.066406 5.953125 -8.140625 C 5.691406 -8.222656 5.488281 -8.265625 5.34375 -8.265625 C 4.96875 -8.265625 4.597656 -8.132812 4.234375 -7.875 C 3.878906 -7.613281 3.585938 -7.253906 3.359375 -6.796875 C 3.140625 -6.335938 3.03125 -5.832031 3.03125 -5.28125 L 3.03125 -0.875 C 3.03125 -0.632812 2.945312 -0.425781 2.78125 -0.25 C 2.613281 -0.0820312 2.40625 0 2.15625 0 C 1.894531 0 1.6875 -0.0820312 1.53125 -0.25 C 1.375 -0.414062 1.296875 -0.625 1.296875 -0.875 L 1.296875 -8.6875 C 1.296875 -8.925781 1.375 -9.128906 1.53125 -9.296875 C 1.695312 -9.472656 1.90625 -9.5625 2.15625 -9.5625 C 2.40625 -9.5625 2.613281 -9.472656 2.78125 -9.296875 C 2.945312 -9.128906 3.03125 -8.925781 3.03125 -8.6875 L 3.03125 -7.75 C 3.300781 -8.351562 3.703125 -8.835938 4.234375 -9.203125 C 4.765625 -9.578125 5.375 -9.769531 6.0625 -9.78125 Z M 6.0625 -9.78125 "/></g></g></g><g fill="#000000" fill-opacity="1"><g transform="translate(191.098169, 247.067561)"><g><path d="M 8.40625 -9.65625 C 8.664062 -9.65625 8.878906 -9.566406 9.046875 -9.390625 C 9.210938 -9.222656 9.296875 -9.019531 9.296875 -8.78125 L 9.296875 -0.890625 C 9.296875 0.628906 8.875 1.765625 8.03125 2.515625 C 7.1875 3.273438 6.078125 3.65625 4.703125 3.65625 C 4.253906 3.65625 3.8125 3.609375 3.375 3.515625 C 2.9375 3.429688 2.578125 3.316406 2.296875 3.171875 C 1.847656 2.960938 1.625 2.6875 1.625 2.34375 C 1.625 2.28125 1.632812 2.195312 1.65625 2.09375 C 1.726562 1.882812 1.832031 1.722656 1.96875 1.609375 C 2.101562 1.503906 2.253906 1.453125 2.421875 1.453125 C 2.523438 1.453125 2.617188 1.472656 2.703125 1.515625 C 3.078125 1.679688 3.410156 1.8125 3.703125 1.90625 C 3.992188 2.007812 4.335938 2.0625 4.734375 2.0625 C 6.617188 2.0625 7.5625 1.09375 7.5625 -0.84375 L 7.5625 -1.203125 C 7.226562 -0.765625 6.800781 -0.421875 6.28125 -0.171875 C 5.769531 0.0664062 5.175781 0.1875 4.5 0.1875 C 3.5 0.1875 2.710938 -0.132812 2.140625 -0.78125 C 1.578125 -1.425781 1.296875 -2.273438 1.296875 -3.328125 L 1.296875 -8.78125 C 1.296875 -9.03125 1.375 -9.238281 1.53125 -9.40625 C 1.6875 -9.570312 1.894531 -9.65625 2.15625 -9.65625 C 2.40625 -9.65625 2.613281 -9.566406 2.78125 -9.390625 C 2.945312 -9.222656 3.03125 -9.019531 3.03125 -8.78125 L 3.03125 -3.78125 C 3.03125 -2.976562 3.207031 -2.382812 3.5625 -2 C 3.914062 -1.613281 4.453125 -1.421875 5.171875 -1.421875 C 5.859375 -1.421875 6.425781 -1.640625 6.875 -2.078125 C 7.332031 -2.515625 7.5625 -3.082031 7.5625 -3.78125 L 7.5625 -8.78125 C 7.5625 -9.03125 7.640625 -9.238281 7.796875 -9.40625 C 7.953125 -9.570312 8.15625 -9.65625 8.40625 -9.65625 Z M 8.40625 -9.65625 "/></g></g></g><g fill="#000000" fill-opacity="1"><g transform="translate(213.565414, 247.067561)"><g/></g></g><g fill="#000000" fill-opacity="1"><g transform="translate(230.522594, 247.067561)"><g><path d="M 11.328125 -1.125 C 11.367188 -1.019531 11.390625 -0.90625 11.390625 -0.78125 C 11.390625 -0.539062 11.304688 -0.335938 11.140625 -0.171875 C 10.972656 -0.015625 10.78125 0.0625 10.5625 0.0625 C 10.394531 0.0625 10.238281 0.0078125 10.09375 -0.09375 C 9.957031 -0.195312 9.847656 -0.34375 9.765625 -0.53125 L 8.625 -3.21875 L 3 -3.21875 L 1.875 -0.515625 C 1.8125 -0.328125 1.710938 -0.179688 1.578125 -0.078125 C 1.441406 0.015625 1.285156 0.0625 1.109375 0.0625 C 0.859375 0.0625 0.664062 -0.00390625 0.53125 -0.140625 C 0.394531 -0.273438 0.328125 -0.457031 0.328125 -0.6875 C 0.328125 -0.738281 0.335938 -0.835938 0.359375 -0.984375 L 5.015625 -12.265625 C 5.097656 -12.460938 5.21875 -12.609375 5.375 -12.703125 C 5.53125 -12.804688 5.703125 -12.847656 5.890625 -12.828125 C 6.078125 -12.828125 6.242188 -12.773438 6.390625 -12.671875 C 6.535156 -12.578125 6.640625 -12.441406 6.703125 -12.265625 Z M 3.6875 -4.875 L 7.9375 -4.875 L 5.796875 -9.984375 Z M 3.6875 -4.875 "/></g></g></g><g fill="#000000" fill-opacity="1"><g transform="translate(254.139293, 247.067561)"><g><path d="M 3.328125 -0.890625 C 3.328125 -0.640625 3.234375 -0.425781 3.046875 -0.25 C 2.867188 -0.0820312 2.65625 0 2.40625 0 C 2.132812 0 1.914062 -0.0820312 1.75 -0.25 C 1.59375 -0.425781 1.515625 -0.640625 1.515625 -0.890625 L 1.515625 -11.90625 C 1.515625 -12.144531 1.597656 -12.347656 1.765625 -12.515625 C 1.941406 -12.691406 2.160156 -12.78125 2.421875 -12.78125 C 2.671875 -12.78125 2.882812 -12.691406 3.0625 -12.515625 C 3.238281 -12.347656 3.328125 -12.144531 3.328125 -11.90625 Z M 3.328125 -0.890625 "/></g></g></g><path fill="#1b1918" d="M 119.878906 151.53125 L 105.023438 151.53125 C 104.601562 151.53125 104.261719 151.1875 104.261719 150.765625 C 104.261719 150.34375 104.601562 150 105.023438 150 L 119.878906 150 C 120.300781 150 120.640625 150.34375 120.640625 150.765625 C 120.640625 151.1875 120.300781 151.53125 119.878906 151.53125 Z M 112.449219 88.554688 C 113.921875 88.554688 115.121094 89.753906 115.121094 91.226562 C 115.121094 92.703125 113.921875 93.902344 112.449219 93.902344 C 110.980469 93.902344 109.78125 92.703125 109.78125 91.226562 C 109.78125 89.753906 110.980469 88.554688 112.449219 88.554688 Z M 129.742188 139.328125 C 128.691406 139.175781 127.652344 138.957031 126.632812 138.671875 C 126.546875 138.648438 126.460938 138.625 126.375 138.601562 C 126.140625 138.53125 125.90625 138.457031 125.675781 138.382812 C 125.476562 138.316406 125.28125 138.253906 125.085938 138.183594 C 124.894531 138.117188 124.703125 138.046875 124.507812 137.972656 C 124.257812 137.878906 124.011719 137.777344 123.765625 137.675781 C 123.617188 137.613281 123.472656 137.554688 123.324219 137.488281 C 122.929688 137.3125 122.535156 137.128906 122.148438 136.933594 C 114.378906 140.867188 105.195312 138.160156 104.804688 138.039062 C 104.453125 137.933594 104.230469 137.597656 104.265625 137.234375 C 104.300781 136.871094 104.585938 136.582031 104.949219 136.546875 C 105.167969 136.523438 110.230469 135.925781 113.871094 130.082031 C 110.546875 125.792969 108.722656 120.46875 108.722656 115.027344 C 108.722656 114.617188 108.734375 114.207031 108.753906 113.800781 C 108.757812 113.664062 108.773438 113.53125 108.78125 113.394531 C 108.800781 113.125 108.816406 112.855469 108.84375 112.589844 C 108.859375 112.429688 108.882812 112.269531 108.902344 112.113281 C 108.929688 111.871094 108.957031 111.632812 108.992188 111.394531 C 109.015625 111.226562 109.046875 111.058594 109.078125 110.890625 C 109.113281 110.664062 109.152344 110.441406 109.195312 110.21875 C 109.230469 110.046875 109.269531 109.875 109.308594 109.703125 C 109.355469 109.488281 109.402344 109.273438 109.457031 109.0625 C 109.5 108.890625 109.546875 108.714844 109.597656 108.542969 C 109.652344 108.335938 109.707031 108.132812 109.769531 107.929688 C 109.820312 107.753906 109.878906 107.582031 109.933594 107.40625 C 110 107.210938 110.066406 107.015625 110.132812 106.820312 C 110.195312 106.644531 110.261719 106.472656 110.328125 106.300781 C 110.398438 106.109375 110.472656 105.921875 110.550781 105.734375 C 110.621094 105.558594 110.695312 105.386719 110.769531 105.214844 C 110.847656 105.035156 110.929688 104.851562 111.015625 104.675781 C 111.09375 104.503906 111.175781 104.332031 111.257812 104.160156 C 111.347656 103.984375 111.433594 103.8125 111.523438 103.640625 C 111.613281 103.472656 111.703125 103.300781 111.796875 103.132812 C 111.890625 102.96875 111.984375 102.804688 112.082031 102.640625 C 112.179688 102.472656 112.277344 102.300781 112.382812 102.136719 C 112.480469 101.980469 112.578125 101.824219 112.679688 101.671875 C 112.789062 101.503906 112.898438 101.335938 113.011719 101.167969 C 113.109375 101.023438 113.214844 100.882812 113.316406 100.738281 C 113.4375 100.570312 113.558594 100.402344 113.683594 100.234375 C 113.78125 100.105469 113.882812 99.976562 113.984375 99.847656 C 114.121094 99.675781 114.253906 99.503906 114.394531 99.332031 C 114.484375 99.230469 114.574219 99.128906 114.664062 99.023438 C 114.824219 98.835938 114.984375 98.648438 115.148438 98.46875 C 115.167969 98.449219 115.183594 98.429688 115.203125 98.414062 C 115.890625 97.660156 116.628906 96.957031 117.40625 96.292969 C 117.460938 96.25 117.515625 96.199219 117.570312 96.152344 C 117.78125 95.976562 118 95.804688 118.21875 95.636719 C 118.296875 95.574219 118.378906 95.507812 118.460938 95.445312 C 118.671875 95.285156 118.886719 95.132812 119.101562 94.980469 C 119.195312 94.914062 119.289062 94.84375 119.382812 94.777344 C 119.597656 94.632812 119.8125 94.492188 120.03125 94.351562 C 120.132812 94.285156 120.234375 94.21875 120.335938 94.15625 C 120.554688 94.019531 120.777344 93.886719 121 93.757812 C 121.105469 93.699219 121.210938 93.636719 121.316406 93.574219 C 121.542969 93.449219 121.769531 93.328125 122 93.210938 C 122.105469 93.152344 122.214844 93.097656 122.324219 93.042969 C 122.558594 92.925781 122.789062 92.816406 123.027344 92.707031 C 123.136719 92.65625 123.25 92.605469 123.359375 92.554688 C 123.597656 92.449219 123.839844 92.347656 124.082031 92.25 C 124.195312 92.203125 124.304688 92.160156 124.414062 92.117188 C 124.664062 92.019531 124.914062 91.929688 125.164062 91.839844 C 125.273438 91.800781 125.382812 91.765625 125.492188 91.726562 C 125.75 91.640625 126.007812 91.558594 126.269531 91.480469 C 126.375 91.449219 126.484375 91.417969 126.589844 91.390625 C 126.855469 91.3125 127.125 91.242188 127.398438 91.171875 C 127.496094 91.148438 127.597656 91.128906 127.695312 91.105469 C 127.976562 91.039062 128.261719 90.976562 128.546875 90.917969 C 128.632812 90.902344 128.71875 90.890625 128.804688 90.875 C 129.105469 90.816406 129.410156 90.765625 129.714844 90.71875 C 129.773438 90.710938 129.835938 90.707031 129.894531 90.699219 C 130.230469 90.652344 130.5625 90.609375 130.902344 90.578125 C 130.890625 90.410156 130.871094 90.246094 130.847656 90.085938 L 130.84375 90.082031 C 130.820312 89.921875 130.785156 89.765625 130.742188 89.609375 L 130.742188 89.59375 C 130.699219 89.445312 130.652344 89.296875 130.601562 89.152344 L 130.589844 89.128906 C 130.539062 88.988281 130.480469 88.851562 130.417969 88.714844 L 130.398438 88.675781 C 130.335938 88.546875 130.269531 88.421875 130.195312 88.300781 C 130.183594 88.28125 130.175781 88.265625 130.164062 88.246094 C 130.09375 88.132812 130.019531 88.019531 129.9375 87.90625 C 129.921875 87.886719 129.90625 87.863281 129.886719 87.839844 C 129.8125 87.738281 129.730469 87.636719 129.648438 87.539062 C 129.621094 87.515625 129.597656 87.488281 129.574219 87.460938 C 129.492188 87.371094 129.410156 87.285156 129.324219 87.203125 C 129.289062 87.171875 129.257812 87.140625 129.222656 87.109375 C 129.140625 87.035156 129.054688 86.960938 128.96875 86.890625 C 128.925781 86.859375 128.882812 86.828125 128.839844 86.792969 C 128.753906 86.730469 128.671875 86.667969 128.582031 86.613281 C 128.53125 86.578125 128.476562 86.546875 128.421875 86.515625 C 128.339844 86.464844 128.257812 86.414062 128.171875 86.367188 C 128.109375 86.335938 128.042969 86.304688 127.976562 86.277344 C 127.898438 86.238281 127.816406 86.195312 127.734375 86.164062 C 127.660156 86.132812 127.582031 86.105469 127.507812 86.078125 C 127.429688 86.050781 127.351562 86.023438 127.273438 85.996094 C 127.1875 85.972656 127.097656 85.949219 127.007812 85.929688 C 126.9375 85.910156 126.867188 85.890625 126.792969 85.875 C 126.6875 85.855469 126.578125 85.839844 126.46875 85.824219 C 126.410156 85.816406 126.355469 85.804688 126.292969 85.800781 C 126.125 85.78125 125.953125 85.773438 125.78125 85.773438 L 99.121094 85.773438 C 96.289062 85.773438 93.980469 88.082031 93.980469 90.921875 L 93.980469 148.566406 C 93.980469 151.402344 96.289062 153.714844 99.121094 153.714844 L 125.78125 153.714844 C 128.613281 153.714844 130.917969 151.402344 130.917969 148.566406 L 130.917969 139.472656 C 130.546875 139.433594 130.171875 139.390625 129.800781 139.339844 C 129.78125 139.335938 129.761719 139.332031 129.742188 139.328125 " fill-opacity="1" fill-rule="nonzero"/><g clip-path="url(#7b27789a60)"><path fill="#1b1918" d="M 133.359375 139.589844 C 133.324219 139.589844 133.285156 139.59375 133.25 139.59375 C 133.171875 139.59375 133.09375 139.585938 133.015625 139.585938 C 132.828125 139.585938 132.640625 139.585938 132.449219 139.578125 L 132.449219 148.566406 C 132.449219 152.25 129.457031 155.242188 125.78125 155.242188 L 99.121094 155.242188 C 95.445312 155.242188 92.453125 152.25 92.453125 148.566406 L 92.453125 90.921875 C 92.453125 87.238281 95.445312 84.242188 99.121094 84.242188 L 125.78125 84.242188 C 129.308594 84.242188 132.203125 87 132.433594 90.476562 C 132.699219 90.46875 132.949219 90.464844 133.195312 90.464844 C 133.210938 90.464844 133.230469 90.460938 133.25 90.460938 C 133.265625 90.460938 133.28125 90.464844 133.296875 90.464844 C 133.628906 90.464844 133.957031 90.472656 134.296875 90.488281 C 134.375 90.492188 134.449219 90.492188 134.527344 90.496094 L 134.527344 90.296875 C 134.527344 85.855469 130.917969 82.242188 126.484375 82.242188 L 98.414062 82.242188 C 93.984375 82.242188 90.375 85.855469 90.375 90.296875 L 90.375 149.191406 C 90.375 153.632812 93.984375 157.242188 98.414062 157.242188 L 126.484375 157.242188 C 130.917969 157.242188 134.527344 153.632812 134.527344 149.191406 L 134.527344 139.558594 C 134.351562 139.570312 134.179688 139.570312 134.003906 139.574219 C 133.789062 139.582031 133.570312 139.589844 133.359375 139.589844 " fill-opacity="1" fill-rule="nonzero"/></g><g clip-path="url(#e337ca4191)"><path fill="#1b1918" d="M 120.875 100.640625 C 120.875 100.121094 121.167969 99.660156 121.632812 99.4375 C 122.101562 99.214844 122.640625 99.277344 123.042969 99.605469 L 123.308594 99.820312 C 124.304688 100.628906 125.152344 101.535156 125.828125 102.507812 C 130.085938 108.660156 130.089844 115.964844 130.078125 116.707031 C 130.132812 117.320312 129.929688 117.933594 129.519531 118.394531 C 129.097656 118.871094 128.488281 119.144531 127.851562 119.144531 L 127.535156 119.144531 L 127.535156 129.191406 C 127.535156 130.320312 126.617188 131.238281 125.492188 131.238281 L 122.917969 131.238281 C 121.792969 131.238281 120.875 130.320312 120.875 129.191406 Z M 133.382812 100.359375 C 133.382812 99.582031 134.015625 98.945312 134.796875 98.945312 L 136.171875 98.945312 C 136.949219 98.945312 137.585938 99.582031 137.585938 100.359375 L 137.585938 105.675781 L 137.804688 105.675781 L 137.804688 100.359375 C 137.804688 99.582031 138.4375 98.945312 139.21875 98.945312 L 140.59375 98.945312 C 141.371094 98.945312 142.007812 99.582031 142.007812 100.359375 L 142.007812 105.675781 L 142.226562 105.675781 L 142.226562 100.359375 C 142.226562 99.582031 142.859375 98.945312 143.640625 98.945312 L 145.015625 98.945312 C 145.792969 98.945312 146.425781 99.582031 146.425781 100.359375 L 146.425781 109.910156 C 146.425781 111.722656 145.289062 113.355469 143.59375 113.980469 C 143.375 114.058594 143.234375 114.246094 143.234375 114.453125 L 143.234375 129.117188 C 143.234375 130.242188 142.316406 131.160156 141.191406 131.160156 L 138.617188 131.160156 C 137.492188 131.160156 136.578125 130.242188 136.578125 129.117188 L 136.578125 114.453125 C 136.578125 114.246094 136.4375 114.058594 136.21875 113.980469 C 134.523438 113.355469 133.382812 111.722656 133.382812 109.910156 Z M 110.25 115.027344 C 110.25 120.296875 112.074219 125.453125 115.390625 129.539062 C 115.59375 129.785156 115.621094 130.132812 115.457031 130.410156 C 113.183594 134.304688 110.289062 136.230469 108.140625 137.175781 C 111.449219 137.679688 117.023438 137.949219 121.785156 135.394531 C 121.898438 135.335938 122.023438 135.304688 122.148438 135.304688 C 122.269531 135.304688 122.394531 135.335938 122.503906 135.394531 C 125.367188 136.914062 128.550781 137.804688 131.789062 138.015625 C 131.863281 138.019531 131.933594 138.019531 132.003906 138.023438 C 132.367188 138.042969 132.730469 138.054688 133.097656 138.058594 C 133.179688 138.058594 133.261719 138.0625 133.339844 138.058594 C 133.613281 138.058594 133.878906 138.050781 134.148438 138.039062 C 134.488281 138.023438 134.835938 138.003906 135.203125 137.972656 C 146.972656 136.976562 156.25 127.070312 156.25 115.027344 C 156.25 102.988281 146.976562 93.078125 135.207031 92.082031 C 134.871094 92.054688 134.550781 92.03125 134.242188 92.015625 C 133.914062 92.003906 133.585938 91.992188 133.253906 91.992188 L 133.25 91.992188 C 132.933594 91.992188 132.621094 92.003906 132.308594 92.015625 C 132.128906 92.023438 131.9375 92.035156 131.734375 92.046875 C 119.757812 92.832031 110.25 102.835938 110.25 115.027344 " fill-opacity="1" fill-rule="nonzero"/></g></svg>