<svg xmlns="http://www.w3.org/2000/svg" xmlns:xlink="http://www.w3.org/1999/xlink" width="500" zoomAndPan="magnify" viewBox="0 0 375 374.999991" height="500" preserveAspectRatio="xMidYMid meet" version="1.0"><defs><g/><clipPath id="151a2fbf1c"><path d="M 268 112 L 291 112 L 291 143 L 268 143 Z M 268 112 " clip-rule="nonzero"/></clipPath><clipPath id="6cd1356a1e"><path d="M 266.9375 113.136719 L 288.480469 111.101562 L 291.355469 141.515625 L 269.8125 143.550781 Z M 266.9375 113.136719 " clip-rule="nonzero"/></clipPath><clipPath id="4a42eeb502"><path d="M 266.9375 113.136719 L 288.480469 111.101562 L 291.355469 141.515625 L 269.8125 143.550781 Z M 266.9375 113.136719 " clip-rule="nonzero"/></clipPath><clipPath id="85427cd004"><path d="M 254.679688 255.941406 L 344.992188 255.941406 L 344.992188 278.28125 L 254.679688 278.28125 Z M 254.679688 255.941406 " clip-rule="nonzero"/></clipPath><clipPath id="5cf37741ce"><path d="M 265.847656 255.941406 L 333.820312 255.941406 C 339.988281 255.941406 344.988281 260.941406 344.988281 267.109375 C 344.988281 273.277344 339.988281 278.28125 333.820312 278.28125 L 265.847656 278.28125 C 259.679688 278.28125 254.679688 273.277344 254.679688 267.109375 C 254.679688 260.941406 259.679688 255.941406 265.847656 255.941406 Z M 265.847656 255.941406 " clip-rule="nonzero"/></clipPath><clipPath id="5ee079bd06"><path d="M 230.332031 153.285156 L 301.613281 153.285156 L 301.613281 224.566406 L 230.332031 224.566406 Z M 230.332031 153.285156 " clip-rule="nonzero"/></clipPath><clipPath id="950ab72546"><path d="M 282 178 L 301.097656 178 L 301.097656 224.050781 L 282 224.050781 Z M 282 178 " clip-rule="nonzero"/></clipPath><clipPath id="11d2053f2a"><path d="M 265.714844 153.285156 C 285.257812 153.285156 301.097656 169.125 301.097656 188.667969 C 301.097656 208.207031 285.257812 224.050781 265.714844 224.050781 C 246.175781 224.050781 230.332031 208.207031 230.332031 188.667969 C 230.332031 169.125 246.175781 153.285156 265.714844 153.285156 Z M 265.714844 153.285156 " clip-rule="evenodd"/></clipPath><clipPath id="07b9ca01ab"><path d="M 282 179 L 301.097656 179 L 301.097656 224.050781 L 282 224.050781 Z M 282 179 " clip-rule="nonzero"/></clipPath><clipPath id="482e8af422"><path d="M 265.714844 153.285156 C 285.257812 153.285156 301.097656 169.125 301.097656 188.667969 C 301.097656 208.207031 285.257812 224.050781 265.714844 224.050781 C 246.175781 224.050781 230.332031 208.207031 230.332031 188.667969 C 230.332031 169.125 246.175781 153.285156 265.714844 153.285156 Z M 265.714844 153.285156 " clip-rule="evenodd"/></clipPath><clipPath id="8af86693c0"><path d="M 247 180 L 301.097656 180 L 301.097656 224.050781 L 247 224.050781 Z M 247 180 " clip-rule="nonzero"/></clipPath><clipPath id="00dfc35f37"><path d="M 265.714844 153.285156 C 285.257812 153.285156 301.097656 169.125 301.097656 188.667969 C 301.097656 208.207031 285.257812 224.050781 265.714844 224.050781 C 246.175781 224.050781 230.332031 208.207031 230.332031 188.667969 C 230.332031 169.125 246.175781 153.285156 265.714844 153.285156 Z M 265.714844 153.285156 " clip-rule="evenodd"/></clipPath><clipPath id="01b186436d"><path d="M 264 180 L 301.097656 180 L 301.097656 224.050781 L 264 224.050781 Z M 264 180 " clip-rule="nonzero"/></clipPath><clipPath id="0aa6b7e464"><path d="M 265.714844 153.285156 C 285.257812 153.285156 301.097656 169.125 301.097656 188.667969 C 301.097656 208.207031 285.257812 224.050781 265.714844 224.050781 C 246.175781 224.050781 230.332031 208.207031 230.332031 188.667969 C 230.332031 169.125 246.175781 153.285156 265.714844 153.285156 Z M 265.714844 153.285156 " clip-rule="evenodd"/></clipPath><clipPath id="465e54ae9d"><path d="M 275 194 L 301.097656 194 L 301.097656 224.050781 L 275 224.050781 Z M 275 194 " clip-rule="nonzero"/></clipPath><clipPath id="1427ac3f3f"><path d="M 265.714844 153.285156 C 285.257812 153.285156 301.097656 169.125 301.097656 188.667969 C 301.097656 208.207031 285.257812 224.050781 265.714844 224.050781 C 246.175781 224.050781 230.332031 208.207031 230.332031 188.667969 C 230.332031 169.125 246.175781 153.285156 265.714844 153.285156 Z M 265.714844 153.285156 " clip-rule="evenodd"/></clipPath><clipPath id="c6212d8f87"><path d="M 268 201 L 301.097656 201 L 301.097656 224.050781 L 268 224.050781 Z M 268 201 " clip-rule="nonzero"/></clipPath><clipPath id="77e8b7b6a7"><path d="M 265.714844 153.285156 C 285.257812 153.285156 301.097656 169.125 301.097656 188.667969 C 301.097656 208.207031 285.257812 224.050781 265.714844 224.050781 C 246.175781 224.050781 230.332031 208.207031 230.332031 188.667969 C 230.332031 169.125 246.175781 153.285156 265.714844 153.285156 Z M 265.714844 153.285156 " clip-rule="evenodd"/></clipPath><clipPath id="3b2a597b32"><path d="M 266 195 L 301.097656 195 L 301.097656 224.050781 L 266 224.050781 Z M 266 195 " clip-rule="nonzero"/></clipPath><clipPath id="821f0f0398"><path d="M 265.714844 153.285156 C 285.257812 153.285156 301.097656 169.125 301.097656 188.667969 C 301.097656 208.207031 285.257812 224.050781 265.714844 224.050781 C 246.175781 224.050781 230.332031 208.207031 230.332031 188.667969 C 230.332031 169.125 246.175781 153.285156 265.714844 153.285156 Z M 265.714844 153.285156 " clip-rule="evenodd"/></clipPath><clipPath id="c8a17d19ca"><path d="M 269 199 L 301.097656 199 L 301.097656 224.050781 L 269 224.050781 Z M 269 199 " clip-rule="nonzero"/></clipPath><clipPath id="a91f86e316"><path d="M 265.714844 153.285156 C 285.257812 153.285156 301.097656 169.125 301.097656 188.667969 C 301.097656 208.207031 285.257812 224.050781 265.714844 224.050781 C 246.175781 224.050781 230.332031 208.207031 230.332031 188.667969 C 230.332031 169.125 246.175781 153.285156 265.714844 153.285156 Z M 265.714844 153.285156 " clip-rule="evenodd"/></clipPath><clipPath id="64acdf7858"><path d="M 275 174 L 301.097656 174 L 301.097656 224.050781 L 275 224.050781 Z M 275 174 " clip-rule="nonzero"/></clipPath><clipPath id="ca7884d3d8"><path d="M 265.714844 153.285156 C 285.257812 153.285156 301.097656 169.125 301.097656 188.667969 C 301.097656 208.207031 285.257812 224.050781 265.714844 224.050781 C 246.175781 224.050781 230.332031 208.207031 230.332031 188.667969 C 230.332031 169.125 246.175781 153.285156 265.714844 153.285156 Z M 265.714844 153.285156 " clip-rule="evenodd"/></clipPath><clipPath id="afbf5b4f36"><path d="M 274 195 L 301.097656 195 L 301.097656 224.050781 L 274 224.050781 Z M 274 195 " clip-rule="nonzero"/></clipPath><clipPath id="202fb58ab8"><path d="M 265.714844 153.285156 C 285.257812 153.285156 301.097656 169.125 301.097656 188.667969 C 301.097656 208.207031 285.257812 224.050781 265.714844 224.050781 C 246.175781 224.050781 230.332031 208.207031 230.332031 188.667969 C 230.332031 169.125 246.175781 153.285156 265.714844 153.285156 Z M 265.714844 153.285156 " clip-rule="evenodd"/></clipPath><clipPath id="af918946f4"><path d="M 276 175 L 301.097656 175 L 301.097656 224.050781 L 276 224.050781 Z M 276 175 " clip-rule="nonzero"/></clipPath><clipPath id="f2b5bff458"><path d="M 265.714844 153.285156 C 285.257812 153.285156 301.097656 169.125 301.097656 188.667969 C 301.097656 208.207031 285.257812 224.050781 265.714844 224.050781 C 246.175781 224.050781 230.332031 208.207031 230.332031 188.667969 C 230.332031 169.125 246.175781 153.285156 265.714844 153.285156 Z M 265.714844 153.285156 " clip-rule="evenodd"/></clipPath><clipPath id="5d3e7653a9"><path d="M 277 199 L 301.097656 199 L 301.097656 224.050781 L 277 224.050781 Z M 277 199 " clip-rule="nonzero"/></clipPath><clipPath id="0cda0e8b26"><path d="M 265.714844 153.285156 C 285.257812 153.285156 301.097656 169.125 301.097656 188.667969 C 301.097656 208.207031 285.257812 224.050781 265.714844 224.050781 C 246.175781 224.050781 230.332031 208.207031 230.332031 188.667969 C 230.332031 169.125 246.175781 153.285156 265.714844 153.285156 Z M 265.714844 153.285156 " clip-rule="evenodd"/></clipPath><clipPath id="4bc22dbdb2"><path d="M 282 180 L 301.097656 180 L 301.097656 224.050781 L 282 224.050781 Z M 282 180 " clip-rule="nonzero"/></clipPath><clipPath id="d2e914570a"><path d="M 265.714844 153.285156 C 285.257812 153.285156 301.097656 169.125 301.097656 188.667969 C 301.097656 208.207031 285.257812 224.050781 265.714844 224.050781 C 246.175781 224.050781 230.332031 208.207031 230.332031 188.667969 C 230.332031 169.125 246.175781 153.285156 265.714844 153.285156 Z M 265.714844 153.285156 " clip-rule="evenodd"/></clipPath><clipPath id="c815a45466"><path d="M 281 198 L 301.097656 198 L 301.097656 224.050781 L 281 224.050781 Z M 281 198 " clip-rule="nonzero"/></clipPath><clipPath id="35c3c9ecfd"><path d="M 265.714844 153.285156 C 285.257812 153.285156 301.097656 169.125 301.097656 188.667969 C 301.097656 208.207031 285.257812 224.050781 265.714844 224.050781 C 246.175781 224.050781 230.332031 208.207031 230.332031 188.667969 C 230.332031 169.125 246.175781 153.285156 265.714844 153.285156 Z M 265.714844 153.285156 " clip-rule="evenodd"/></clipPath><clipPath id="bf190f969e"><path d="M 263 202 L 301.097656 202 L 301.097656 224.050781 L 263 224.050781 Z M 263 202 " clip-rule="nonzero"/></clipPath><clipPath id="8b0712d626"><path d="M 265.714844 153.285156 C 285.257812 153.285156 301.097656 169.125 301.097656 188.667969 C 301.097656 208.207031 285.257812 224.050781 265.714844 224.050781 C 246.175781 224.050781 230.332031 208.207031 230.332031 188.667969 C 230.332031 169.125 246.175781 153.285156 265.714844 153.285156 Z M 265.714844 153.285156 " clip-rule="evenodd"/></clipPath><clipPath id="3de3736903"><path d="M 262 202 L 301.097656 202 L 301.097656 224.050781 L 262 224.050781 Z M 262 202 " clip-rule="nonzero"/></clipPath><clipPath id="90509af72b"><path d="M 265.714844 153.285156 C 285.257812 153.285156 301.097656 169.125 301.097656 188.667969 C 301.097656 208.207031 285.257812 224.050781 265.714844 224.050781 C 246.175781 224.050781 230.332031 208.207031 230.332031 188.667969 C 230.332031 169.125 246.175781 153.285156 265.714844 153.285156 Z M 265.714844 153.285156 " clip-rule="evenodd"/></clipPath><clipPath id="b25af625aa"><path d="M 261 201 L 301.097656 201 L 301.097656 224.050781 L 261 224.050781 Z M 261 201 " clip-rule="nonzero"/></clipPath><clipPath id="b95e3c0a26"><path d="M 265.714844 153.285156 C 285.257812 153.285156 301.097656 169.125 301.097656 188.667969 C 301.097656 208.207031 285.257812 224.050781 265.714844 224.050781 C 246.175781 224.050781 230.332031 208.207031 230.332031 188.667969 C 230.332031 169.125 246.175781 153.285156 265.714844 153.285156 Z M 265.714844 153.285156 " clip-rule="evenodd"/></clipPath><clipPath id="914bbfc962"><path d="M 253 199 L 301.097656 199 L 301.097656 224.050781 L 253 224.050781 Z M 253 199 " clip-rule="nonzero"/></clipPath><clipPath id="f8a5a6d145"><path d="M 265.714844 153.285156 C 285.257812 153.285156 301.097656 169.125 301.097656 188.667969 C 301.097656 208.207031 285.257812 224.050781 265.714844 224.050781 C 246.175781 224.050781 230.332031 208.207031 230.332031 188.667969 C 230.332031 169.125 246.175781 153.285156 265.714844 153.285156 Z M 265.714844 153.285156 " clip-rule="evenodd"/></clipPath><clipPath id="8718b79068"><path d="M 249 199 L 301.097656 199 L 301.097656 224.050781 L 249 224.050781 Z M 249 199 " clip-rule="nonzero"/></clipPath><clipPath id="88622ea887"><path d="M 265.714844 153.285156 C 285.257812 153.285156 301.097656 169.125 301.097656 188.667969 C 301.097656 208.207031 285.257812 224.050781 265.714844 224.050781 C 246.175781 224.050781 230.332031 208.207031 230.332031 188.667969 C 230.332031 169.125 246.175781 153.285156 265.714844 153.285156 Z M 265.714844 153.285156 " clip-rule="evenodd"/></clipPath><clipPath id="33bfa5ce4e"><path d="M 248 199 L 301.097656 199 L 301.097656 224.050781 L 248 224.050781 Z M 248 199 " clip-rule="nonzero"/></clipPath><clipPath id="450f2f4a7f"><path d="M 265.714844 153.285156 C 285.257812 153.285156 301.097656 169.125 301.097656 188.667969 C 301.097656 208.207031 285.257812 224.050781 265.714844 224.050781 C 246.175781 224.050781 230.332031 208.207031 230.332031 188.667969 C 230.332031 169.125 246.175781 153.285156 265.714844 153.285156 Z M 265.714844 153.285156 " clip-rule="evenodd"/></clipPath><clipPath id="5e3f7d5c44"><path d="M 285 181 L 301.097656 181 L 301.097656 224.050781 L 285 224.050781 Z M 285 181 " clip-rule="nonzero"/></clipPath><clipPath id="aa67a52dcc"><path d="M 265.714844 153.285156 C 285.257812 153.285156 301.097656 169.125 301.097656 188.667969 C 301.097656 208.207031 285.257812 224.050781 265.714844 224.050781 C 246.175781 224.050781 230.332031 208.207031 230.332031 188.667969 C 230.332031 169.125 246.175781 153.285156 265.714844 153.285156 Z M 265.714844 153.285156 " clip-rule="evenodd"/></clipPath><clipPath id="748c1ae0f5"><path d="M 277 199 L 301.097656 199 L 301.097656 224.050781 L 277 224.050781 Z M 277 199 " clip-rule="nonzero"/></clipPath><clipPath id="831d8f2ed6"><path d="M 265.714844 153.285156 C 285.257812 153.285156 301.097656 169.125 301.097656 188.667969 C 301.097656 208.207031 285.257812 224.050781 265.714844 224.050781 C 246.175781 224.050781 230.332031 208.207031 230.332031 188.667969 C 230.332031 169.125 246.175781 153.285156 265.714844 153.285156 Z M 265.714844 153.285156 " clip-rule="evenodd"/></clipPath><clipPath id="3211000be4"><path d="M 268 203 L 301.097656 203 L 301.097656 224.050781 L 268 224.050781 Z M 268 203 " clip-rule="nonzero"/></clipPath><clipPath id="e9c8647b1e"><path d="M 265.714844 153.285156 C 285.257812 153.285156 301.097656 169.125 301.097656 188.667969 C 301.097656 208.207031 285.257812 224.050781 265.714844 224.050781 C 246.175781 224.050781 230.332031 208.207031 230.332031 188.667969 C 230.332031 169.125 246.175781 153.285156 265.714844 153.285156 Z M 265.714844 153.285156 " clip-rule="evenodd"/></clipPath><clipPath id="8915eaf294"><path d="M 285 181 L 301.097656 181 L 301.097656 224.050781 L 285 224.050781 Z M 285 181 " clip-rule="nonzero"/></clipPath><clipPath id="c17f6b8c1d"><path d="M 265.714844 153.285156 C 285.257812 153.285156 301.097656 169.125 301.097656 188.667969 C 301.097656 208.207031 285.257812 224.050781 265.714844 224.050781 C 246.175781 224.050781 230.332031 208.207031 230.332031 188.667969 C 230.332031 169.125 246.175781 153.285156 265.714844 153.285156 Z M 265.714844 153.285156 " clip-rule="evenodd"/></clipPath><clipPath id="a97ab85816"><path d="M 247 198 L 301.097656 198 L 301.097656 224.050781 L 247 224.050781 Z M 247 198 " clip-rule="nonzero"/></clipPath><clipPath id="bbf010e4da"><path d="M 265.714844 153.285156 C 285.257812 153.285156 301.097656 169.125 301.097656 188.667969 C 301.097656 208.207031 285.257812 224.050781 265.714844 224.050781 C 246.175781 224.050781 230.332031 208.207031 230.332031 188.667969 C 230.332031 169.125 246.175781 153.285156 265.714844 153.285156 Z M 265.714844 153.285156 " clip-rule="evenodd"/></clipPath><clipPath id="504fbd84cf"><path d="M 245 203 L 301.097656 203 L 301.097656 224.050781 L 245 224.050781 Z M 245 203 " clip-rule="nonzero"/></clipPath><clipPath id="9a0094ff31"><path d="M 265.714844 153.285156 C 285.257812 153.285156 301.097656 169.125 301.097656 188.667969 C 301.097656 208.207031 285.257812 224.050781 265.714844 224.050781 C 246.175781 224.050781 230.332031 208.207031 230.332031 188.667969 C 230.332031 169.125 246.175781 153.285156 265.714844 153.285156 Z M 265.714844 153.285156 " clip-rule="evenodd"/></clipPath><clipPath id="af2610586c"><path d="M 285 202 L 301.097656 202 L 301.097656 224.050781 L 285 224.050781 Z M 285 202 " clip-rule="nonzero"/></clipPath><clipPath id="7bb7d09151"><path d="M 265.714844 153.285156 C 285.257812 153.285156 301.097656 169.125 301.097656 188.667969 C 301.097656 208.207031 285.257812 224.050781 265.714844 224.050781 C 246.175781 224.050781 230.332031 208.207031 230.332031 188.667969 C 230.332031 169.125 246.175781 153.285156 265.714844 153.285156 Z M 265.714844 153.285156 " clip-rule="evenodd"/></clipPath><clipPath id="2df966ca9c"><path d="M 246 203 L 301.097656 203 L 301.097656 224.050781 L 246 224.050781 Z M 246 203 " clip-rule="nonzero"/></clipPath><clipPath id="bb7cb008b2"><path d="M 265.714844 153.285156 C 285.257812 153.285156 301.097656 169.125 301.097656 188.667969 C 301.097656 208.207031 285.257812 224.050781 265.714844 224.050781 C 246.175781 224.050781 230.332031 208.207031 230.332031 188.667969 C 230.332031 169.125 246.175781 153.285156 265.714844 153.285156 Z M 265.714844 153.285156 " clip-rule="evenodd"/></clipPath><clipPath id="7350f6bb50"><path d="M 245 173 L 286 173 L 286 204 L 245 204 Z M 245 173 " clip-rule="nonzero"/></clipPath><clipPath id="353a74c427"><path d="M 265.714844 153.285156 C 285.257812 153.285156 301.097656 169.125 301.097656 188.667969 C 301.097656 208.207031 285.257812 224.050781 265.714844 224.050781 C 246.175781 224.050781 230.332031 208.207031 230.332031 188.667969 C 230.332031 169.125 246.175781 153.285156 265.714844 153.285156 Z M 265.714844 153.285156 " clip-rule="evenodd"/></clipPath></defs><g fill="#000000" fill-opacity="1"><g transform="translate(-1.534647, 232.800249)"><g><path d="M 32.375 -26.40625 L 78.328125 -26.40625 C 80.609375 -26.40625 82.320312 -26.328125 83.46875 -26.171875 C 84.613281 -26.023438 85.929688 -25.554688 87.421875 -24.765625 C 90.109375 -23.367188 91.453125 -19.488281 91.453125 -13.125 C 91.453125 -6.164062 89.613281 -2.085938 85.9375 -0.890625 C 84.238281 -0.296875 81.648438 0 78.171875 0 L 19.09375 0 C 12.132812 0 8.054688 -1.890625 6.859375 -5.671875 C 6.265625 -7.265625 5.96875 -9.800781 5.96875 -13.28125 L 5.96875 -96.21875 C 5.96875 -101.289062 6.910156 -104.75 8.796875 -106.59375 C 10.691406 -108.4375 14.273438 -109.359375 19.546875 -109.359375 L 78.328125 -109.359375 C 80.609375 -109.359375 82.320312 -109.28125 83.46875 -109.125 C 84.613281 -108.976562 85.929688 -108.507812 87.421875 -107.71875 C 90.109375 -106.320312 91.453125 -102.441406 91.453125 -96.078125 C 91.453125 -89.117188 89.613281 -85.039062 85.9375 -83.84375 C 84.238281 -83.25 81.648438 -82.953125 78.171875 -82.953125 L 32.375 -82.953125 L 32.375 -67.875 L 61.90625 -67.875 C 64.195312 -67.875 65.914062 -67.800781 67.0625 -67.65625 C 68.207031 -67.507812 69.523438 -67.035156 71.015625 -66.234375 C 73.703125 -64.847656 75.046875 -60.972656 75.046875 -54.609375 C 75.046875 -47.640625 73.15625 -43.5625 69.375 -42.375 C 67.6875 -41.769531 65.097656 -41.46875 61.609375 -41.46875 L 32.375 -41.46875 Z M 32.375 -26.40625 "/></g></g></g><g fill="#000000" fill-opacity="1"><g transform="translate(77.530459, 232.800249)"><g><path d="M 49.078125 -78.46875 C 57.929688 -78.46875 66.0625 -74.539062 73.46875 -66.6875 C 80.882812 -58.832031 84.59375 -49.707031 84.59375 -39.3125 C 84.59375 -28.914062 80.910156 -19.8125 73.546875 -12 C 66.191406 -4.195312 58.285156 -0.296875 49.828125 -0.296875 C 41.367188 -0.296875 35.351562 -2.679688 31.78125 -7.453125 C 30.976562 -2.585938 26.703125 -0.15625 18.953125 -0.15625 C 12.679688 -0.15625 8.847656 -1.492188 7.453125 -4.171875 C 6.765625 -5.671875 6.34375 -6.988281 6.1875 -8.125 C 6.039062 -9.269531 5.96875 -10.988281 5.96875 -13.28125 L 5.96875 -102.34375 C 5.96875 -104.632812 6.039062 -106.347656 6.1875 -107.484375 C 6.34375 -108.628906 6.765625 -109.898438 7.453125 -111.296875 C 8.847656 -113.984375 12.726562 -115.328125 19.09375 -115.328125 C 25.363281 -115.328125 29.144531 -113.984375 30.4375 -111.296875 C 31.226562 -109.804688 31.695312 -108.488281 31.84375 -107.34375 C 32 -106.195312 32.078125 -104.476562 32.078125 -102.1875 L 32.078125 -71.15625 C 36.054688 -76.03125 41.722656 -78.46875 49.078125 -78.46875 Z M 36.03125 -30.28125 C 38.46875 -27.59375 41.523438 -26.25 45.203125 -26.25 C 48.878906 -26.25 52.007812 -27.59375 54.59375 -30.28125 C 57.1875 -32.96875 58.484375 -35.953125 58.484375 -39.234375 C 58.484375 -42.515625 57.289062 -45.519531 54.90625 -48.25 C 52.519531 -50.988281 49.335938 -52.359375 45.359375 -52.359375 C 41.378906 -52.359375 38.21875 -50.96875 35.875 -48.1875 C 33.539062 -45.40625 32.375 -42.394531 32.375 -39.15625 C 32.375 -35.925781 33.59375 -32.96875 36.03125 -30.28125 Z M 36.03125 -30.28125 "/></g></g></g><g fill="#000000" fill-opacity="1"><g transform="translate(149.733233, 232.800249)"><g><path d="M 3.734375 -39.234375 C 3.734375 -51.171875 7.910156 -61.015625 16.265625 -68.765625 C 24.617188 -76.523438 34.164062 -80.40625 44.90625 -80.40625 C 55.644531 -80.40625 65.140625 -76.550781 73.390625 -68.84375 C 81.648438 -61.132812 85.78125 -51.316406 85.78125 -39.390625 C 85.78125 -31.128906 83.640625 -23.789062 79.359375 -17.375 C 75.085938 -10.957031 69.894531 -6.234375 63.78125 -3.203125 C 57.664062 -0.171875 51.320312 1.34375 44.75 1.34375 C 38.1875 1.34375 31.820312 -0.269531 25.65625 -3.5 C 19.488281 -6.738281 14.289062 -11.515625 10.0625 -17.828125 C 5.84375 -24.140625 3.734375 -31.273438 3.734375 -39.234375 Z M 34.90625 -28.5625 C 38.09375 -26.132812 41.328125 -24.921875 44.609375 -24.921875 C 47.890625 -24.921875 51.171875 -26.160156 54.453125 -28.640625 C 57.734375 -31.128906 59.375 -34.8125 59.375 -39.6875 C 59.375 -44.5625 57.832031 -48.191406 54.75 -50.578125 C 51.664062 -52.960938 48.332031 -54.15625 44.75 -54.15625 C 41.175781 -54.15625 37.847656 -52.910156 34.765625 -50.421875 C 31.679688 -47.941406 30.140625 -44.285156 30.140625 -39.453125 C 30.140625 -34.628906 31.726562 -31 34.90625 -28.5625 Z M 34.90625 -28.5625 "/></g></g></g><g fill="#000000" fill-opacity="1"><g transform="translate(223.129446, 232.800249)"><g><path d="M 3.734375 -39.234375 C 3.734375 -51.171875 7.910156 -61.015625 16.265625 -68.765625 C 24.617188 -76.523438 34.164062 -80.40625 44.90625 -80.40625 C 55.644531 -80.40625 65.140625 -76.550781 73.390625 -68.84375 C 81.648438 -61.132812 85.78125 -51.316406 85.78125 -39.390625 C 85.78125 -31.128906 83.640625 -23.789062 79.359375 -17.375 C 75.085938 -10.957031 69.894531 -6.234375 63.78125 -3.203125 C 57.664062 -0.171875 51.320312 1.34375 44.75 1.34375 C 38.1875 1.34375 31.820312 -0.269531 25.65625 -3.5 C 19.488281 -6.738281 14.289062 -11.515625 10.0625 -17.828125 C 5.84375 -24.140625 3.734375 -31.273438 3.734375 -39.234375 Z M 34.90625 -28.5625 C 38.09375 -26.132812 41.328125 -24.921875 44.609375 -24.921875 C 47.890625 -24.921875 51.171875 -26.160156 54.453125 -28.640625 C 57.734375 -31.128906 59.375 -34.8125 59.375 -39.6875 C 59.375 -44.5625 57.832031 -48.191406 54.75 -50.578125 C 51.664062 -52.960938 48.332031 -54.15625 44.75 -54.15625 C 41.175781 -54.15625 37.847656 -52.910156 34.765625 -50.421875 C 31.679688 -47.941406 30.140625 -44.285156 30.140625 -39.453125 C 30.140625 -34.628906 31.726562 -31 34.90625 -28.5625 Z M 34.90625 -28.5625 "/></g></g></g><g fill="#000000" fill-opacity="1"><g transform="translate(296.525659, 232.800249)"><g><path d="M 52.21875 -39.390625 L 72.0625 -22.96875 C 74.539062 -20.882812 76.101562 -19.296875 76.75 -18.203125 C 77.40625 -17.109375 77.734375 -16.0625 77.734375 -15.0625 C 77.734375 -12.675781 76.191406 -9.445312 73.109375 -5.375 C 69.722656 -1.195312 66.738281 0.890625 64.15625 0.890625 C 61.96875 0.890625 58.929688 -0.550781 55.046875 -3.4375 L 53.5625 -4.46875 C 51.269531 -6.363281 47.738281 -9.671875 42.96875 -14.390625 C 38.195312 -19.117188 34.566406 -22.476562 32.078125 -24.46875 L 32.078125 -12.984375 C 32.078125 -10.691406 32 -8.972656 31.84375 -7.828125 C 31.695312 -6.679688 31.226562 -5.363281 30.4375 -3.875 C 29.144531 -1.289062 25.316406 0 18.953125 0 C 12.679688 0 8.847656 -1.34375 7.453125 -4.03125 C 6.765625 -5.519531 6.34375 -6.835938 6.1875 -7.984375 C 6.039062 -9.128906 5.96875 -10.84375 5.96875 -13.125 L 5.96875 -102.484375 C 5.96875 -104.773438 6.039062 -106.492188 6.1875 -107.640625 C 6.34375 -108.785156 6.765625 -110.101562 7.453125 -111.59375 C 8.847656 -114.28125 12.726562 -115.625 19.09375 -115.625 C 23.863281 -115.625 27.242188 -114.773438 29.234375 -113.078125 C 30.929688 -111.691406 31.828125 -109.503906 31.921875 -106.515625 C 32.023438 -105.617188 32.078125 -104.226562 32.078125 -102.34375 L 32.078125 -55.046875 C 33.867188 -56.535156 36.578125 -59.070312 40.203125 -62.65625 C 43.835938 -66.238281 46.550781 -68.773438 48.34375 -70.265625 L 50.125 -71.453125 C 53.601562 -74.140625 56.585938 -75.484375 59.078125 -75.484375 C 61.566406 -75.484375 64.425781 -73.46875 67.65625 -69.4375 C 70.882812 -65.414062 72.5 -62.257812 72.5 -59.96875 C 72.5 -57.6875 70.660156 -55.003906 66.984375 -51.921875 Z M 52.21875 -39.390625 "/></g></g></g><g clip-path="url(#151a2fbf1c)"><g clip-path="url(#6cd1356a1e)"><g clip-path="url(#4a42eeb502)"><path fill="#38b6ff" d="M 280.542969 128.394531 C 282.199219 127.035156 284.199219 125.890625 286.339844 125.980469 C 288.476562 126.070312 290.640625 127.8125 290.527344 129.949219 C 290.464844 131.109375 289.769531 132.160156 288.882812 132.90625 C 287.996094 133.65625 286.925781 134.148438 285.867188 134.632812 C 284.023438 135.472656 282.179688 136.316406 280.335938 137.160156 C 278.640625 137.933594 276.628906 139.304688 274.808594 139.683594 C 272.703125 140.125 274.003906 137.625 274.441406 136.59375 C 275.074219 135.089844 275.882812 133.664062 276.835938 132.34375 C 277.871094 130.910156 279.113281 129.445312 280.542969 128.394531 Z M 282.230469 139.800781 C 281.296875 140.144531 278.800781 140.996094 278.382812 141.988281 C 277.886719 143.171875 281.09375 142.359375 281.824219 142.285156 C 283.515625 142.105469 285.210938 141.929688 286.902344 141.75 C 287.332031 141.703125 287.773438 141.65625 288.164062 141.480469 C 288.558594 141.300781 288.910156 140.964844 288.988281 140.539062 C 289.09375 139.984375 288.695312 139.425781 288.191406 139.171875 C 287.683594 138.917969 287.09375 138.902344 286.523438 138.929688 C 285.054688 139.015625 283.613281 139.289062 282.230469 139.800781 Z M 268.761719 129.847656 C 268.871094 131.636719 268.914062 134.027344 269.378906 136.015625 C 269.535156 136.691406 270.480469 136.734375 270.691406 136.070312 C 271.242188 134.339844 272.09375 131.820312 273.777344 128.941406 C 275.726562 125.613281 278.503906 122.636719 279.265625 118.859375 C 279.628906 117.0625 279.476562 114.980469 278.152344 113.710938 C 276.976562 112.578125 275.085938 112.386719 273.574219 113.011719 C 272.066406 113.636719 270.921875 114.960938 270.222656 116.4375 C 269.46875 118.03125 269.183594 119.808594 268.976562 121.558594 C 268.652344 124.308594 268.597656 127.082031 268.761719 129.847656 Z M 268.761719 129.847656 " fill-opacity="1" fill-rule="nonzero"/></g></g></g><g clip-path="url(#85427cd004)"><g clip-path="url(#5cf37741ce)"><path fill="#000000" d="M 254.679688 255.941406 L 344.992188 255.941406 L 344.992188 278.28125 L 254.679688 278.28125 Z M 254.679688 255.941406 " fill-opacity="1" fill-rule="nonzero"/></g></g><g clip-path="url(#5ee079bd06)"><path fill="#000000" d="M 265.714844 153.285156 C 285.257812 153.285156 301.097656 169.125 301.097656 188.667969 C 301.097656 208.207031 285.257812 224.050781 265.714844 224.050781 C 246.175781 224.050781 230.332031 208.207031 230.332031 188.667969 C 230.332031 169.125 246.175781 153.285156 265.714844 153.285156 Z M 265.714844 153.285156 " fill-opacity="1" fill-rule="evenodd"/></g><g clip-path="url(#950ab72546)"><g clip-path="url(#11d2053f2a)"><path fill="#38b6ff" d="M 282.480469 178.882812 L 371.789062 268.191406 L 371.863281 268.269531 L 371.925781 268.359375 L 371.980469 268.453125 L 372.023438 268.550781 L 372.054688 268.660156 L 372.074219 268.773438 L 372.082031 268.894531 L 282.773438 179.582031 L 282.765625 179.460938 L 282.746094 179.347656 L 282.714844 179.242188 L 282.667969 179.140625 L 282.617188 179.046875 L 282.550781 178.960938 Z M 282.480469 178.882812 " fill-opacity="1" fill-rule="evenodd"/></g></g><g clip-path="url(#07b9ca01ab)"><g clip-path="url(#482e8af422)"><path fill="#38b6ff" d="M 282.773438 179.582031 L 372.082031 268.894531 L 372.082031 269.574219 L 282.773438 180.265625 Z M 282.773438 179.582031 " fill-opacity="1" fill-rule="evenodd"/></g></g><g clip-path="url(#8af86693c0)"><g clip-path="url(#00dfc35f37)"><path fill="#38b6ff" d="M 247.316406 180.9375 L 336.628906 270.246094 L 336.628906 287.546875 L 247.316406 198.234375 Z M 247.316406 180.9375 " fill-opacity="1" fill-rule="evenodd"/></g></g><g clip-path="url(#01b186436d)"><g clip-path="url(#0aa6b7e464)"><path fill="#38b6ff" d="M 264.691406 180.921875 L 354.003906 270.230469 L 354.003906 292.136719 L 264.691406 202.828125 Z M 264.691406 180.921875 " fill-opacity="1" fill-rule="evenodd"/></g></g><g clip-path="url(#465e54ae9d)"><g clip-path="url(#1427ac3f3f)"><path fill="#38b6ff" d="M 276.367188 194.179688 L 365.675781 283.488281 L 365.667969 283.605469 L 365.636719 283.710938 L 365.582031 283.808594 L 365.5 283.90625 L 365.386719 284.003906 L 365.234375 284.109375 L 365.046875 284.230469 L 364.816406 284.367188 L 275.503906 195.058594 L 275.734375 194.917969 L 275.925781 194.800781 L 276.074219 194.695312 L 276.1875 194.59375 L 276.273438 194.5 L 276.328125 194.398438 L 276.355469 194.296875 Z M 276.367188 194.179688 " fill-opacity="1" fill-rule="evenodd"/></g></g><g clip-path="url(#c6212d8f87)"><g clip-path="url(#77e8b7b6a7)"><path fill="#38b6ff" d="M 269.710938 201.453125 L 359.023438 290.765625 L 358.941406 290.804688 L 358.859375 290.839844 L 358.78125 290.878906 L 358.703125 290.914062 L 358.628906 290.953125 L 358.550781 290.988281 L 358.476562 291.023438 L 358.402344 291.0625 L 358.328125 291.097656 L 358.046875 291.238281 L 357.976562 291.269531 L 357.910156 291.304688 L 357.84375 291.335938 L 268.53125 202.027344 L 268.601562 201.992188 L 268.667969 201.960938 L 268.734375 201.925781 L 268.945312 201.820312 L 269.242188 201.679688 L 269.316406 201.640625 L 269.394531 201.605469 L 269.472656 201.566406 L 269.550781 201.53125 L 269.628906 201.492188 Z M 269.710938 201.453125 " fill-opacity="1" fill-rule="evenodd"/></g></g><g clip-path="url(#3b2a597b32)"><g clip-path="url(#821f0f0398)"><path fill="#38b6ff" d="M 274.695312 195.578125 L 364.007812 284.886719 L 355.347656 291.570312 L 266.035156 202.257812 Z M 274.695312 195.578125 " fill-opacity="1" fill-rule="evenodd"/></g></g><g clip-path="url(#c8a17d19ca)"><g clip-path="url(#a91f86e316)"><path fill="#38b6ff" d="M 277.632812 199.347656 L 366.941406 288.65625 L 366.910156 288.664062 L 366.851562 288.671875 L 366.769531 288.683594 L 366.660156 288.703125 L 366.535156 288.722656 L 366.382812 288.75 L 366.214844 288.777344 L 366.027344 288.8125 L 365.820312 288.847656 L 365.597656 288.890625 L 365.359375 288.933594 L 365.109375 288.984375 L 364.847656 289.039062 L 364.570312 289.09375 L 364.285156 289.15625 L 363.992188 289.21875 L 363.6875 289.289062 L 363.378906 289.359375 L 362.746094 289.515625 L 362.421875 289.601562 L 362.101562 289.6875 L 361.777344 289.777344 L 361.128906 289.972656 L 360.808594 290.074219 L 360.496094 290.179688 L 360.183594 290.289062 L 359.882812 290.402344 L 359.585938 290.519531 L 359.300781 290.640625 L 359.023438 290.765625 L 269.710938 201.453125 L 269.988281 201.332031 L 270.273438 201.210938 L 270.570312 201.09375 L 270.875 200.980469 L 271.183594 200.871094 L 271.5 200.765625 L 271.820312 200.660156 L 272.140625 200.5625 L 272.464844 200.46875 L 273.113281 200.289062 L 273.753906 200.125 L 274.378906 199.976562 L 274.679688 199.910156 L 274.972656 199.84375 L 275.261719 199.785156 L 275.535156 199.726562 L 275.796875 199.671875 L 276.050781 199.625 L 276.285156 199.578125 L 276.507812 199.539062 L 276.714844 199.5 L 276.902344 199.46875 L 277.074219 199.4375 L 277.222656 199.414062 L 277.351562 199.390625 L 277.457031 199.375 L 277.539062 199.359375 L 277.597656 199.351562 Z M 277.632812 199.347656 " fill-opacity="1" fill-rule="evenodd"/></g></g><g clip-path="url(#64acdf7858)"><g clip-path="url(#ca7884d3d8)"><path fill="#38b6ff" d="M 275.835938 174.0625 L 365.144531 263.375 L 365.214844 263.453125 L 365.285156 263.539062 L 365.351562 263.636719 L 365.417969 263.742188 L 365.476562 263.851562 L 365.53125 263.96875 L 365.582031 264.089844 L 365.621094 264.210938 L 365.652344 264.335938 L 365.667969 264.460938 L 365.675781 264.582031 L 276.367188 175.273438 L 276.359375 175.148438 L 276.339844 175.023438 L 276.308594 174.902344 L 276.269531 174.777344 L 276.222656 174.65625 L 276.167969 174.542969 L 276.105469 174.429688 L 276.039062 174.328125 L 275.972656 174.230469 L 275.902344 174.140625 Z M 275.835938 174.0625 " fill-opacity="1" fill-rule="evenodd"/></g></g><g clip-path="url(#afbf5b4f36)"><g clip-path="url(#202fb58ab8)"><path fill="#38b6ff" d="M 275.503906 195.058594 L 364.816406 284.367188 L 364.71875 284.421875 L 364.621094 284.480469 L 364.417969 284.605469 L 364.316406 284.671875 L 364.210938 284.738281 L 364.007812 284.886719 L 274.695312 195.578125 L 274.796875 195.5 L 274.902344 195.429688 L 275.003906 195.359375 L 275.105469 195.292969 L 275.207031 195.230469 L 275.308594 195.171875 L 275.40625 195.113281 Z M 275.503906 195.058594 " fill-opacity="1" fill-rule="evenodd"/></g></g><g clip-path="url(#af918946f4)"><g clip-path="url(#f2b5bff458)"><path fill="#38b6ff" d="M 276.367188 175.273438 L 365.675781 264.582031 L 365.675781 283.488281 L 276.367188 194.179688 Z M 276.367188 175.273438 " fill-opacity="1" fill-rule="evenodd"/></g></g><g clip-path="url(#5d3e7653a9)"><g clip-path="url(#0cda0e8b26)"><path fill="#38b6ff" d="M 277.730469 199.339844 L 367.042969 288.652344 L 366.980469 288.652344 L 366.96875 288.65625 L 366.941406 288.65625 L 277.632812 199.347656 L 277.644531 199.34375 L 277.667969 199.34375 L 277.679688 199.339844 Z M 277.730469 199.339844 " fill-opacity="1" fill-rule="evenodd"/></g></g><g clip-path="url(#4bc22dbdb2)"><g clip-path="url(#d2e914570a)"><path fill="#38b6ff" d="M 282.773438 180.265625 L 372.082031 269.574219 L 372.082031 287.546875 L 282.773438 198.234375 Z M 282.773438 180.265625 " fill-opacity="1" fill-rule="evenodd"/></g></g><g clip-path="url(#c815a45466)"><g clip-path="url(#35c3c9ecfd)"><path fill="#38b6ff" d="M 282.773438 198.234375 L 372.082031 287.546875 L 372.078125 287.660156 L 372.0625 287.769531 L 372.035156 287.875 L 371.996094 287.976562 L 371.949219 288.070312 L 371.894531 288.164062 L 371.832031 288.246094 L 371.757812 288.328125 L 371.679688 288.398438 L 371.59375 288.460938 L 371.503906 288.515625 L 371.40625 288.5625 L 371.304688 288.601562 L 371.199219 288.628906 L 371.089844 288.644531 L 370.976562 288.652344 L 281.667969 199.339844 L 281.78125 199.335938 L 281.890625 199.316406 L 281.996094 199.289062 L 282.097656 199.253906 L 282.195312 199.207031 L 282.285156 199.152344 L 282.371094 199.085938 L 282.449219 199.015625 L 282.519531 198.9375 L 282.582031 198.851562 L 282.640625 198.761719 L 282.683594 198.664062 L 282.722656 198.5625 L 282.75 198.457031 L 282.765625 198.347656 Z M 282.773438 198.234375 " fill-opacity="1" fill-rule="evenodd"/></g></g><g clip-path="url(#bf190f969e)"><g clip-path="url(#8b0712d626)"><path fill="#38b6ff" d="M 264.691406 202.828125 L 354.003906 292.136719 L 353.894531 292.101562 L 353.78125 292.0625 L 353.667969 292.019531 L 353.550781 291.976562 L 353.433594 291.925781 L 353.3125 291.875 L 353.191406 291.816406 L 353.066406 291.757812 L 263.753906 202.449219 L 263.878906 202.507812 L 264.003906 202.5625 L 264.125 202.613281 L 264.242188 202.664062 L 264.355469 202.710938 L 264.46875 202.753906 L 264.582031 202.792969 Z M 264.691406 202.828125 " fill-opacity="1" fill-rule="evenodd"/></g></g><g clip-path="url(#3de3736903)"><g clip-path="url(#90509af72b)"><path fill="#38b6ff" d="M 263.753906 202.449219 L 353.066406 291.757812 L 352.976562 291.71875 L 352.886719 291.671875 L 352.792969 291.628906 L 352.605469 291.535156 L 352.507812 291.484375 L 352.40625 291.4375 L 352.304688 291.386719 L 262.992188 202.074219 L 263.195312 202.175781 L 263.292969 202.222656 L 263.390625 202.273438 L 263.484375 202.316406 L 263.574219 202.363281 L 263.667969 202.40625 Z M 263.753906 202.449219 " fill-opacity="1" fill-rule="evenodd"/></g></g><g clip-path="url(#b25af625aa)"><g clip-path="url(#b95e3c0a26)"><path fill="#38b6ff" d="M 262.992188 202.074219 L 352.304688 291.386719 L 352.234375 291.347656 L 352.085938 291.277344 L 352.011719 291.238281 L 351.933594 291.203125 L 351.859375 291.164062 L 351.703125 291.085938 L 351.621094 291.046875 L 351.542969 291.007812 L 351.460938 290.96875 L 351.289062 290.890625 L 351.203125 290.847656 L 351.117188 290.808594 L 351.03125 290.765625 L 261.71875 201.457031 L 261.808594 201.496094 L 261.894531 201.539062 L 262.066406 201.617188 L 262.148438 201.660156 L 262.3125 201.738281 L 262.46875 201.816406 L 262.546875 201.851562 L 262.625 201.890625 L 262.699219 201.929688 L 262.773438 201.964844 L 262.847656 202.003906 L 262.921875 202.039062 Z M 262.992188 202.074219 " fill-opacity="1" fill-rule="evenodd"/></g></g><g clip-path="url(#914bbfc962)"><g clip-path="url(#f8a5a6d145)"><path fill="#38b6ff" d="M 261.71875 201.457031 L 351.03125 290.765625 L 350.753906 290.640625 L 350.464844 290.519531 L 350.171875 290.40625 L 349.867188 290.292969 L 349.558594 290.179688 L 349.242188 290.074219 L 348.921875 289.972656 L 348.601562 289.875 L 347.953125 289.6875 L 347.304688 289.515625 L 346.671875 289.359375 L 346.363281 289.289062 L 346.0625 289.21875 L 345.765625 289.15625 L 345.480469 289.09375 L 345.207031 289.039062 L 344.941406 288.984375 L 344.691406 288.933594 L 344.453125 288.890625 L 344.230469 288.847656 L 344.027344 288.8125 L 343.835938 288.777344 L 343.667969 288.75 L 343.519531 288.722656 L 343.390625 288.703125 L 343.28125 288.683594 L 343.199219 288.671875 L 343.140625 288.664062 L 343.109375 288.65625 L 253.796875 199.347656 L 253.832031 199.351562 L 253.890625 199.359375 L 253.972656 199.375 L 254.078125 199.390625 L 254.207031 199.414062 L 254.359375 199.4375 L 254.527344 199.46875 L 254.714844 199.5 L 254.921875 199.539062 L 255.144531 199.578125 L 255.378906 199.625 L 255.632812 199.671875 L 255.894531 199.726562 L 256.171875 199.785156 L 256.457031 199.84375 L 256.75 199.910156 L 257.054688 199.976562 L 257.363281 200.050781 L 257.675781 200.125 L 258.316406 200.289062 L 258.964844 200.46875 L 259.289062 200.5625 L 259.613281 200.664062 L 259.929688 200.765625 L 260.246094 200.871094 L 260.554688 200.980469 L 260.859375 201.09375 L 261.15625 201.210938 L 261.441406 201.332031 Z M 261.71875 201.457031 " fill-opacity="1" fill-rule="evenodd"/><path fill="#38b6ff" d="M 253.796875 199.347656 L 343.109375 288.65625 L 343.085938 288.65625 L 343.070312 288.652344 L 343.011719 288.652344 L 253.699219 199.339844 L 253.738281 199.339844 L 253.75 199.34375 L 253.785156 199.34375 Z M 253.796875 199.347656 " fill-opacity="1" fill-rule="evenodd"/></g></g><g clip-path="url(#8718b79068)"><g clip-path="url(#88622ea887)"><path fill="#38b6ff" d="M 253.699219 199.339844 L 343.011719 288.652344 L 339.074219 288.652344 L 249.761719 199.339844 Z M 253.699219 199.339844 " fill-opacity="1" fill-rule="evenodd"/></g></g><g clip-path="url(#33bfa5ce4e)"><g clip-path="url(#450f2f4a7f)"><path fill="#38b6ff" d="M 249.761719 199.339844 L 339.074219 288.652344 L 338.960938 288.644531 L 338.851562 288.628906 L 338.746094 288.601562 L 338.644531 288.5625 L 338.546875 288.515625 L 338.457031 288.460938 L 338.371094 288.398438 L 338.292969 288.328125 L 248.980469 199.015625 L 249.0625 199.085938 L 249.144531 199.152344 L 249.238281 199.207031 L 249.332031 199.253906 L 249.433594 199.289062 L 249.539062 199.316406 L 249.652344 199.335938 Z M 249.761719 199.339844 " fill-opacity="1" fill-rule="evenodd"/></g></g><g clip-path="url(#5e3f7d5c44)"><g clip-path="url(#aa67a52dcc)"><path fill="#38b6ff" d="M 285.84375 181.667969 L 375.15625 270.980469 L 375.15625 292.042969 L 285.84375 202.730469 Z M 285.84375 181.667969 " fill-opacity="1" fill-rule="evenodd"/></g></g><g clip-path="url(#748c1ae0f5)"><g clip-path="url(#831d8f2ed6)"><path fill="#38b6ff" d="M 281.667969 199.339844 L 370.976562 288.652344 L 367.042969 288.652344 L 277.730469 199.339844 Z M 281.667969 199.339844 " fill-opacity="1" fill-rule="evenodd"/></g></g><g clip-path="url(#3211000be4)"><g clip-path="url(#e9c8647b1e)"><path fill="#38b6ff" d="M 285.109375 203.464844 L 374.421875 292.773438 L 357.96875 292.773438 L 268.65625 203.464844 Z M 285.109375 203.464844 " fill-opacity="1" fill-rule="evenodd"/></g></g><g clip-path="url(#8915eaf294)"><g clip-path="url(#c17f6b8c1d)"><path fill="#38b6ff" d="M 285.628906 181.152344 L 374.941406 270.460938 L 375.027344 270.570312 L 375.097656 270.695312 L 375.140625 270.832031 L 375.15625 270.980469 L 285.84375 181.667969 L 285.828125 181.523438 L 285.785156 181.382812 L 285.71875 181.257812 Z M 285.628906 181.152344 " fill-opacity="1" fill-rule="evenodd"/></g></g><g clip-path="url(#a97ab85816)"><g clip-path="url(#bbf010e4da)"><path fill="#38b6ff" d="M 247.316406 198.234375 L 336.628906 287.546875 L 336.640625 287.796875 L 336.675781 288.039062 L 336.738281 288.273438 L 336.820312 288.496094 L 336.921875 288.710938 L 337.046875 288.914062 L 337.1875 289.101562 L 337.34375 289.273438 L 248.035156 199.964844 L 247.875 199.789062 L 247.734375 199.601562 L 247.613281 199.398438 L 247.507812 199.1875 L 247.425781 198.960938 L 247.367188 198.726562 L 247.328125 198.484375 Z M 247.316406 198.234375 " fill-opacity="1" fill-rule="evenodd"/></g></g><g clip-path="url(#504fbd84cf)"><g clip-path="url(#9a0094ff31)"><path fill="#38b6ff" d="M 246.320312 203.464844 L 335.632812 292.773438 L 335.484375 292.761719 L 335.347656 292.71875 L 335.222656 292.648438 L 335.113281 292.558594 L 245.800781 203.25 L 245.910156 203.339844 L 246.035156 203.40625 L 246.171875 203.449219 Z M 246.320312 203.464844 " fill-opacity="1" fill-rule="evenodd"/></g></g><g clip-path="url(#af2610586c)"><g clip-path="url(#7bb7d09151)"><path fill="#38b6ff" d="M 285.84375 202.730469 L 375.15625 292.042969 L 375.140625 292.191406 L 375.097656 292.328125 L 375.027344 292.453125 L 374.941406 292.558594 L 374.832031 292.648438 L 374.707031 292.71875 L 374.570312 292.761719 L 374.421875 292.773438 L 285.109375 203.464844 L 285.257812 203.449219 L 285.394531 203.40625 L 285.519531 203.339844 L 285.628906 203.25 L 285.71875 203.140625 L 285.785156 203.015625 L 285.828125 202.878906 Z M 285.84375 202.730469 " fill-opacity="1" fill-rule="evenodd"/></g></g><g clip-path="url(#2df966ca9c)"><g clip-path="url(#bb7cb008b2)"><path fill="#38b6ff" d="M 262.773438 203.464844 L 352.085938 292.773438 L 335.632812 292.773438 L 246.320312 203.464844 Z M 262.773438 203.464844 " fill-opacity="1" fill-rule="evenodd"/></g></g><g clip-path="url(#7350f6bb50)"><g clip-path="url(#353a74c427)"><path fill="#38b6ff" d="M 277.707031 178.28125 C 278.976562 178.242188 280.269531 178.304688 281.582031 178.472656 C 282.175781 178.546875 282.773438 178.921875 282.773438 179.582031 L 282.773438 198.234375 C 282.773438 198.84375 282.277344 199.339844 281.667969 199.339844 L 277.730469 199.339844 C 277.699219 199.339844 277.664062 199.34375 277.632812 199.347656 C 277.425781 199.378906 272.605469 200.113281 269.710938 201.453125 C 269.277344 201.65625 268.886719 201.851562 268.53125 202.027344 L 275.515625 196.640625 C 275.714844 196.484375 275.949219 196.347656 276.175781 196.21875 C 276.859375 195.820312 277.707031 195.328125 277.707031 194.179688 Z M 276.367188 175.273438 L 276.367188 194.179688 C 276.367188 194.511719 276.183594 194.664062 275.503906 195.058594 C 275.253906 195.203125 274.964844 195.367188 274.695312 195.578125 L 266.035156 202.257812 L 266.035156 180.609375 L 275.496094 173.890625 C 275.511719 173.875 275.527344 173.871094 275.535156 173.871094 C 275.777344 173.871094 276.367188 174.617188 276.367188 175.273438 Z M 264.691406 180.921875 L 264.691406 202.828125 C 264.398438 202.738281 264.09375 202.609375 263.753906 202.449219 C 263.519531 202.335938 263.269531 202.210938 262.992188 202.074219 C 262.613281 201.886719 262.195312 201.675781 261.71875 201.457031 C 258.828125 200.113281 254.003906 199.378906 253.796875 199.347656 C 253.765625 199.34375 253.730469 199.339844 253.699219 199.339844 L 249.761719 199.339844 C 249.152344 199.339844 248.660156 198.84375 248.660156 198.234375 L 248.660156 179.582031 C 248.660156 178.921875 249.257812 178.546875 249.847656 178.472656 C 250.90625 178.335938 251.960938 178.269531 252.984375 178.269531 C 257.15625 178.269531 260.109375 179.367188 262.265625 180.171875 C 263.261719 180.542969 264.03125 180.828125 264.691406 180.921875 Z M 285.84375 181.667969 L 285.84375 202.730469 C 285.84375 203.136719 285.515625 203.464844 285.109375 203.464844 L 268.65625 203.464844 L 269.035156 203.277344 C 269.40625 203.089844 269.8125 202.886719 270.277344 202.671875 C 272.847656 201.480469 277.273438 200.761719 277.78125 200.683594 L 281.667969 200.683594 C 283.015625 200.683594 284.113281 199.585938 284.113281 198.234375 L 284.113281 180.9375 L 285.109375 180.9375 C 285.515625 180.9375 285.84375 181.265625 285.84375 181.667969 Z M 249.761719 200.683594 L 253.648438 200.683594 C 254.160156 200.761719 258.582031 201.480469 261.15625 202.671875 C 261.617188 202.886719 262.023438 203.089844 262.394531 203.277344 L 262.441406 203.300781 L 262.742188 203.449219 L 262.773438 203.464844 L 246.320312 203.464844 C 245.917969 203.464844 245.585938 203.136719 245.585938 202.730469 L 245.585938 181.667969 C 245.585938 181.265625 245.917969 180.9375 246.320312 180.9375 L 247.316406 180.9375 L 247.316406 198.234375 C 247.316406 199.585938 248.414062 200.683594 249.761719 200.683594 Z M 249.761719 200.683594 " fill-opacity="1" fill-rule="evenodd"/></g></g><path fill="#ffffff" d="M 264.691406 202.828125 L 264.691406 180.921875 C 264.03125 180.828125 263.261719 180.542969 262.265625 180.171875 C 260.109375 179.367188 257.15625 178.269531 252.984375 178.269531 C 251.960938 178.269531 250.90625 178.335938 249.847656 178.472656 C 249.257812 178.546875 248.660156 178.921875 248.660156 179.582031 L 248.660156 180.242188 C 248.660156 180.25 248.660156 180.257812 248.660156 180.265625 L 248.660156 198.234375 C 248.660156 198.84375 249.152344 199.339844 249.761719 199.339844 L 253.699219 199.339844 C 253.730469 199.339844 253.765625 199.34375 253.796875 199.347656 C 254.003906 199.378906 258.828125 200.113281 261.71875 201.457031 C 262.195312 201.675781 262.613281 201.886719 262.992188 202.074219 C 263.269531 202.210938 263.519531 202.335938 263.753906 202.449219 C 264.09375 202.609375 264.398438 202.738281 264.691406 202.828125 Z M 264.691406 202.828125 " fill-opacity="1" fill-rule="evenodd"/><path fill="#ffffff" d="M 253.648438 200.683594 L 249.761719 200.683594 C 248.414062 200.683594 247.316406 199.585938 247.316406 198.234375 L 247.316406 180.9375 L 246.320312 180.9375 C 245.917969 180.9375 245.585938 181.265625 245.585938 181.667969 L 245.585938 202.730469 C 245.585938 203.136719 245.917969 203.464844 246.320312 203.464844 L 262.773438 203.464844 C 262.761719 203.457031 262.75 203.453125 262.742188 203.449219 C 262.644531 203.398438 262.542969 203.351562 262.441406 203.300781 C 262.425781 203.292969 262.410156 203.285156 262.394531 203.273438 C 262.023438 203.089844 261.617188 202.886719 261.15625 202.671875 C 258.582031 201.476562 254.160156 200.761719 253.648438 200.683594 Z M 253.648438 200.683594 " fill-opacity="1" fill-rule="evenodd"/><path fill="#ffffff" d="M 276.175781 196.21875 C 275.949219 196.347656 275.714844 196.484375 275.515625 196.640625 L 268.53125 202.027344 C 268.886719 201.851562 269.277344 201.65625 269.710938 201.453125 C 272.605469 200.113281 277.425781 199.378906 277.632812 199.347656 C 277.664062 199.34375 277.699219 199.339844 277.730469 199.339844 L 281.667969 199.339844 C 282.277344 199.339844 282.773438 198.84375 282.773438 198.234375 L 282.773438 179.582031 C 282.773438 178.921875 282.175781 178.546875 281.582031 178.472656 C 280.269531 178.304688 278.976562 178.242188 277.707031 178.28125 L 277.707031 194.179688 C 277.707031 195.328125 276.859375 195.820312 276.175781 196.21875 Z M 276.175781 196.21875 " fill-opacity="1" fill-rule="evenodd"/><path fill="#ffffff" d="M 274.695312 195.578125 C 274.964844 195.367188 275.253906 195.203125 275.503906 195.058594 C 276.183594 194.664062 276.367188 194.511719 276.367188 194.179688 L 276.367188 175.273438 C 276.367188 174.617188 275.777344 173.871094 275.535156 173.871094 C 275.527344 173.871094 275.511719 173.875 275.496094 173.890625 L 266.035156 180.609375 L 266.035156 202.257812 Z M 274.695312 195.578125 " fill-opacity="1" fill-rule="evenodd"/><path fill="#ffffff" d="M 284.113281 198.234375 C 284.113281 199.585938 283.015625 200.679688 281.667969 200.679688 L 277.785156 200.679688 C 277.273438 200.761719 272.847656 201.480469 270.277344 202.671875 C 269.8125 202.886719 269.40625 203.089844 269.035156 203.273438 L 268.65625 203.464844 L 285.109375 203.464844 C 285.515625 203.464844 285.84375 203.136719 285.84375 202.730469 L 285.84375 181.667969 C 285.84375 181.265625 285.515625 180.933594 285.109375 180.933594 L 284.113281 180.9375 Z M 284.113281 198.234375 " fill-opacity="1" fill-rule="evenodd"/><g fill="#000000" fill-opacity="1"><g transform="translate(82.152818, 272.50878)"><g><path d="M 9.40625 -9.46875 C 9.6875 -8.894531 9.828125 -8.253906 9.828125 -7.546875 C 9.828125 -6.847656 9.6875 -6.21875 9.40625 -5.65625 C 9.125 -5.09375 8.765625 -4.644531 8.328125 -4.3125 C 7.429688 -3.613281 6.5 -3.265625 5.53125 -3.265625 L 3.515625 -3.265625 L 3.515625 -1.4375 C 3.515625 -1.1875 3.503906 -1 3.484375 -0.875 C 3.472656 -0.757812 3.421875 -0.617188 3.328125 -0.453125 C 3.179688 -0.160156 2.765625 -0.015625 2.078125 -0.015625 C 1.316406 -0.015625 0.875 -0.210938 0.75 -0.609375 C 0.675781 -0.796875 0.640625 -1.078125 0.640625 -1.453125 L 0.640625 -10.4375 C 0.640625 -10.6875 0.648438 -10.875 0.671875 -11 C 0.691406 -11.125 0.742188 -11.265625 0.828125 -11.421875 C 0.972656 -11.710938 1.394531 -11.859375 2.09375 -11.859375 L 5.546875 -11.859375 C 6.503906 -11.859375 7.429688 -11.515625 8.328125 -10.828125 C 8.765625 -10.492188 9.125 -10.039062 9.40625 -9.46875 Z M 5.546875 -6.140625 C 5.867188 -6.140625 6.1875 -6.253906 6.5 -6.484375 C 6.820312 -6.722656 6.984375 -7.078125 6.984375 -7.546875 C 6.984375 -8.023438 6.820312 -8.382812 6.5 -8.625 C 6.1875 -8.875 5.863281 -9 5.53125 -9 L 3.515625 -9 L 3.515625 -6.140625 Z M 5.546875 -6.140625 "/></g></g></g><g fill="#000000" fill-opacity="1"><g transform="translate(92.38833, 272.50878)"><g><path d="M 9.734375 -2 C 9.890625 -1.613281 9.96875 -1.335938 9.96875 -1.171875 C 9.96875 -0.753906 9.632812 -0.40625 8.96875 -0.125 C 8.625 0.0195312 8.34375 0.09375 8.125 0.09375 C 7.914062 0.09375 7.742188 0.046875 7.609375 -0.046875 C 7.472656 -0.148438 7.375 -0.257812 7.3125 -0.375 C 7.207031 -0.582031 6.785156 -1.554688 6.046875 -3.296875 L 5.546875 -3.265625 L 3.515625 -3.265625 L 3.515625 -1.4375 C 3.515625 -1.1875 3.503906 -1 3.484375 -0.875 C 3.472656 -0.757812 3.421875 -0.617188 3.328125 -0.453125 C 3.179688 -0.160156 2.765625 -0.015625 2.078125 -0.015625 C 1.316406 -0.015625 0.875 -0.210938 0.75 -0.609375 C 0.675781 -0.796875 0.640625 -1.078125 0.640625 -1.453125 L 0.640625 -10.4375 C 0.640625 -10.6875 0.648438 -10.875 0.671875 -11 C 0.691406 -11.125 0.742188 -11.265625 0.828125 -11.421875 C 0.972656 -11.710938 1.394531 -11.859375 2.09375 -11.859375 L 5.578125 -11.859375 C 6.535156 -11.859375 7.460938 -11.515625 8.359375 -10.828125 C 8.785156 -10.492188 9.140625 -10.039062 9.421875 -9.46875 C 9.703125 -8.894531 9.84375 -8.257812 9.84375 -7.5625 C 9.84375 -6.34375 9.4375 -5.335938 8.625 -4.546875 C 8.863281 -3.972656 9.234375 -3.125 9.734375 -2 Z M 3.515625 -6.140625 L 5.578125 -6.140625 C 5.890625 -6.140625 6.203125 -6.253906 6.515625 -6.484375 C 6.835938 -6.722656 7 -7.078125 7 -7.546875 C 7 -8.023438 6.835938 -8.382812 6.515625 -8.625 C 6.203125 -8.875 5.878906 -9 5.546875 -9 L 3.515625 -9 Z M 3.515625 -6.140625 "/></g></g></g><g fill="#000000" fill-opacity="1"><g transform="translate(102.607635, 272.50878)"><g><path d="M 6.21875 -12.015625 C 7.8125 -12.015625 9.195312 -11.4375 10.375 -10.28125 C 11.550781 -9.125 12.140625 -7.691406 12.140625 -5.984375 C 12.140625 -4.273438 11.578125 -2.816406 10.453125 -1.609375 C 9.335938 -0.410156 7.957031 0.1875 6.3125 0.1875 C 4.675781 0.1875 3.28125 -0.398438 2.125 -1.578125 C 0.976562 -2.765625 0.40625 -4.179688 0.40625 -5.828125 C 0.40625 -6.722656 0.566406 -7.5625 0.890625 -8.34375 C 1.210938 -9.125 1.644531 -9.78125 2.1875 -10.3125 C 2.726562 -10.84375 3.347656 -11.257812 4.046875 -11.5625 C 4.742188 -11.863281 5.46875 -12.015625 6.21875 -12.015625 Z M 3.265625 -5.90625 C 3.265625 -4.945312 3.570312 -4.164062 4.1875 -3.5625 C 4.8125 -2.96875 5.507812 -2.671875 6.28125 -2.671875 C 7.050781 -2.671875 7.742188 -2.960938 8.359375 -3.546875 C 8.972656 -4.128906 9.28125 -4.910156 9.28125 -5.890625 C 9.28125 -6.867188 8.96875 -7.65625 8.34375 -8.25 C 7.71875 -8.84375 7.019531 -9.140625 6.25 -9.140625 C 5.488281 -9.140625 4.800781 -8.835938 4.1875 -8.234375 C 3.570312 -7.640625 3.265625 -6.863281 3.265625 -5.90625 Z M 3.265625 -5.90625 "/></g></g></g><g fill="#000000" fill-opacity="1"><g transform="translate(115.159079, 272.50878)"><g><path d="M 2.09375 -11.875 L 5.078125 -11.859375 C 6.648438 -11.859375 8.023438 -11.296875 9.203125 -10.171875 C 10.390625 -9.046875 10.984375 -7.660156 10.984375 -6.015625 C 10.984375 -4.367188 10.40625 -2.957031 9.25 -1.78125 C 8.09375 -0.601562 6.6875 -0.015625 5.03125 -0.015625 L 2.078125 -0.015625 C 1.410156 -0.015625 1 -0.148438 0.84375 -0.421875 C 0.707031 -0.648438 0.640625 -0.992188 0.640625 -1.453125 L 0.640625 -10.453125 C 0.640625 -10.710938 0.648438 -10.898438 0.671875 -11.015625 C 0.691406 -11.140625 0.742188 -11.28125 0.828125 -11.4375 C 0.972656 -11.726562 1.394531 -11.875 2.09375 -11.875 Z M 5.078125 -2.875 C 5.859375 -2.875 6.5625 -3.160156 7.1875 -3.734375 C 7.8125 -4.316406 8.125 -5.046875 8.125 -5.921875 C 8.125 -6.796875 7.816406 -7.523438 7.203125 -8.109375 C 6.597656 -8.703125 5.882812 -9 5.0625 -9 L 3.515625 -9 L 3.515625 -2.875 Z M 5.078125 -2.875 "/></g></g></g><g fill="#000000" fill-opacity="1"><g transform="translate(126.560651, 272.50878)"><g><path d="M 8.390625 -11.421875 C 8.503906 -11.597656 8.660156 -11.71875 8.859375 -11.78125 C 9.066406 -11.84375 9.320312 -11.875 9.625 -11.875 C 9.9375 -11.875 10.1875 -11.847656 10.375 -11.796875 C 10.5625 -11.742188 10.703125 -11.679688 10.796875 -11.609375 C 10.890625 -11.535156 10.957031 -11.421875 11 -11.265625 C 11.070312 -11.078125 11.109375 -10.796875 11.109375 -10.421875 L 11.109375 -5.53125 C 11.109375 -4.113281 10.664062 -2.820312 9.78125 -1.65625 C 9.34375 -1.101562 8.785156 -0.65625 8.109375 -0.3125 C 7.429688 0.0195312 6.675781 0.1875 5.84375 0.1875 C 5.019531 0.1875 4.269531 0.015625 3.59375 -0.328125 C 2.925781 -0.671875 2.378906 -1.125 1.953125 -1.6875 C 1.078125 -2.832031 0.640625 -4.125 0.640625 -5.5625 L 0.640625 -10.4375 C 0.640625 -10.695312 0.648438 -10.890625 0.671875 -11.015625 C 0.691406 -11.140625 0.742188 -11.28125 0.828125 -11.4375 C 0.910156 -11.601562 1.050781 -11.71875 1.25 -11.78125 C 1.457031 -11.84375 1.734375 -11.875 2.078125 -11.875 C 2.429688 -11.875 2.707031 -11.84375 2.90625 -11.78125 C 3.113281 -11.71875 3.253906 -11.601562 3.328125 -11.4375 C 3.460938 -11.195312 3.53125 -10.859375 3.53125 -10.421875 L 3.53125 -5.5625 C 3.53125 -4.90625 3.691406 -4.28125 4.015625 -3.6875 C 4.171875 -3.382812 4.410156 -3.140625 4.734375 -2.953125 C 5.066406 -2.773438 5.453125 -2.6875 5.890625 -2.6875 C 6.679688 -2.6875 7.269531 -2.976562 7.65625 -3.5625 C 8.039062 -4.144531 8.234375 -4.816406 8.234375 -5.578125 L 8.234375 -10.53125 C 8.234375 -10.957031 8.285156 -11.253906 8.390625 -11.421875 Z M 8.390625 -11.421875 "/></g></g></g><g fill="#000000" fill-opacity="1"><g transform="translate(138.318529, 272.50878)"><g><path d="M 8.0625 -3.109375 L 8.359375 -3.3125 C 8.722656 -3.53125 8.976562 -3.640625 9.125 -3.640625 C 9.457031 -3.640625 9.820312 -3.335938 10.21875 -2.734375 C 10.457031 -2.359375 10.578125 -2.054688 10.578125 -1.828125 C 10.578125 -1.597656 10.503906 -1.40625 10.359375 -1.25 C 10.210938 -1.101562 10.039062 -0.972656 9.84375 -0.859375 C 9.644531 -0.742188 9.457031 -0.628906 9.28125 -0.515625 C 9.101562 -0.410156 8.738281 -0.269531 8.1875 -0.09375 C 7.632812 0.0703125 7.101562 0.15625 6.59375 0.15625 C 6.082031 0.15625 5.5625 0.0859375 5.03125 -0.046875 C 4.507812 -0.179688 3.972656 -0.40625 3.421875 -0.71875 C 2.867188 -1.039062 2.367188 -1.429688 1.921875 -1.890625 C 1.484375 -2.347656 1.117188 -2.9375 0.828125 -3.65625 C 0.546875 -4.375 0.40625 -5.148438 0.40625 -5.984375 C 0.40625 -6.828125 0.546875 -7.59375 0.828125 -8.28125 C 1.109375 -8.96875 1.46875 -9.535156 1.90625 -9.984375 C 2.34375 -10.429688 2.84375 -10.804688 3.40625 -11.109375 C 4.457031 -11.691406 5.519531 -11.984375 6.59375 -11.984375 C 7.09375 -11.984375 7.601562 -11.90625 8.125 -11.75 C 8.65625 -11.59375 9.054688 -11.429688 9.328125 -11.265625 L 9.71875 -11.046875 C 9.90625 -10.921875 10.054688 -10.820312 10.171875 -10.75 C 10.453125 -10.519531 10.59375 -10.257812 10.59375 -9.96875 C 10.59375 -9.6875 10.476562 -9.390625 10.25 -9.078125 C 9.820312 -8.492188 9.441406 -8.203125 9.109375 -8.203125 C 8.921875 -8.203125 8.644531 -8.320312 8.28125 -8.5625 C 7.832031 -8.925781 7.226562 -9.109375 6.46875 -9.109375 C 5.769531 -9.109375 5.082031 -8.867188 4.40625 -8.390625 C 4.082031 -8.148438 3.8125 -7.8125 3.59375 -7.375 C 3.375 -6.945312 3.265625 -6.457031 3.265625 -5.90625 C 3.265625 -5.363281 3.375 -4.875 3.59375 -4.4375 C 3.8125 -4.007812 4.085938 -3.675781 4.421875 -3.4375 C 5.078125 -2.957031 5.757812 -2.71875 6.46875 -2.71875 C 6.8125 -2.71875 7.128906 -2.757812 7.421875 -2.84375 C 7.710938 -2.9375 7.925781 -3.023438 8.0625 -3.109375 Z M 8.0625 -3.109375 "/></g></g></g><g fill="#000000" fill-opacity="1"><g transform="translate(149.315214, 272.50878)"><g><path d="M 1.421875 -11.875 L 10.421875 -11.875 C 10.765625 -11.875 11.015625 -11.832031 11.171875 -11.75 C 11.335938 -11.675781 11.445312 -11.550781 11.5 -11.375 C 11.5625 -11.207031 11.59375 -10.984375 11.59375 -10.703125 C 11.59375 -10.421875 11.5625 -10.195312 11.5 -10.03125 C 11.445312 -9.863281 11.359375 -9.75 11.234375 -9.6875 C 11.035156 -9.582031 10.757812 -9.53125 10.40625 -9.53125 L 7.3125 -9.53125 L 7.3125 -1.390625 C 7.3125 -1.140625 7.300781 -0.953125 7.28125 -0.828125 C 7.269531 -0.710938 7.222656 -0.578125 7.140625 -0.421875 C 7.066406 -0.265625 6.925781 -0.15625 6.71875 -0.09375 C 6.507812 -0.03125 6.238281 0 5.90625 0 C 5.570312 0 5.304688 -0.03125 5.109375 -0.09375 C 4.910156 -0.15625 4.769531 -0.265625 4.6875 -0.421875 C 4.601562 -0.578125 4.550781 -0.71875 4.53125 -0.84375 C 4.519531 -0.96875 4.515625 -1.15625 4.515625 -1.40625 L 4.515625 -9.53125 L 1.40625 -9.53125 C 1.0625 -9.53125 0.804688 -9.570312 0.640625 -9.65625 C 0.484375 -9.738281 0.378906 -9.863281 0.328125 -10.03125 C 0.273438 -10.207031 0.25 -10.4375 0.25 -10.71875 C 0.25 -11 0.273438 -11.222656 0.328125 -11.390625 C 0.378906 -11.554688 0.46875 -11.671875 0.59375 -11.734375 C 0.789062 -11.828125 1.066406 -11.875 1.421875 -11.875 Z M 1.421875 -11.875 "/></g></g></g><g fill="#000000" fill-opacity="1"><g transform="translate(161.154065, 272.50878)"><g><path d="M 0.828125 -1.671875 C 0.546875 -2.015625 0.40625 -2.320312 0.40625 -2.59375 C 0.40625 -2.875 0.632812 -3.238281 1.09375 -3.6875 C 1.363281 -3.945312 1.648438 -4.078125 1.953125 -4.078125 C 2.253906 -4.078125 2.675781 -3.804688 3.21875 -3.265625 C 3.375 -3.085938 3.59375 -2.914062 3.875 -2.75 C 4.15625 -2.582031 4.410156 -2.5 4.640625 -2.5 C 5.648438 -2.5 6.15625 -2.90625 6.15625 -3.71875 C 6.15625 -3.96875 6.015625 -4.175781 5.734375 -4.34375 C 5.460938 -4.507812 5.117188 -4.628906 4.703125 -4.703125 C 4.296875 -4.785156 3.851562 -4.910156 3.375 -5.078125 C 2.90625 -5.242188 2.460938 -5.4375 2.046875 -5.65625 C 1.640625 -5.882812 1.296875 -6.242188 1.015625 -6.734375 C 0.742188 -7.234375 0.609375 -7.828125 0.609375 -8.515625 C 0.609375 -9.460938 0.960938 -10.289062 1.671875 -11 C 2.378906 -11.707031 3.34375 -12.0625 4.5625 -12.0625 C 5.207031 -12.0625 5.796875 -11.976562 6.328125 -11.8125 C 6.867188 -11.644531 7.242188 -11.472656 7.453125 -11.296875 L 7.84375 -10.984375 C 8.1875 -10.671875 8.359375 -10.40625 8.359375 -10.1875 C 8.359375 -9.976562 8.226562 -9.6875 7.96875 -9.3125 C 7.59375 -8.769531 7.210938 -8.5 6.828125 -8.5 C 6.597656 -8.5 6.316406 -8.609375 5.984375 -8.828125 C 5.953125 -8.847656 5.890625 -8.898438 5.796875 -8.984375 C 5.710938 -9.066406 5.628906 -9.132812 5.546875 -9.1875 C 5.328125 -9.332031 5.039062 -9.40625 4.6875 -9.40625 C 4.332031 -9.40625 4.039062 -9.320312 3.8125 -9.15625 C 3.582031 -8.988281 3.46875 -8.753906 3.46875 -8.453125 C 3.46875 -8.160156 3.601562 -7.921875 3.875 -7.734375 C 4.15625 -7.554688 4.5 -7.429688 4.90625 -7.359375 C 5.3125 -7.296875 5.757812 -7.195312 6.25 -7.0625 C 6.738281 -6.925781 7.1875 -6.757812 7.59375 -6.5625 C 8 -6.375 8.335938 -6.039062 8.609375 -5.5625 C 8.890625 -5.082031 9.03125 -4.488281 9.03125 -3.78125 C 9.03125 -3.082031 8.890625 -2.46875 8.609375 -1.9375 C 8.328125 -1.40625 7.960938 -0.992188 7.515625 -0.703125 C 6.640625 -0.128906 5.703125 0.15625 4.703125 0.15625 C 4.203125 0.15625 3.722656 0.0976562 3.265625 -0.015625 C 2.816406 -0.140625 2.453125 -0.296875 2.171875 -0.484375 C 1.597656 -0.828125 1.195312 -1.160156 0.96875 -1.484375 Z M 0.828125 -1.671875 "/></g></g></g><g fill="#ffffff" fill-opacity="1"><g transform="translate(268.298793, 270.146912)"><g><path d="M 6.4375 0 L 0.96875 0 L 0.96875 -8.5 L 6.4375 -8.5 L 6.4375 -7.59375 L 1.9375 -7.59375 L 1.9375 -4.734375 L 6.1875 -4.734375 L 6.1875 -3.828125 L 1.9375 -3.828125 L 1.9375 -0.90625 L 6.4375 -0.90625 Z M 6.4375 0 "/></g></g></g><g fill="#ffffff" fill-opacity="1"><g transform="translate(275.404503, 270.146912)"><g><path d="M 3.765625 0.125 C 3.117188 0.125 2.550781 0.00390625 2.0625 -0.234375 C 1.570312 -0.472656 1.195312 -0.789062 0.9375 -1.1875 C 0.675781 -1.582031 0.546875 -2.015625 0.546875 -2.484375 L 1.515625 -2.484375 C 1.515625 -2.179688 1.601562 -1.898438 1.78125 -1.640625 C 1.957031 -1.378906 2.210938 -1.171875 2.546875 -1.015625 C 2.890625 -0.867188 3.296875 -0.796875 3.765625 -0.796875 C 4.484375 -0.796875 5.015625 -0.929688 5.359375 -1.203125 C 5.710938 -1.484375 5.890625 -1.851562 5.890625 -2.3125 C 5.890625 -2.675781 5.765625 -2.972656 5.515625 -3.203125 C 5.273438 -3.441406 4.914062 -3.609375 4.4375 -3.703125 L 2.796875 -4 C 1.421875 -4.257812 0.734375 -4.988281 0.734375 -6.1875 C 0.734375 -6.65625 0.847656 -7.070312 1.078125 -7.4375 C 1.316406 -7.800781 1.65625 -8.085938 2.09375 -8.296875 C 2.53125 -8.515625 3.046875 -8.625 3.640625 -8.625 C 4.273438 -8.625 4.828125 -8.503906 5.296875 -8.265625 C 5.773438 -8.035156 6.144531 -7.722656 6.40625 -7.328125 C 6.664062 -6.929688 6.796875 -6.492188 6.796875 -6.015625 L 5.828125 -6.015625 C 5.828125 -6.316406 5.738281 -6.597656 5.5625 -6.859375 C 5.394531 -7.117188 5.144531 -7.320312 4.8125 -7.46875 C 4.488281 -7.625 4.097656 -7.703125 3.640625 -7.703125 C 3.023438 -7.703125 2.546875 -7.5625 2.203125 -7.28125 C 1.867188 -7 1.703125 -6.632812 1.703125 -6.1875 C 1.703125 -5.851562 1.816406 -5.566406 2.046875 -5.328125 C 2.273438 -5.097656 2.625 -4.941406 3.09375 -4.859375 L 4.4375 -4.609375 C 5.269531 -4.453125 5.878906 -4.1875 6.265625 -3.8125 C 6.660156 -3.445312 6.859375 -2.945312 6.859375 -2.3125 C 6.859375 -1.84375 6.738281 -1.421875 6.5 -1.046875 C 6.257812 -0.679688 5.90625 -0.394531 5.4375 -0.1875 C 4.96875 0.0195312 4.410156 0.125 3.765625 0.125 Z M 3.765625 0.125 "/></g></g></g><g fill="#ffffff" fill-opacity="1"><g transform="translate(282.874607, 270.146912)"><g><path d="M 4.0625 0 L 3.09375 0 L 3.09375 -7.59375 L 0.296875 -7.59375 L 0.296875 -8.5 L 6.859375 -8.5 L 6.859375 -7.59375 L 4.0625 -7.59375 Z M 4.0625 0 "/></g></g></g><g fill="#ffffff" fill-opacity="1"><g transform="translate(290.041048, 270.146912)"><g><path d="M 0.96875 0 L 0.96875 -8.5 L 3.828125 -8.5 C 4.597656 -8.5 5.289062 -8.316406 5.90625 -7.953125 C 6.53125 -7.597656 7.015625 -7.09375 7.359375 -6.4375 C 7.710938 -5.789062 7.890625 -5.0625 7.890625 -4.25 C 7.890625 -3.425781 7.710938 -2.691406 7.359375 -2.046875 C 7.015625 -1.398438 6.53125 -0.894531 5.90625 -0.53125 C 5.289062 -0.175781 4.597656 0 3.828125 0 Z M 3.828125 -0.90625 C 4.410156 -0.90625 4.9375 -1.046875 5.40625 -1.328125 C 5.875 -1.609375 6.242188 -2 6.515625 -2.5 C 6.785156 -3.007812 6.921875 -3.59375 6.921875 -4.25 C 6.921875 -4.90625 6.785156 -5.484375 6.515625 -5.984375 C 6.242188 -6.492188 5.875 -6.890625 5.40625 -7.171875 C 4.9375 -7.453125 4.410156 -7.59375 3.828125 -7.59375 L 1.9375 -7.59375 L 1.9375 -0.90625 Z M 3.828125 -0.90625 "/></g></g></g><g fill="#ffffff" fill-opacity="1"><g transform="translate(298.543602, 270.146912)"><g><path d="M 1.828125 0 L 0.734375 0 L 0.734375 -1.09375 L 1.828125 -1.09375 Z M 1.828125 0 "/></g></g></g><g fill="#ffffff" fill-opacity="1"><g transform="translate(301.094372, 270.146912)"><g/></g></g><g fill="#ffffff" fill-opacity="1"><g transform="translate(303.888075, 270.146912)"><g><path d="M 0.671875 0 L 0.671875 -0.796875 L 4.125 -4.484375 C 4.382812 -4.765625 4.570312 -5.019531 4.6875 -5.25 C 4.800781 -5.476562 4.859375 -5.75 4.859375 -6.0625 C 4.859375 -6.550781 4.707031 -6.945312 4.40625 -7.25 C 4.101562 -7.550781 3.707031 -7.703125 3.21875 -7.703125 C 2.914062 -7.703125 2.640625 -7.625 2.390625 -7.46875 C 2.140625 -7.320312 1.941406 -7.109375 1.796875 -6.828125 C 1.648438 -6.554688 1.578125 -6.242188 1.578125 -5.890625 L 0.609375 -5.890625 C 0.609375 -6.410156 0.71875 -6.878906 0.9375 -7.296875 C 1.164062 -7.710938 1.476562 -8.035156 1.875 -8.265625 C 2.269531 -8.503906 2.71875 -8.625 3.21875 -8.625 C 3.71875 -8.625 4.164062 -8.515625 4.5625 -8.296875 C 4.957031 -8.078125 5.265625 -7.773438 5.484375 -7.390625 C 5.710938 -7.015625 5.828125 -6.570312 5.828125 -6.0625 C 5.828125 -5.59375 5.738281 -5.191406 5.5625 -4.859375 C 5.394531 -4.523438 5.140625 -4.179688 4.796875 -3.828125 L 2.0625 -0.96875 L 2.0625 -0.90625 L 6.015625 -0.90625 L 6.015625 0 Z M 0.671875 0 "/></g></g></g><g fill="#ffffff" fill-opacity="1"><g transform="translate(310.386458, 270.146912)"><g><path d="M 3.953125 0.125 C 3.347656 0.125 2.796875 -0.0390625 2.296875 -0.375 C 1.796875 -0.71875 1.398438 -1.21875 1.109375 -1.875 C 0.816406 -2.539062 0.671875 -3.332031 0.671875 -4.25 C 0.671875 -5.164062 0.816406 -5.953125 1.109375 -6.609375 C 1.398438 -7.265625 1.796875 -7.765625 2.296875 -8.109375 C 2.796875 -8.453125 3.347656 -8.625 3.953125 -8.625 C 4.546875 -8.625 5.09375 -8.453125 5.59375 -8.109375 C 6.09375 -7.765625 6.488281 -7.265625 6.78125 -6.609375 C 7.070312 -5.953125 7.21875 -5.164062 7.21875 -4.25 C 7.21875 -3.332031 7.070312 -2.539062 6.78125 -1.875 C 6.488281 -1.21875 6.09375 -0.71875 5.59375 -0.375 C 5.09375 -0.0390625 4.546875 0.125 3.953125 0.125 Z M 3.953125 -0.796875 C 4.359375 -0.796875 4.738281 -0.925781 5.09375 -1.1875 C 5.445312 -1.445312 5.726562 -1.835938 5.9375 -2.359375 C 6.144531 -2.878906 6.25 -3.507812 6.25 -4.25 C 6.25 -4.988281 6.144531 -5.617188 5.9375 -6.140625 C 5.726562 -6.660156 5.445312 -7.050781 5.09375 -7.3125 C 4.738281 -7.570312 4.359375 -7.703125 3.953125 -7.703125 C 3.535156 -7.703125 3.148438 -7.570312 2.796875 -7.3125 C 2.441406 -7.050781 2.160156 -6.660156 1.953125 -6.140625 C 1.742188 -5.617188 1.640625 -4.988281 1.640625 -4.25 C 1.640625 -3.507812 1.742188 -2.878906 1.953125 -2.359375 C 2.160156 -1.835938 2.441406 -1.445312 2.796875 -1.1875 C 3.148438 -0.925781 3.535156 -0.796875 3.953125 -0.796875 Z M 3.953125 -0.796875 "/></g></g></g><g fill="#ffffff" fill-opacity="1"><g transform="translate(318.281685, 270.146912)"><g><path d="M 0.671875 0 L 0.671875 -0.796875 L 4.125 -4.484375 C 4.382812 -4.765625 4.570312 -5.019531 4.6875 -5.25 C 4.800781 -5.476562 4.859375 -5.75 4.859375 -6.0625 C 4.859375 -6.550781 4.707031 -6.945312 4.40625 -7.25 C 4.101562 -7.550781 3.707031 -7.703125 3.21875 -7.703125 C 2.914062 -7.703125 2.640625 -7.625 2.390625 -7.46875 C 2.140625 -7.320312 1.941406 -7.109375 1.796875 -6.828125 C 1.648438 -6.554688 1.578125 -6.242188 1.578125 -5.890625 L 0.609375 -5.890625 C 0.609375 -6.410156 0.71875 -6.878906 0.9375 -7.296875 C 1.164062 -7.710938 1.476562 -8.035156 1.875 -8.265625 C 2.269531 -8.503906 2.71875 -8.625 3.21875 -8.625 C 3.71875 -8.625 4.164062 -8.515625 4.5625 -8.296875 C 4.957031 -8.078125 5.265625 -7.773438 5.484375 -7.390625 C 5.710938 -7.015625 5.828125 -6.570312 5.828125 -6.0625 C 5.828125 -5.59375 5.738281 -5.191406 5.5625 -4.859375 C 5.394531 -4.523438 5.140625 -4.179688 4.796875 -3.828125 L 2.0625 -0.96875 L 2.0625 -0.90625 L 6.015625 -0.90625 L 6.015625 0 Z M 0.671875 0 "/></g></g></g><g fill="#ffffff" fill-opacity="1"><g transform="translate(324.780068, 270.146912)"><g><path d="M 5.15625 0 L 4.1875 0 L 4.1875 -1.9375 L 0.25 -1.9375 L 0.25 -2.671875 L 3.578125 -8.5 L 5.15625 -8.5 L 5.15625 -2.796875 L 6.25 -2.796875 L 6.25 -1.9375 L 5.15625 -1.9375 Z M 1.453125 -2.859375 L 1.453125 -2.796875 L 4.1875 -2.796875 L 4.1875 -7.21875 L 3.953125 -7.21875 Z M 1.453125 -2.859375 "/></g></g></g><g fill="#000000" fill-opacity="1"><g transform="translate(143.814487, 132.89801)"><g><path d="M 2.09375 -11.875 L 5.078125 -11.859375 C 6.648438 -11.859375 8.023438 -11.296875 9.203125 -10.171875 C 10.390625 -9.046875 10.984375 -7.660156 10.984375 -6.015625 C 10.984375 -4.367188 10.40625 -2.957031 9.25 -1.78125 C 8.09375 -0.601562 6.6875 -0.015625 5.03125 -0.015625 L 2.078125 -0.015625 C 1.410156 -0.015625 1 -0.148438 0.84375 -0.421875 C 0.707031 -0.648438 0.640625 -0.992188 0.640625 -1.453125 L 0.640625 -10.453125 C 0.640625 -10.710938 0.648438 -10.898438 0.671875 -11.015625 C 0.691406 -11.140625 0.742188 -11.28125 0.828125 -11.4375 C 0.972656 -11.726562 1.394531 -11.875 2.09375 -11.875 Z M 5.078125 -2.875 C 5.859375 -2.875 6.5625 -3.160156 7.1875 -3.734375 C 7.8125 -4.316406 8.125 -5.046875 8.125 -5.921875 C 8.125 -6.796875 7.816406 -7.523438 7.203125 -8.109375 C 6.597656 -8.703125 5.882812 -9 5.0625 -9 L 3.515625 -9 L 3.515625 -2.875 Z M 5.078125 -2.875 "/></g></g></g><g fill="#000000" fill-opacity="1"><g transform="translate(155.216059, 132.89801)"><g><path d="M 0.640625 -10.4375 C 0.640625 -10.6875 0.648438 -10.875 0.671875 -11 C 0.691406 -11.125 0.742188 -11.265625 0.828125 -11.421875 C 0.972656 -11.710938 1.394531 -11.859375 2.09375 -11.859375 C 2.84375 -11.859375 3.289062 -11.660156 3.4375 -11.265625 C 3.488281 -11.078125 3.515625 -10.796875 3.515625 -10.421875 L 3.515625 -1.421875 C 3.515625 -1.160156 3.503906 -0.972656 3.484375 -0.859375 C 3.472656 -0.742188 3.421875 -0.601562 3.328125 -0.4375 C 3.179688 -0.144531 2.765625 0 2.078125 0 C 1.316406 0 0.875 -0.203125 0.75 -0.609375 C 0.675781 -0.785156 0.640625 -1.0625 0.640625 -1.4375 Z M 0.640625 -10.4375 "/></g></g></g><g fill="#000000" fill-opacity="1"><g transform="translate(159.378271, 132.89801)"><g><path d="M 6.828125 -7.15625 L 9.6875 -7.15625 C 10.257812 -7.132812 10.613281 -6.984375 10.75 -6.703125 C 10.851562 -6.492188 10.90625 -6.191406 10.90625 -5.796875 L 10.90625 -2.234375 C 10.90625 -1.890625 10.753906 -1.5625 10.453125 -1.25 C 9.546875 -0.3125 8.1875 0.15625 6.375 0.15625 C 4.769531 0.15625 3.375 -0.445312 2.1875 -1.65625 C 1 -2.875 0.40625 -4.335938 0.40625 -6.046875 C 0.40625 -7.765625 1.007812 -9.195312 2.21875 -10.34375 C 3.425781 -11.5 4.847656 -12.078125 6.484375 -12.078125 C 7.765625 -12.078125 8.96875 -11.65625 10.09375 -10.8125 C 10.382812 -10.59375 10.53125 -10.351562 10.53125 -10.09375 C 10.53125 -9.832031 10.410156 -9.523438 10.171875 -9.171875 C 9.742188 -8.609375 9.359375 -8.328125 9.015625 -8.328125 C 8.804688 -8.328125 8.472656 -8.472656 8.015625 -8.765625 C 7.566406 -9.054688 7.03125 -9.203125 6.40625 -9.203125 C 5.59375 -9.203125 4.863281 -8.914062 4.21875 -8.34375 C 3.582031 -7.769531 3.265625 -7.015625 3.265625 -6.078125 C 3.265625 -5.140625 3.585938 -4.34375 4.234375 -3.6875 C 4.890625 -3.039062 5.625 -2.71875 6.4375 -2.71875 C 7.03125 -2.71875 7.566406 -2.816406 8.046875 -3.015625 L 8.046875 -4.78125 L 6.765625 -4.78125 C 6.429688 -4.78125 6.191406 -4.820312 6.046875 -4.90625 C 5.910156 -4.988281 5.820312 -5.113281 5.78125 -5.28125 C 5.738281 -5.445312 5.71875 -5.671875 5.71875 -5.953125 C 5.71875 -6.242188 5.738281 -6.472656 5.78125 -6.640625 C 5.832031 -6.816406 5.921875 -6.941406 6.046875 -7.015625 C 6.242188 -7.109375 6.503906 -7.15625 6.828125 -7.15625 Z M 6.828125 -7.15625 "/></g></g></g><g fill="#000000" fill-opacity="1"><g transform="translate(170.941789, 132.89801)"><g><path d="M 0.640625 -10.4375 C 0.640625 -10.6875 0.648438 -10.875 0.671875 -11 C 0.691406 -11.125 0.742188 -11.265625 0.828125 -11.421875 C 0.972656 -11.710938 1.394531 -11.859375 2.09375 -11.859375 C 2.84375 -11.859375 3.289062 -11.660156 3.4375 -11.265625 C 3.488281 -11.078125 3.515625 -10.796875 3.515625 -10.421875 L 3.515625 -1.421875 C 3.515625 -1.160156 3.503906 -0.972656 3.484375 -0.859375 C 3.472656 -0.742188 3.421875 -0.601562 3.328125 -0.4375 C 3.179688 -0.144531 2.765625 0 2.078125 0 C 1.316406 0 0.875 -0.203125 0.75 -0.609375 C 0.675781 -0.785156 0.640625 -1.0625 0.640625 -1.4375 Z M 0.640625 -10.4375 "/></g></g></g><g fill="#000000" fill-opacity="1"><g transform="translate(175.104001, 132.89801)"><g><path d="M 1.421875 -11.875 L 10.421875 -11.875 C 10.765625 -11.875 11.015625 -11.832031 11.171875 -11.75 C 11.335938 -11.675781 11.445312 -11.550781 11.5 -11.375 C 11.5625 -11.207031 11.59375 -10.984375 11.59375 -10.703125 C 11.59375 -10.421875 11.5625 -10.195312 11.5 -10.03125 C 11.445312 -9.863281 11.359375 -9.75 11.234375 -9.6875 C 11.035156 -9.582031 10.757812 -9.53125 10.40625 -9.53125 L 7.3125 -9.53125 L 7.3125 -1.390625 C 7.3125 -1.140625 7.300781 -0.953125 7.28125 -0.828125 C 7.269531 -0.710938 7.222656 -0.578125 7.140625 -0.421875 C 7.066406 -0.265625 6.925781 -0.15625 6.71875 -0.09375 C 6.507812 -0.03125 6.238281 0 5.90625 0 C 5.570312 0 5.304688 -0.03125 5.109375 -0.09375 C 4.910156 -0.15625 4.769531 -0.265625 4.6875 -0.421875 C 4.601562 -0.578125 4.550781 -0.71875 4.53125 -0.84375 C 4.519531 -0.96875 4.515625 -1.15625 4.515625 -1.40625 L 4.515625 -9.53125 L 1.40625 -9.53125 C 1.0625 -9.53125 0.804688 -9.570312 0.640625 -9.65625 C 0.484375 -9.738281 0.378906 -9.863281 0.328125 -10.03125 C 0.273438 -10.207031 0.25 -10.4375 0.25 -10.71875 C 0.25 -11 0.273438 -11.222656 0.328125 -11.390625 C 0.378906 -11.554688 0.46875 -11.671875 0.59375 -11.734375 C 0.789062 -11.828125 1.066406 -11.875 1.421875 -11.875 Z M 1.421875 -11.875 "/></g></g></g><g fill="#000000" fill-opacity="1"><g transform="translate(186.942853, 132.89801)"><g><path d="M 7.5 -11.03125 L 11.859375 -1.984375 C 12.046875 -1.617188 12.140625 -1.347656 12.140625 -1.171875 C 12.140625 -0.773438 11.828125 -0.421875 11.203125 -0.109375 C 10.835938 0.0664062 10.546875 0.15625 10.328125 0.15625 C 10.117188 0.15625 9.945312 0.109375 9.8125 0.015625 C 9.675781 -0.078125 9.578125 -0.175781 9.515625 -0.28125 C 9.460938 -0.394531 9.382812 -0.5625 9.28125 -0.78125 L 8.4375 -2.53125 L 3.953125 -2.53125 L 3.109375 -0.78125 C 3.003906 -0.5625 2.921875 -0.398438 2.859375 -0.296875 C 2.796875 -0.203125 2.695312 -0.101562 2.5625 0 C 2.425781 0.09375 2.253906 0.140625 2.046875 0.140625 C 1.835938 0.140625 1.550781 0.0507812 1.1875 -0.125 C 0.5625 -0.425781 0.25 -0.773438 0.25 -1.171875 C 0.25 -1.347656 0.335938 -1.617188 0.515625 -1.984375 L 4.890625 -11.046875 C 5.003906 -11.285156 5.179688 -11.476562 5.421875 -11.625 C 5.671875 -11.78125 5.929688 -11.859375 6.203125 -11.859375 C 6.785156 -11.859375 7.21875 -11.582031 7.5 -11.03125 Z M 6.1875 -7.140625 L 5.109375 -4.921875 L 7.265625 -4.921875 Z M 6.1875 -7.140625 "/></g></g></g><g fill="#000000" fill-opacity="1"><g transform="translate(199.332351, 132.89801)"><g><path d="M 3.515625 -2.390625 L 7.921875 -2.390625 C 8.273438 -2.390625 8.53125 -2.347656 8.6875 -2.265625 C 8.851562 -2.191406 8.960938 -2.066406 9.015625 -1.890625 C 9.066406 -1.722656 9.09375 -1.492188 9.09375 -1.203125 C 9.09375 -0.921875 9.066406 -0.691406 9.015625 -0.515625 C 8.960938 -0.347656 8.867188 -0.226562 8.734375 -0.15625 C 8.535156 -0.0507812 8.257812 0 7.90625 0 L 2.078125 0 C 1.316406 0 0.875 -0.203125 0.75 -0.609375 C 0.675781 -0.785156 0.640625 -1.0625 0.640625 -1.4375 L 0.640625 -10.4375 C 0.640625 -10.6875 0.648438 -10.875 0.671875 -11 C 0.691406 -11.125 0.742188 -11.265625 0.828125 -11.421875 C 0.972656 -11.710938 1.394531 -11.859375 2.09375 -11.859375 C 2.84375 -11.859375 3.289062 -11.660156 3.4375 -11.265625 C 3.488281 -11.078125 3.515625 -10.796875 3.515625 -10.421875 Z M 3.515625 -2.390625 "/></g></g></g></svg>